{"glyphs":{"0":{"ha":833,"x_min":72,"x_max":760,"o":"m 424 735 q 598 690 522 735 q 717 563 674 644 q 760 369 760 481 q 715 170 760 258 q 592 31 671 82 q 408 -19 514 -19 q 236 26 313 -19 q 116 153 160 71 q 72 347 72 236 q 116 544 72 457 q 239 683 160 632 q 424 735 318 735 m 411 710 q 265 615 322 710 q 207 351 207 521 q 236 151 207 226 q 315 40 265 75 q 421 6 364 6 q 568 101 511 6 q 625 365 625 196 q 596 566 625 490 q 518 676 567 642 q 411 710 469 710 z "},"1":{"ha":514,"x_min":65,"x_max":485,"o":"m 351 731 l 351 143 q 382 53 351 76 q 485 29 413 29 l 485 0 q 403 3 457 1 q 293 6 350 6 q 170 3 229 6 q 79 0 111 1 l 79 29 q 188 52 149 29 q 226 143 226 75 l 226 479 q 213 578 226 546 q 163 619 199 610 q 65 629 128 629 l 65 660 q 232 678 165 663 q 351 731 299 693 z "},"2":{"ha":665,"x_min":65,"x_max":603,"o":"m 339 735 q 491 690 435 735 q 547 560 547 644 q 522 455 547 504 q 454 360 496 406 q 365 273 413 315 q 274 190 318 231 q 199 107 229 149 l 481 107 q 553 123 538 107 q 574 178 568 139 l 597 178 q 599 65 597 104 q 603 -7 600 25 q 557 -3 590 -4 q 481 -1 524 -1 q 396 0 438 0 l 71 0 l 71 24 q 171 122 113 69 q 284 235 229 174 q 376 370 339 297 q 413 529 413 443 q 376 644 413 608 q 274 679 339 679 q 171 647 218 679 q 88 549 124 614 l 65 561 q 122 645 86 606 q 210 710 157 685 q 339 735 264 735 z "},"3":{"ha":626,"x_min":51,"x_max":565,"o":"m 315 735 q 419 716 374 735 q 490 662 464 697 q 515 576 515 626 q 485 477 515 522 q 408 399 456 432 q 308 347 361 367 q 432 323 374 346 q 528 254 490 300 q 565 136 565 208 q 535 19 565 72 q 453 -77 506 -35 q 335 -149 401 -119 q 195 -194 268 -179 q 51 -210 122 -210 l 51 -185 q 190 -162 122 -183 q 313 -100 258 -140 q 401 0 368 -60 q 433 136 433 60 q 394 272 433 218 q 286 331 354 325 q 249 316 265 322 q 221 310 233 310 q 204 315 210 310 q 199 328 199 319 q 210 347 199 340 q 235 354 221 354 q 258 352 246 354 q 283 349 269 350 q 365 444 340 392 q 390 549 390 496 q 358 644 390 614 q 269 674 325 674 q 165 643 213 674 q 85 550 117 613 l 61 561 q 115 647 82 607 q 198 710 149 686 q 315 735 247 735 z "},"4":{"ha":686,"x_min":24,"x_max":636,"o":"m 475 735 l 481 699 l 90 146 l 89 168 l 514 168 q 586 184 571 168 q 607 239 601 200 l 631 239 q 632 135 631 171 q 636 68 633 99 q 605 72 626 71 q 554 74 583 72 q 493 75 525 75 q 429 75 461 75 l 24 75 l 24 104 l 475 735 m 497 735 l 497 -196 l 386 -196 l 386 588 l 475 735 l 497 735 z "},"5":{"ha":576,"x_min":63,"x_max":521,"o":"m 464 785 q 465 661 464 706 q 469 582 467 617 q 427 586 458 585 q 356 588 396 588 q 276 589 315 589 l 129 589 l 113 321 q 181 349 143 336 q 275 363 218 363 q 414 335 360 363 q 494 258 468 307 q 521 149 521 210 q 481 3 521 68 q 373 -109 440 -62 q 225 -181 306 -156 q 63 -206 144 -206 l 63 -181 q 182 -160 124 -181 q 287 -101 240 -140 q 361 -3 333 -61 q 389 135 389 56 q 344 272 389 222 q 214 321 299 321 q 153 315 178 321 q 100 297 129 308 l 86 306 l 113 719 q 148 715 128 717 q 188 714 168 714 l 344 714 q 417 730 401 714 q 438 785 432 746 l 464 785 z "},"6":{"ha":718,"x_min":76,"x_max":665,"o":"m 547 1004 l 553 976 q 459 938 507 961 q 367 872 411 914 q 288 766 322 831 q 232 606 253 701 q 211 378 211 511 q 236 151 211 232 q 299 40 261 71 q 374 8 336 8 q 451 37 415 8 q 508 129 486 65 q 531 296 531 193 q 510 456 531 396 q 456 542 490 515 q 381 568 422 568 q 314 554 350 568 q 247 508 278 540 q 203 415 217 475 l 189 407 q 238 528 199 485 q 326 590 276 572 q 415 608 375 608 q 538 573 481 608 q 630 470 594 538 q 665 306 665 403 q 624 128 665 201 q 513 18 582 56 q 360 -19 443 -19 q 152 84 228 -19 q 76 375 76 188 q 107 599 76 501 q 188 767 138 696 q 301 888 239 839 q 427 965 363 936 q 547 1004 492 993 z "},"7":{"ha":564,"x_min":38,"x_max":553,"o":"m 38 721 q 83 717 50 718 q 160 715 117 715 q 244 714 203 714 l 553 714 l 553 685 q 483 539 524 614 q 402 378 442 464 q 337 194 363 293 q 313 -25 311 94 q 314 -67 313 -47 q 317 -103 315 -86 q 318 -135 318 -119 q 300 -185 318 -165 q 253 -206 282 -206 q 206 -182 221 -206 q 190 -128 190 -158 q 215 54 190 -33 q 278 224 239 142 q 363 385 317 307 q 455 538 410 464 q 536 685 500 613 l 497 597 l 160 597 q 88 582 103 597 q 67 526 72 567 l 43 526 q 42 644 43 600 q 38 721 40 689 z "},"8":{"ha":722,"x_min":72,"x_max":651,"o":"m 372 1003 q 487 981 435 1003 q 570 917 539 960 q 601 813 601 875 q 546 663 601 728 q 403 542 490 597 l 392 561 q 449 628 428 592 q 481 706 471 664 q 490 794 490 749 q 456 927 490 876 q 357 978 422 978 q 264 938 301 978 q 226 829 226 899 q 257 715 226 764 q 336 625 288 665 q 439 547 385 585 q 542 466 493 508 q 621 370 590 424 q 651 246 651 317 q 613 107 651 167 q 506 14 574 47 q 351 -19 439 -19 q 214 6 278 -19 q 111 84 150 32 q 72 214 72 136 q 105 344 72 286 q 192 445 138 401 q 314 519 247 489 l 325 500 q 224 383 253 451 q 194 235 194 314 q 210 123 194 175 q 263 38 226 71 q 360 6 300 6 q 481 52 429 6 q 533 188 533 99 q 503 307 533 256 q 426 402 474 358 q 326 486 379 446 q 225 569 272 526 q 148 665 178 613 q 118 786 118 718 q 152 900 118 851 q 244 976 186 949 q 372 1003 301 1003 z "},"9":{"ha":707,"x_min":51,"x_max":640,"o":"m 357 735 q 565 639 489 735 q 640 368 640 543 q 610 165 640 254 q 528 10 579 76 q 416 -100 478 -56 q 290 -170 354 -144 q 169 -206 226 -196 l 164 -178 q 281 -131 221 -161 q 392 -42 342 -100 q 474 115 443 17 q 506 365 506 214 q 481 575 506 501 q 419 678 456 649 q 343 707 382 707 q 267 678 303 707 q 208 587 231 650 q 186 419 186 524 q 206 260 186 319 q 261 174 226 200 q 336 147 296 147 q 403 161 367 147 q 470 208 439 175 q 514 300 501 242 l 528 308 q 479 187 518 231 q 392 125 440 143 q 301 107 343 107 q 180 142 238 107 q 87 245 122 178 q 51 410 51 313 q 93 587 51 514 q 204 697 135 660 q 357 735 274 735 z "},"A":{"ha":875,"x_min":-10,"x_max":883,"o":"m 449 990 l 788 117 q 835 47 808 64 q 883 28 861 29 l 883 0 q 815 3 856 3 q 735 4 775 4 q 633 3 681 4 q 557 0 586 3 l 557 28 q 647 52 628 31 q 639 144 667 74 l 381 835 l 403 853 l 161 225 q 135 131 139 169 q 142 71 131 93 q 183 39 154 49 q 254 28 211 29 l 254 0 q 173 3 215 3 q 94 4 131 4 q 35 3 60 4 q -10 0 11 3 l -10 28 q 47 60 18 35 q 100 149 76 86 l 426 990 q 438 990 432 990 q 449 990 443 990 m 618 400 l 618 372 l 204 372 l 218 400 l 618 400 z "},"Á":{"ha":875,"x_min":-10,"x_max":883,"o":"m 449 990 l 788 117 q 835 47 808 64 q 883 28 861 29 l 883 0 q 815 3 856 3 q 735 4 775 4 q 633 3 681 4 q 557 0 586 3 l 557 28 q 647 52 628 31 q 639 144 667 74 l 381 835 l 403 853 l 161 225 q 135 131 139 169 q 142 71 131 93 q 183 39 154 49 q 254 28 211 29 l 254 0 q 173 3 215 3 q 94 4 131 4 q 35 3 60 4 q -10 0 11 3 l -10 28 q 47 60 18 35 q 100 149 76 86 l 426 990 q 438 990 432 990 q 449 990 443 990 m 618 400 l 618 372 l 204 372 l 218 400 l 618 400 m 585 1286 q 635 1299 613 1304 q 669 1276 658 1294 q 675 1237 681 1258 q 640 1196 669 1215 q 573 1163 611 1178 q 484 1128 535 1149 q 361 1072 433 1108 l 351 1090 q 456 1176 415 1139 q 526 1240 497 1213 q 585 1286 556 1268 z "},"Â":{"ha":875,"x_min":-10,"x_max":883,"o":"m 449 990 l 788 117 q 835 47 808 64 q 883 28 861 29 l 883 0 q 815 3 856 3 q 735 4 775 4 q 633 3 681 4 q 557 0 586 3 l 557 28 q 647 52 628 31 q 639 144 667 74 l 381 835 l 403 853 l 161 225 q 135 131 139 169 q 142 71 131 93 q 183 39 154 49 q 254 28 211 29 l 254 0 q 173 3 215 3 q 94 4 131 4 q 35 3 60 4 q -10 0 11 3 l -10 28 q 47 60 18 35 q 100 149 76 86 l 426 990 q 438 990 432 990 q 449 990 443 990 m 618 400 l 618 372 l 204 372 l 218 400 l 618 400 m 449 1272 q 549 1170 481 1219 q 708 1089 618 1121 l 701 1069 q 538 1114 618 1088 q 408 1167 457 1140 q 303 1114 369 1140 q 171 1069 238 1088 l 164 1089 q 323 1170 254 1121 q 424 1272 392 1219 l 449 1272 z "},"Ä":{"ha":875,"x_min":-10,"x_max":883,"o":"m 449 990 l 788 117 q 835 47 808 64 q 883 28 861 29 l 883 0 q 815 3 856 3 q 735 4 775 4 q 633 3 681 4 q 557 0 586 3 l 557 28 q 647 52 628 31 q 639 144 667 74 l 381 835 l 403 853 l 161 225 q 135 131 139 169 q 142 71 131 93 q 183 39 154 49 q 254 28 211 29 l 254 0 q 173 3 215 3 q 94 4 131 4 q 35 3 60 4 q -10 0 11 3 l -10 28 q 47 60 18 35 q 100 149 76 86 l 426 990 q 438 990 432 990 q 449 990 443 990 m 618 400 l 618 372 l 204 372 l 218 400 l 618 400 m 583 1233 q 640 1209 615 1233 q 664 1153 664 1185 q 640 1096 664 1119 q 583 1072 615 1072 q 526 1096 550 1072 q 503 1153 503 1119 q 526 1209 503 1185 q 583 1233 550 1233 m 289 1233 q 345 1209 321 1233 q 369 1153 369 1185 q 345 1096 369 1119 q 289 1072 321 1072 q 232 1096 256 1072 q 208 1153 208 1119 q 232 1209 208 1185 q 289 1233 256 1233 z "},"À":{"ha":875,"x_min":-10,"x_max":883,"o":"m 449 990 l 788 117 q 835 47 808 64 q 883 28 861 29 l 883 0 q 815 3 856 3 q 735 4 775 4 q 633 3 681 4 q 557 0 586 3 l 557 28 q 647 52 628 31 q 639 144 667 74 l 381 835 l 403 853 l 161 225 q 135 131 139 169 q 142 71 131 93 q 183 39 154 49 q 254 28 211 29 l 254 0 q 173 3 215 3 q 94 4 131 4 q 35 3 60 4 q -10 0 11 3 l -10 28 q 47 60 18 35 q 100 149 76 86 l 426 990 q 438 990 432 990 q 449 990 443 990 m 618 400 l 618 372 l 204 372 l 218 400 l 618 400 m 296 1286 q 354 1240 325 1268 q 424 1176 383 1213 q 529 1090 465 1139 l 519 1072 q 397 1128 449 1108 q 308 1163 344 1149 q 240 1196 271 1178 q 206 1237 211 1215 q 211 1276 200 1258 q 245 1299 222 1294 q 296 1286 268 1304 z "},"Å":{"ha":875,"x_min":-10,"x_max":883,"o":"m 449 990 l 788 117 q 835 47 808 64 q 883 28 861 29 l 883 0 q 815 3 856 3 q 735 4 775 4 q 633 3 681 4 q 557 0 586 3 l 557 28 q 647 52 628 31 q 639 144 667 74 l 381 835 l 403 853 l 161 225 q 135 131 139 169 q 142 71 131 93 q 183 39 154 49 q 254 28 211 29 l 254 0 q 173 3 215 3 q 94 4 131 4 q 35 3 60 4 q -10 0 11 3 l -10 28 q 47 60 18 35 q 100 149 76 86 l 426 990 q 438 990 432 990 q 449 990 443 990 m 618 400 l 618 372 l 204 372 l 218 400 l 618 400 m 436 1285 q 531 1251 490 1285 q 571 1158 571 1217 q 531 1065 571 1099 q 436 1031 490 1031 q 343 1065 383 1031 q 303 1158 303 1099 q 343 1251 303 1217 q 436 1285 383 1285 m 436 1256 q 372 1231 403 1256 q 342 1157 342 1206 q 372 1084 342 1108 q 436 1060 403 1060 q 501 1084 471 1060 q 532 1157 532 1108 q 501 1231 532 1206 q 436 1256 471 1256 z "},"Ã":{"ha":875,"x_min":-10,"x_max":883,"o":"m 449 990 l 788 117 q 835 47 808 64 q 883 28 861 29 l 883 0 q 815 3 856 3 q 735 4 775 4 q 633 3 681 4 q 557 0 586 3 l 557 28 q 647 52 628 31 q 639 144 667 74 l 381 835 l 403 853 l 161 225 q 135 131 139 169 q 142 71 131 93 q 183 39 154 49 q 254 28 211 29 l 254 0 q 173 3 215 3 q 94 4 131 4 q 35 3 60 4 q -10 0 11 3 l -10 28 q 47 60 18 35 q 100 149 76 86 l 426 990 q 438 990 432 990 q 449 990 443 990 m 618 400 l 618 372 l 204 372 l 218 400 l 618 400 m 324 1253 q 396 1237 363 1253 q 461 1199 429 1221 q 525 1162 493 1178 q 593 1146 557 1146 q 644 1163 621 1146 q 679 1224 667 1179 l 700 1219 q 649 1112 694 1151 q 546 1072 604 1072 q 474 1088 507 1072 q 408 1126 440 1104 q 344 1163 376 1147 q 276 1179 313 1179 q 225 1163 247 1179 q 190 1101 203 1146 l 169 1106 q 221 1214 176 1175 q 324 1253 265 1253 z "},"Æ":{"ha":1186,"x_min":-14,"x_max":1119,"o":"m 694 1072 l 135 144 q 115 56 96 81 q 206 28 135 31 l 206 0 q 151 3 185 3 q 79 4 117 4 q 30 3 56 4 q -14 0 4 3 l -14 28 q 31 49 8 29 q 82 117 53 68 l 661 1072 l 694 1072 m 1092 983 q 1084 889 1086 935 q 1082 819 1082 843 q 1083 772 1082 794 q 1086 733 1085 749 l 1054 733 q 1035 863 1047 815 q 995 931 1024 911 q 910 951 967 951 l 822 951 q 751 944 775 951 q 718 912 726 936 q 710 836 710 888 l 710 147 q 718 72 710 97 q 751 40 726 47 q 822 32 775 32 l 924 32 q 1022 56 992 32 q 1064 133 1053 79 q 1082 278 1075 186 l 1114 278 q 1110 178 1110 240 q 1112 102 1110 151 q 1119 0 1114 53 q 974 3 1056 3 q 829 4 893 4 q 738 4 794 4 q 618 3 682 4 q 496 0 554 3 l 496 28 q 550 39 532 31 q 574 72 568 47 q 581 147 581 97 l 581 836 q 572 912 581 888 q 540 945 564 936 q 468 956 515 954 l 468 983 q 600 981 531 982 q 731 979 669 979 q 829 979 792 979 q 960 980 886 979 q 1092 983 1033 981 m 626 508 l 626 481 l 321 481 l 335 508 l 626 508 m 904 508 q 904 494 904 508 q 904 481 904 481 l 668 481 q 668 494 668 481 q 668 508 668 508 l 904 508 m 944 664 q 940 560 939 596 q 940 494 940 525 q 942 429 940 464 q 949 325 943 394 l 917 325 q 906 399 913 363 q 880 458 900 435 q 811 481 860 481 l 811 508 q 867 524 847 508 q 895 565 886 540 q 907 617 904 590 q 913 664 910 643 l 944 664 z "},"B":{"ha":865,"x_min":58,"x_max":803,"o":"m 58 983 q 135 981 88 982 q 228 979 182 979 q 353 981 293 979 q 438 982 413 982 q 657 921 583 982 q 731 764 731 860 q 710 669 731 715 q 644 584 690 622 q 519 522 597 546 l 519 519 q 691 467 629 506 q 778 378 753 429 q 803 269 803 326 q 763 130 803 190 q 649 35 724 69 q 469 0 574 0 q 378 2 439 0 q 231 4 317 4 q 135 3 182 4 q 58 0 88 3 l 58 28 q 130 39 106 31 q 163 72 154 47 q 171 147 171 97 l 171 836 q 163 912 171 888 q 130 945 154 936 q 58 956 106 954 l 58 983 m 403 956 q 319 932 339 956 q 300 836 300 908 l 300 147 q 308 74 300 99 q 339 40 317 49 q 404 32 361 32 q 602 95 540 32 q 664 275 664 158 q 606 440 664 382 q 417 499 549 499 l 274 499 q 274 510 274 499 q 274 522 274 522 l 393 522 q 519 553 475 522 q 581 637 564 585 q 597 749 597 689 q 552 903 597 851 q 403 956 507 956 z "},"C":{"ha":956,"x_min":74,"x_max":865,"o":"m 515 1003 q 666 976 607 1003 q 771 913 725 949 q 813 908 799 892 q 833 983 828 924 l 865 983 q 861 858 863 932 q 860 664 860 785 l 828 664 q 810 759 818 724 q 790 819 801 794 q 758 869 778 844 q 650 952 715 926 q 513 978 585 978 q 390 944 444 978 q 295 846 335 910 q 234 692 256 782 q 213 489 213 601 q 236 283 213 372 q 302 132 260 193 q 402 40 344 71 q 526 8 460 8 q 657 33 589 8 q 764 114 725 58 q 806 201 794 154 q 828 333 818 249 l 860 333 q 861 130 860 207 q 865 0 863 53 l 833 0 q 815 75 828 60 q 771 71 801 90 q 662 8 719 35 q 514 -19 604 -19 q 283 40 382 -19 q 128 213 183 100 q 74 483 74 325 q 131 756 74 639 q 287 938 188 872 q 515 1003 386 1003 z "},"Ç":{"ha":956,"x_min":74,"x_max":865,"o":"m 515 1003 q 666 976 607 1003 q 771 913 725 949 q 813 908 799 892 q 833 983 828 924 l 865 983 q 861 858 863 932 q 860 664 860 785 l 828 664 q 810 759 818 724 q 790 819 801 794 q 758 869 778 844 q 650 952 715 926 q 513 978 585 978 q 390 944 444 978 q 295 846 335 910 q 234 692 256 782 q 213 489 213 601 q 236 283 213 372 q 302 132 260 193 q 402 40 344 71 q 526 8 460 8 q 657 33 589 8 q 764 114 725 58 q 806 201 794 154 q 828 333 818 249 l 860 333 q 861 130 860 207 q 865 0 863 53 l 833 0 q 815 75 828 60 q 771 71 801 90 q 662 8 719 35 q 514 -19 604 -19 q 283 40 382 -19 q 128 213 183 100 q 74 483 74 325 q 131 756 74 639 q 287 938 188 872 q 515 1003 386 1003 m 535 7 l 499 -100 q 538 -93 517 -96 q 581 -90 558 -90 q 642 -107 619 -90 q 665 -156 665 -124 q 640 -217 665 -194 q 578 -251 614 -240 q 508 -261 542 -261 q 441 -256 469 -261 q 393 -246 413 -251 l 399 -221 q 420 -224 406 -222 q 451 -225 435 -225 q 508 -219 479 -225 q 556 -201 536 -214 q 576 -162 576 -187 q 561 -133 576 -143 q 518 -124 546 -124 q 486 -126 507 -124 q 450 -133 465 -128 l 497 7 l 535 7 z "},"D":{"ha":1004,"x_min":58,"x_max":928,"o":"m 438 983 q 807 859 686 983 q 928 503 928 735 q 869 238 928 351 q 697 63 810 125 q 425 0 585 0 q 369 1 404 0 q 298 3 335 3 q 231 4 261 4 q 135 3 182 4 q 58 0 88 3 l 58 28 q 130 39 106 31 q 163 72 154 47 q 171 147 171 97 l 171 836 q 163 912 171 888 q 130 945 154 936 q 58 956 106 954 l 58 983 q 135 980 88 982 q 228 979 182 978 q 338 982 276 981 q 438 983 399 983 m 403 958 q 319 935 339 958 q 300 839 300 911 l 300 144 q 320 49 300 72 q 404 25 340 25 q 639 80 556 25 q 756 240 722 135 q 789 497 789 346 q 752 755 789 653 q 631 908 715 857 q 403 958 547 958 z "},"Ð":{"ha":1004,"x_min":13,"x_max":928,"o":"m 438 983 q 807 859 686 983 q 928 503 928 735 q 869 238 928 351 q 697 63 810 125 q 425 0 585 0 q 369 1 404 0 q 298 3 335 3 q 231 4 261 4 q 135 3 182 4 q 58 0 88 3 l 58 28 q 130 39 106 31 q 163 72 154 47 q 171 147 171 97 l 171 836 q 163 912 171 888 q 130 945 154 936 q 58 956 106 954 l 58 983 q 135 980 88 982 q 228 979 182 978 q 338 982 276 981 q 438 983 399 983 m 403 958 q 319 935 339 958 q 300 839 300 911 l 300 144 q 320 49 300 72 q 404 25 340 25 q 639 80 556 25 q 756 240 722 135 q 789 497 789 346 q 752 755 789 653 q 631 908 715 857 q 403 958 547 958 m 504 508 l 504 481 l 13 481 l 13 508 l 504 508 z "},"E":{"ha":846,"x_min":58,"x_max":779,"o":"m 751 983 q 744 889 746 935 q 742 819 742 843 q 743 772 742 794 q 746 733 744 749 l 714 733 q 690 863 706 815 q 638 931 675 911 q 528 951 601 951 l 413 951 q 341 944 365 951 q 308 912 317 936 q 300 836 300 888 l 300 147 q 308 72 300 97 q 341 40 317 47 q 413 32 365 32 l 514 32 q 647 56 601 32 q 712 133 692 79 q 742 278 732 186 l 774 278 q 769 178 769 240 q 772 102 769 151 q 779 0 774 53 q 619 3 708 3 q 461 4 531 4 q 383 4 431 4 q 279 3 335 4 q 167 2 224 3 q 58 0 110 1 l 58 28 q 130 39 106 31 q 163 72 154 47 q 171 147 171 97 l 171 836 q 163 912 171 888 q 130 945 154 936 q 58 956 106 954 l 58 983 q 167 981 110 982 q 279 980 224 981 q 383 979 335 979 q 461 979 431 979 q 606 980 525 979 q 751 983 688 981 m 513 508 q 513 494 513 508 q 513 481 513 481 l 258 481 q 258 494 258 481 q 258 508 258 508 l 513 508 m 553 692 q 548 571 547 613 q 549 494 549 529 q 550 418 549 460 q 557 297 551 376 l 525 297 q 512 384 519 342 q 478 453 504 426 q 392 481 453 481 l 392 508 q 462 527 438 508 q 497 575 486 546 q 513 635 508 604 q 521 692 517 667 l 553 692 z "},"É":{"ha":846,"x_min":58,"x_max":779,"o":"m 751 983 q 744 889 746 935 q 742 819 742 843 q 743 772 742 794 q 746 733 744 749 l 714 733 q 690 863 706 815 q 638 931 675 911 q 528 951 601 951 l 413 951 q 341 944 365 951 q 308 912 317 936 q 300 836 300 888 l 300 147 q 308 72 300 97 q 341 40 317 47 q 413 32 365 32 l 514 32 q 647 56 601 32 q 712 133 692 79 q 742 278 732 186 l 774 278 q 769 178 769 240 q 772 102 769 151 q 779 0 774 53 q 619 3 708 3 q 461 4 531 4 q 383 4 431 4 q 279 3 335 4 q 167 2 224 3 q 58 0 110 1 l 58 28 q 130 39 106 31 q 163 72 154 47 q 171 147 171 97 l 171 836 q 163 912 171 888 q 130 945 154 936 q 58 956 106 954 l 58 983 q 167 981 110 982 q 279 980 224 981 q 383 979 335 979 q 461 979 431 979 q 606 980 525 979 q 751 983 688 981 m 513 508 q 513 494 513 508 q 513 481 513 481 l 258 481 q 258 494 258 481 q 258 508 258 508 l 513 508 m 553 692 q 548 571 547 613 q 549 494 549 529 q 550 418 549 460 q 557 297 551 376 l 525 297 q 512 384 519 342 q 478 453 504 426 q 392 481 453 481 l 392 508 q 462 527 438 508 q 497 575 486 546 q 513 635 508 604 q 521 692 517 667 l 553 692 m 574 1286 q 624 1299 601 1304 q 658 1276 647 1294 q 664 1237 669 1258 q 629 1196 658 1215 q 562 1163 600 1178 q 473 1128 524 1149 q 350 1072 422 1108 l 340 1090 q 445 1176 404 1139 q 515 1240 486 1213 q 574 1286 544 1268 z "},"Ê":{"ha":846,"x_min":58,"x_max":779,"o":"m 751 983 q 744 889 746 935 q 742 819 742 843 q 743 772 742 794 q 746 733 744 749 l 714 733 q 690 863 706 815 q 638 931 675 911 q 528 951 601 951 l 413 951 q 341 944 365 951 q 308 912 317 936 q 300 836 300 888 l 300 147 q 308 72 300 97 q 341 40 317 47 q 413 32 365 32 l 514 32 q 647 56 601 32 q 712 133 692 79 q 742 278 732 186 l 774 278 q 769 178 769 240 q 772 102 769 151 q 779 0 774 53 q 619 3 708 3 q 461 4 531 4 q 383 4 431 4 q 279 3 335 4 q 167 2 224 3 q 58 0 110 1 l 58 28 q 130 39 106 31 q 163 72 154 47 q 171 147 171 97 l 171 836 q 163 912 171 888 q 130 945 154 936 q 58 956 106 954 l 58 983 q 167 981 110 982 q 279 980 224 981 q 383 979 335 979 q 461 979 431 979 q 606 980 525 979 q 751 983 688 981 m 513 508 q 513 494 513 508 q 513 481 513 481 l 258 481 q 258 494 258 481 q 258 508 258 508 l 513 508 m 553 692 q 548 571 547 613 q 549 494 549 529 q 550 418 549 460 q 557 297 551 376 l 525 297 q 512 384 519 342 q 478 453 504 426 q 392 481 453 481 l 392 508 q 462 527 438 508 q 497 575 486 546 q 513 635 508 604 q 521 692 517 667 l 553 692 m 438 1272 q 538 1170 469 1219 q 697 1089 607 1121 l 690 1069 q 526 1114 607 1088 q 397 1167 446 1140 q 292 1114 358 1140 q 160 1069 226 1088 l 153 1089 q 312 1170 243 1121 q 413 1272 381 1219 l 438 1272 z "},"Ë":{"ha":846,"x_min":58,"x_max":779,"o":"m 751 983 q 744 889 746 935 q 742 819 742 843 q 743 772 742 794 q 746 733 744 749 l 714 733 q 690 863 706 815 q 638 931 675 911 q 528 951 601 951 l 413 951 q 341 944 365 951 q 308 912 317 936 q 300 836 300 888 l 300 147 q 308 72 300 97 q 341 40 317 47 q 413 32 365 32 l 514 32 q 647 56 601 32 q 712 133 692 79 q 742 278 732 186 l 774 278 q 769 178 769 240 q 772 102 769 151 q 779 0 774 53 q 619 3 708 3 q 461 4 531 4 q 383 4 431 4 q 279 3 335 4 q 167 2 224 3 q 58 0 110 1 l 58 28 q 130 39 106 31 q 163 72 154 47 q 171 147 171 97 l 171 836 q 163 912 171 888 q 130 945 154 936 q 58 956 106 954 l 58 983 q 167 981 110 982 q 279 980 224 981 q 383 979 335 979 q 461 979 431 979 q 606 980 525 979 q 751 983 688 981 m 513 508 q 513 494 513 508 q 513 481 513 481 l 258 481 q 258 494 258 481 q 258 508 258 508 l 513 508 m 553 692 q 548 571 547 613 q 549 494 549 529 q 550 418 549 460 q 557 297 551 376 l 525 297 q 512 384 519 342 q 478 453 504 426 q 392 481 453 481 l 392 508 q 462 527 438 508 q 497 575 486 546 q 513 635 508 604 q 521 692 517 667 l 553 692 m 572 1233 q 628 1209 604 1233 q 653 1153 653 1185 q 628 1096 653 1119 q 572 1072 604 1072 q 515 1096 539 1072 q 492 1153 492 1119 q 515 1209 492 1185 q 572 1233 539 1233 m 278 1233 q 334 1209 310 1233 q 358 1153 358 1185 q 334 1096 358 1119 q 278 1072 310 1072 q 221 1096 244 1072 q 197 1153 197 1119 q 221 1209 197 1185 q 278 1233 244 1233 z "},"È":{"ha":846,"x_min":58,"x_max":779,"o":"m 751 983 q 744 889 746 935 q 742 819 742 843 q 743 772 742 794 q 746 733 744 749 l 714 733 q 690 863 706 815 q 638 931 675 911 q 528 951 601 951 l 413 951 q 341 944 365 951 q 308 912 317 936 q 300 836 300 888 l 300 147 q 308 72 300 97 q 341 40 317 47 q 413 32 365 32 l 514 32 q 647 56 601 32 q 712 133 692 79 q 742 278 732 186 l 774 278 q 769 178 769 240 q 772 102 769 151 q 779 0 774 53 q 619 3 708 3 q 461 4 531 4 q 383 4 431 4 q 279 3 335 4 q 167 2 224 3 q 58 0 110 1 l 58 28 q 130 39 106 31 q 163 72 154 47 q 171 147 171 97 l 171 836 q 163 912 171 888 q 130 945 154 936 q 58 956 106 954 l 58 983 q 167 981 110 982 q 279 980 224 981 q 383 979 335 979 q 461 979 431 979 q 606 980 525 979 q 751 983 688 981 m 513 508 q 513 494 513 508 q 513 481 513 481 l 258 481 q 258 494 258 481 q 258 508 258 508 l 513 508 m 553 692 q 548 571 547 613 q 549 494 549 529 q 550 418 549 460 q 557 297 551 376 l 525 297 q 512 384 519 342 q 478 453 504 426 q 392 481 453 481 l 392 508 q 462 527 438 508 q 497 575 486 546 q 513 635 508 604 q 521 692 517 667 l 553 692 m 285 1286 q 343 1240 314 1268 q 413 1176 372 1213 q 518 1090 454 1139 l 508 1072 q 385 1128 438 1108 q 297 1163 333 1149 q 229 1196 260 1178 q 194 1237 200 1215 q 200 1276 189 1258 q 234 1299 211 1294 q 285 1286 257 1304 z "},"F":{"ha":790,"x_min":58,"x_max":751,"o":"m 751 983 q 744 881 746 931 q 742 806 742 832 q 743 743 742 772 q 746 692 744 714 l 714 692 q 688 845 704 789 q 629 926 671 901 q 500 951 588 951 l 413 951 q 341 944 365 951 q 308 912 317 936 q 300 836 300 888 l 300 147 q 310 72 300 97 q 351 39 321 47 q 440 28 382 31 l 440 0 q 349 3 404 3 q 236 4 293 4 q 135 3 182 4 q 58 0 88 3 l 58 28 q 130 39 106 31 q 163 72 154 47 q 171 147 171 97 l 171 836 q 163 912 171 888 q 130 945 154 936 q 58 956 106 954 l 58 983 q 167 981 110 982 q 279 980 224 981 q 383 979 335 979 q 461 979 431 979 q 606 980 525 979 q 751 983 688 981 m 536 494 q 536 481 536 494 q 536 467 536 467 l 258 467 q 258 481 258 467 q 258 494 258 494 l 536 494 m 563 678 q 558 557 557 599 q 558 481 558 515 q 560 404 558 446 q 567 283 561 363 l 535 283 q 522 370 529 328 q 488 440 514 413 q 401 467 463 467 l 401 494 q 472 513 447 494 q 507 561 496 532 q 522 622 518 590 q 531 678 526 653 l 563 678 z "},"G":{"ha":976,"x_min":75,"x_max":929,"o":"m 522 1003 q 668 976 613 1003 q 772 913 724 949 q 800 899 790 899 q 835 983 826 899 l 867 983 q 863 858 864 932 q 861 664 861 785 l 829 664 q 806 776 819 722 q 760 869 792 831 q 654 949 719 921 q 519 978 589 978 q 394 944 450 978 q 297 846 338 910 q 235 692 257 782 q 214 490 214 603 q 294 124 214 240 q 544 8 375 8 q 631 23 594 8 q 689 51 668 38 q 722 85 715 69 q 729 128 729 101 l 729 261 q 718 346 729 318 q 677 383 707 374 q 589 394 647 393 l 589 422 q 647 420 614 421 q 717 419 681 419 q 785 418 754 418 q 867 419 831 418 q 929 422 904 421 l 929 394 q 883 385 899 393 q 863 351 868 376 q 858 275 858 326 l 858 0 l 831 0 q 820 51 829 24 q 793 79 811 79 q 776 75 785 79 q 747 56 768 71 q 650 1 701 21 q 531 -19 599 -19 q 285 40 388 -19 q 129 210 183 99 q 75 475 75 321 q 133 756 75 638 q 292 938 192 874 q 522 1003 393 1003 z "},"H":{"ha":1051,"x_min":58,"x_max":993,"o":"m 639 0 l 639 28 q 710 39 686 31 q 743 72 735 47 q 751 147 751 97 l 751 836 q 743 912 751 888 q 710 945 735 936 q 639 956 686 954 l 639 983 q 719 981 671 982 q 815 979 768 979 q 917 981 869 979 q 993 983 964 982 l 993 956 q 922 945 946 954 q 889 912 897 936 q 881 836 881 888 l 881 147 q 889 72 881 97 q 922 39 897 47 q 993 28 946 31 l 993 0 q 917 3 964 3 q 815 4 869 4 q 719 3 768 4 q 639 0 671 3 m 58 0 l 58 28 q 130 39 106 31 q 163 72 154 47 q 171 147 171 97 l 171 836 q 163 912 171 888 q 130 945 154 936 q 58 956 106 954 l 58 983 q 135 981 88 982 q 236 979 182 979 q 333 981 285 979 q 413 983 381 982 l 413 956 q 341 945 365 954 q 308 912 317 936 q 300 836 300 888 l 300 147 q 308 72 300 97 q 341 39 317 47 q 413 28 365 31 l 413 0 q 333 3 381 3 q 236 4 285 4 q 135 3 182 4 q 58 0 88 3 m 251 481 l 251 508 l 800 508 l 800 481 l 251 481 z "},"I":{"ha":471,"x_min":58,"x_max":413,"o":"m 413 983 l 413 956 q 341 945 365 954 q 308 912 317 936 q 300 836 300 888 l 300 147 q 308 72 300 97 q 341 39 317 47 q 413 28 365 31 l 413 0 q 333 3 381 3 q 236 4 285 4 q 135 3 182 4 q 58 0 88 3 l 58 28 q 130 39 106 31 q 163 72 154 47 q 171 147 171 97 l 171 836 q 163 912 171 888 q 130 945 154 936 q 58 956 106 954 l 58 983 q 135 981 88 982 q 236 979 182 979 q 333 981 285 979 q 413 983 381 982 z "},"Í":{"ha":471,"x_min":58,"x_max":481,"o":"m 413 983 l 413 956 q 341 945 365 954 q 308 912 317 936 q 300 836 300 888 l 300 147 q 308 72 300 97 q 341 39 317 47 q 413 28 365 31 l 413 0 q 333 3 381 3 q 236 4 285 4 q 135 3 182 4 q 58 0 88 3 l 58 28 q 130 39 106 31 q 163 72 154 47 q 171 147 171 97 l 171 836 q 163 912 171 888 q 130 945 154 936 q 58 956 106 954 l 58 983 q 135 981 88 982 q 236 979 182 979 q 333 981 285 979 q 413 983 381 982 m 385 1286 q 435 1299 413 1304 q 469 1276 458 1294 q 475 1237 481 1258 q 440 1196 469 1215 q 373 1163 411 1178 q 284 1128 335 1149 q 161 1072 233 1108 l 151 1090 q 256 1176 215 1139 q 326 1240 297 1213 q 385 1286 356 1268 z "},"Î":{"ha":471,"x_min":-36,"x_max":508,"o":"m 413 983 l 413 956 q 341 945 365 954 q 308 912 317 936 q 300 836 300 888 l 300 147 q 308 72 300 97 q 341 39 317 47 q 413 28 365 31 l 413 0 q 333 3 381 3 q 236 4 285 4 q 135 3 182 4 q 58 0 88 3 l 58 28 q 130 39 106 31 q 163 72 154 47 q 171 147 171 97 l 171 836 q 163 912 171 888 q 130 945 154 936 q 58 956 106 954 l 58 983 q 135 981 88 982 q 236 979 182 979 q 333 981 285 979 q 413 983 381 982 m 249 1272 q 349 1170 281 1219 q 508 1089 418 1121 l 501 1069 q 338 1114 418 1088 q 208 1167 257 1140 q 103 1114 169 1140 q -29 1069 38 1088 l -36 1089 q 123 1170 54 1121 q 224 1272 192 1219 l 249 1272 z "},"Ï":{"ha":471,"x_min":8,"x_max":464,"o":"m 413 983 l 413 956 q 341 945 365 954 q 308 912 317 936 q 300 836 300 888 l 300 147 q 308 72 300 97 q 341 39 317 47 q 413 28 365 31 l 413 0 q 333 3 381 3 q 236 4 285 4 q 135 3 182 4 q 58 0 88 3 l 58 28 q 130 39 106 31 q 163 72 154 47 q 171 147 171 97 l 171 836 q 163 912 171 888 q 130 945 154 936 q 58 956 106 954 l 58 983 q 135 981 88 982 q 236 979 182 979 q 333 981 285 979 q 413 983 381 982 m 383 1233 q 440 1209 415 1233 q 464 1153 464 1185 q 440 1096 464 1119 q 383 1072 415 1072 q 326 1096 350 1072 q 303 1153 303 1119 q 326 1209 303 1185 q 383 1233 350 1233 m 89 1233 q 145 1209 121 1233 q 169 1153 169 1185 q 145 1096 169 1119 q 89 1072 121 1072 q 32 1096 56 1072 q 8 1153 8 1119 q 32 1209 8 1185 q 89 1233 56 1233 z "},"Ì":{"ha":471,"x_min":0,"x_max":413,"o":"m 413 983 l 413 956 q 341 945 365 954 q 308 912 317 936 q 300 836 300 888 l 300 147 q 308 72 300 97 q 341 39 317 47 q 413 28 365 31 l 413 0 q 333 3 381 3 q 236 4 285 4 q 135 3 182 4 q 58 0 88 3 l 58 28 q 130 39 106 31 q 163 72 154 47 q 171 147 171 97 l 171 836 q 163 912 171 888 q 130 945 154 936 q 58 956 106 954 l 58 983 q 135 981 88 982 q 236 979 182 979 q 333 981 285 979 q 413 983 381 982 m 96 1286 q 154 1240 125 1268 q 224 1176 183 1213 q 329 1090 265 1139 l 319 1072 q 197 1128 249 1108 q 108 1163 144 1149 q 40 1196 71 1178 q 6 1237 11 1215 q 11 1276 0 1258 q 45 1299 22 1294 q 96 1286 68 1304 z "},"J":{"ha":453,"x_min":-28,"x_max":404,"o":"m -28 -261 l -28 -235 q 77 -204 35 -233 q 141 -108 119 -175 q 163 72 163 -40 l 163 836 q 154 912 163 888 q 122 945 146 936 q 50 956 97 954 l 50 983 q 126 981 79 982 q 225 979 174 979 q 324 981 276 979 q 404 983 372 982 l 404 956 q 333 945 357 954 q 300 912 308 936 q 292 836 292 888 l 292 328 q 290 204 292 271 q 284 75 289 138 q 268 -35 279 13 q 169 -197 244 -132 q -28 -261 93 -261 z "},"K":{"ha":910,"x_min":58,"x_max":908,"o":"m 854 983 l 854 956 q 771 928 811 950 q 690 854 731 906 l 422 511 l 453 579 l 786 113 q 838 58 810 78 q 908 28 865 39 l 908 0 q 826 3 875 3 q 742 4 776 4 q 684 3 718 4 q 599 0 650 3 l 599 28 q 658 44 646 31 q 649 90 671 58 l 446 396 q 397 460 418 439 q 352 489 375 482 q 294 497 329 496 l 294 525 q 392 548 353 526 q 458 603 432 569 l 592 772 q 654 871 638 831 q 653 933 671 911 q 576 956 635 954 l 576 983 q 631 981 603 982 q 685 980 658 981 q 736 979 713 979 q 803 981 772 979 q 854 983 833 982 m 413 983 l 413 956 q 341 945 365 954 q 308 912 317 936 q 300 836 300 888 l 300 147 q 308 72 300 97 q 341 39 317 47 q 413 28 365 31 l 413 0 q 333 3 381 3 q 236 4 285 4 q 135 3 182 4 q 58 0 88 3 l 58 28 q 130 39 106 31 q 163 72 154 47 q 171 147 171 97 l 171 836 q 163 912 171 888 q 130 945 154 936 q 58 956 106 954 l 58 983 q 135 981 88 982 q 236 979 182 979 q 333 981 285 979 q 413 983 381 982 z "},"L":{"ha":817,"x_min":58,"x_max":779,"o":"m 413 983 l 413 956 q 341 945 365 954 q 308 912 317 936 q 300 836 300 888 l 300 147 q 308 72 300 97 q 341 40 317 47 q 413 32 365 32 l 514 32 q 620 46 579 32 q 685 90 661 60 q 722 169 710 119 q 742 292 735 219 l 774 292 q 769 178 769 249 q 772 102 769 151 q 779 0 774 53 q 619 3 708 3 q 461 4 531 4 q 383 4 431 4 q 279 3 335 4 q 167 2 224 3 q 58 0 110 1 l 58 28 q 130 39 106 31 q 163 72 154 47 q 171 147 171 97 l 171 836 q 163 912 171 888 q 130 945 154 936 q 58 956 106 954 l 58 983 q 135 981 88 982 q 236 979 182 979 q 333 981 285 979 q 413 983 381 982 z "},"M":{"ha":1210,"x_min":58,"x_max":1151,"o":"m 1151 983 l 1151 956 q 1080 945 1104 954 q 1047 912 1056 936 q 1039 836 1039 888 l 1039 147 q 1047 72 1039 97 q 1080 39 1056 47 q 1151 28 1104 31 l 1151 0 q 1072 3 1119 3 q 975 4 1024 4 q 874 3 921 4 q 797 0 826 3 l 797 28 q 869 39 844 31 q 901 72 893 47 q 910 147 910 97 l 910 911 l 915 907 l 575 -7 l 553 -7 l 203 894 l 203 161 q 212 83 203 111 q 248 42 221 54 q 329 28 275 31 l 329 0 q 264 3 304 3 q 188 4 224 4 q 117 3 153 4 q 58 0 82 3 l 58 28 q 130 42 106 31 q 163 83 154 54 q 171 161 171 111 l 171 836 q 163 912 171 888 q 130 945 154 936 q 58 956 106 954 l 58 983 q 117 981 82 982 q 188 979 153 979 q 251 981 218 979 q 306 983 283 982 l 621 153 l 597 142 l 910 979 q 942 979 926 979 q 975 979 958 979 q 1072 981 1024 979 q 1151 983 1119 982 z "},"N":{"ha":981,"x_min":58,"x_max":931,"o":"m 931 983 l 931 956 q 859 942 883 954 q 826 901 835 929 q 818 822 818 874 l 818 -7 q 802 -7 810 -7 q 786 -7 794 -7 l 203 894 l 203 161 q 212 83 203 111 q 248 42 221 54 q 329 28 275 31 l 329 0 q 264 3 304 3 q 188 4 224 4 q 117 3 153 4 q 58 0 82 3 l 58 28 q 130 42 106 31 q 163 83 154 54 q 171 161 171 111 l 171 836 q 163 912 171 888 q 130 945 154 936 q 58 956 106 954 l 58 983 q 117 981 82 982 q 188 979 153 979 q 246 981 218 979 q 296 983 274 982 l 786 228 l 786 822 q 777 901 786 874 q 741 942 768 929 q 660 956 714 954 l 660 983 q 726 981 685 982 q 801 979 767 979 q 873 981 838 979 q 931 983 908 982 z "},"Ñ":{"ha":981,"x_min":58,"x_max":931,"o":"m 931 983 l 931 956 q 859 942 883 954 q 826 901 835 929 q 818 822 818 874 l 818 -7 q 802 -7 810 -7 q 786 -7 794 -7 l 203 894 l 203 161 q 212 83 203 111 q 248 42 221 54 q 329 28 275 31 l 329 0 q 264 3 304 3 q 188 4 224 4 q 117 3 153 4 q 58 0 82 3 l 58 28 q 130 42 106 31 q 163 83 154 54 q 171 161 171 111 l 171 836 q 163 912 171 888 q 130 945 154 936 q 58 956 106 954 l 58 983 q 117 981 82 982 q 188 979 153 979 q 246 981 218 979 q 296 983 274 982 l 786 228 l 786 822 q 777 901 786 874 q 741 942 768 929 q 660 956 714 954 l 660 983 q 726 981 685 982 q 801 979 767 979 q 873 981 838 979 q 931 983 908 982 m 407 1253 q 479 1237 446 1253 q 544 1199 513 1221 q 608 1162 576 1178 q 676 1146 640 1146 q 727 1163 704 1146 q 763 1224 750 1179 l 783 1219 q 733 1112 778 1151 q 629 1072 688 1072 q 557 1088 590 1072 q 492 1126 524 1104 q 428 1163 460 1147 q 360 1179 396 1179 q 308 1163 331 1179 q 274 1101 286 1146 l 253 1106 q 304 1214 260 1175 q 407 1253 349 1253 z "},"O":{"ha":1029,"x_min":74,"x_max":956,"o":"m 515 1003 q 747 943 647 1003 q 901 772 846 883 q 956 500 956 660 q 899 228 956 344 q 743 46 843 111 q 514 -19 643 -19 q 283 40 382 -19 q 128 213 183 100 q 74 483 74 325 q 131 756 74 639 q 287 938 188 872 q 515 1003 386 1003 m 510 978 q 353 915 419 978 q 249 743 286 853 q 213 489 213 633 q 253 233 213 342 q 365 65 294 124 q 519 6 435 6 q 676 68 610 6 q 780 241 743 131 q 817 494 817 351 q 776 751 817 643 q 665 919 735 860 q 510 978 596 978 z "},"Ó":{"ha":1029,"x_min":74,"x_max":956,"o":"m 515 1003 q 747 943 647 1003 q 901 772 846 883 q 956 500 956 660 q 899 228 956 344 q 743 46 843 111 q 514 -19 643 -19 q 283 40 382 -19 q 128 213 183 100 q 74 483 74 325 q 131 756 74 639 q 287 938 188 872 q 515 1003 386 1003 m 510 978 q 353 915 419 978 q 249 743 286 853 q 213 489 213 633 q 253 233 213 342 q 365 65 294 124 q 519 6 435 6 q 676 68 610 6 q 780 241 743 131 q 817 494 817 351 q 776 751 817 643 q 665 919 735 860 q 510 978 596 978 m 661 1286 q 712 1299 689 1304 q 746 1276 735 1294 q 751 1237 757 1258 q 717 1196 746 1215 q 649 1163 688 1178 q 560 1128 611 1149 q 438 1072 510 1108 l 428 1090 q 533 1176 492 1139 q 603 1240 574 1213 q 661 1286 632 1268 z "},"Ô":{"ha":1029,"x_min":74,"x_max":956,"o":"m 515 1003 q 747 943 647 1003 q 901 772 846 883 q 956 500 956 660 q 899 228 956 344 q 743 46 843 111 q 514 -19 643 -19 q 283 40 382 -19 q 128 213 183 100 q 74 483 74 325 q 131 756 74 639 q 287 938 188 872 q 515 1003 386 1003 m 510 978 q 353 915 419 978 q 249 743 286 853 q 213 489 213 633 q 253 233 213 342 q 365 65 294 124 q 519 6 435 6 q 676 68 610 6 q 780 241 743 131 q 817 494 817 351 q 776 751 817 643 q 665 919 735 860 q 510 978 596 978 m 525 1272 q 626 1170 557 1219 q 785 1089 694 1121 l 778 1069 q 614 1114 694 1088 q 485 1167 533 1140 q 380 1114 446 1140 q 247 1069 314 1088 l 240 1089 q 399 1170 331 1121 q 500 1272 468 1219 l 525 1272 z "},"Ö":{"ha":1029,"x_min":74,"x_max":956,"o":"m 515 1003 q 747 943 647 1003 q 901 772 846 883 q 956 500 956 660 q 899 228 956 344 q 743 46 843 111 q 514 -19 643 -19 q 283 40 382 -19 q 128 213 183 100 q 74 483 74 325 q 131 756 74 639 q 287 938 188 872 q 515 1003 386 1003 m 510 978 q 353 915 419 978 q 249 743 286 853 q 213 489 213 633 q 253 233 213 342 q 365 65 294 124 q 519 6 435 6 q 676 68 610 6 q 780 241 743 131 q 817 494 817 351 q 776 751 817 643 q 665 919 735 860 q 510 978 596 978 m 660 1233 q 716 1209 692 1233 q 740 1153 740 1185 q 716 1096 740 1119 q 660 1072 692 1072 q 603 1096 626 1072 q 579 1153 579 1119 q 603 1209 579 1185 q 660 1233 626 1233 m 365 1233 q 422 1209 397 1233 q 446 1153 446 1185 q 422 1096 446 1119 q 365 1072 397 1072 q 308 1096 332 1072 q 285 1153 285 1119 q 308 1209 285 1185 q 365 1233 332 1233 z "},"Ò":{"ha":1029,"x_min":74,"x_max":956,"o":"m 515 1003 q 747 943 647 1003 q 901 772 846 883 q 956 500 956 660 q 899 228 956 344 q 743 46 843 111 q 514 -19 643 -19 q 283 40 382 -19 q 128 213 183 100 q 74 483 74 325 q 131 756 74 639 q 287 938 188 872 q 515 1003 386 1003 m 510 978 q 353 915 419 978 q 249 743 286 853 q 213 489 213 633 q 253 233 213 342 q 365 65 294 124 q 519 6 435 6 q 676 68 610 6 q 780 241 743 131 q 817 494 817 351 q 776 751 817 643 q 665 919 735 860 q 510 978 596 978 m 372 1286 q 431 1240 401 1268 q 501 1176 460 1213 q 606 1090 542 1139 l 596 1072 q 473 1128 525 1108 q 384 1163 421 1149 q 317 1196 347 1178 q 282 1237 288 1215 q 288 1276 276 1258 q 322 1299 299 1294 q 372 1286 344 1304 z "},"Ø":{"ha":1029,"x_min":74,"x_max":956,"o":"m 515 1003 q 747 943 647 1003 q 901 772 846 883 q 956 500 956 660 q 899 228 956 344 q 743 46 843 111 q 514 -19 643 -19 q 283 40 382 -19 q 128 213 183 100 q 74 483 74 325 q 131 756 74 639 q 287 938 188 872 q 515 1003 386 1003 m 510 978 q 353 915 419 978 q 249 743 286 853 q 213 489 213 633 q 253 233 213 342 q 365 65 294 124 q 519 6 435 6 q 676 68 610 6 q 780 241 743 131 q 817 494 817 351 q 776 751 817 643 q 665 919 735 860 q 510 978 596 978 m 749 878 l 769 850 l 283 107 l 258 132 l 749 878 m 247 132 l 272 107 l 131 -101 l 101 -82 l 247 132 m 893 1074 l 919 1056 l 779 850 l 758 878 l 893 1074 z "},"Õ":{"ha":1029,"x_min":74,"x_max":956,"o":"m 515 1003 q 747 943 647 1003 q 901 772 846 883 q 956 500 956 660 q 899 228 956 344 q 743 46 843 111 q 514 -19 643 -19 q 283 40 382 -19 q 128 213 183 100 q 74 483 74 325 q 131 756 74 639 q 287 938 188 872 q 515 1003 386 1003 m 510 978 q 353 915 419 978 q 249 743 286 853 q 213 489 213 633 q 253 233 213 342 q 365 65 294 124 q 519 6 435 6 q 676 68 610 6 q 780 241 743 131 q 817 494 817 351 q 776 751 817 643 q 665 919 735 860 q 510 978 596 978 m 400 1253 q 472 1237 439 1253 q 538 1199 506 1221 q 601 1162 569 1178 q 669 1146 633 1146 q 720 1163 697 1146 q 756 1224 743 1179 l 776 1219 q 726 1112 771 1151 q 622 1072 681 1072 q 550 1088 583 1072 q 485 1126 517 1104 q 421 1163 453 1147 q 353 1179 389 1179 q 301 1163 324 1179 q 267 1101 279 1146 l 246 1106 q 297 1214 253 1175 q 400 1253 342 1253 z "},"Œ":{"ha":1289,"x_min":74,"x_max":1222,"o":"m 515 1003 q 579 998 549 1003 q 638 982 610 993 q 749 980 693 981 q 853 979 806 979 q 932 979 901 979 q 1063 980 989 979 q 1194 983 1136 981 q 1187 889 1189 935 q 1185 819 1185 843 q 1186 772 1185 794 q 1189 733 1188 749 l 1157 733 q 1133 863 1149 815 q 1081 931 1118 911 q 971 951 1044 951 l 925 951 q 853 944 878 951 q 821 912 829 936 q 813 836 813 888 l 813 147 q 821 72 813 97 q 853 40 829 47 q 925 32 878 32 l 957 32 q 1090 56 1044 32 q 1155 133 1135 79 q 1185 278 1175 186 l 1217 278 q 1213 178 1213 240 q 1215 102 1213 151 q 1222 0 1217 53 q 1077 3 1158 3 q 932 4 996 4 q 849 4 900 4 q 741 3 799 4 q 628 1 683 3 q 573 -14 601 -8 q 514 -19 544 -19 q 283 40 382 -19 q 128 213 183 100 q 74 483 74 325 q 131 756 74 639 q 287 938 188 872 q 515 1003 386 1003 m 510 978 q 353 915 419 978 q 249 743 286 853 q 213 489 213 633 q 253 233 213 342 q 365 65 294 124 q 519 6 435 6 q 594 20 556 6 q 658 66 632 35 q 683 147 683 97 l 683 836 q 660 918 683 888 q 597 963 636 949 q 510 978 557 978 m 1007 508 l 1007 481 l 771 481 l 771 508 l 1007 508 m 1033 664 q 1028 560 1028 596 q 1029 494 1029 525 q 1031 429 1029 464 q 1038 325 1032 394 l 1006 325 q 992 399 1000 363 q 959 458 985 435 q 872 481 933 481 l 872 508 q 942 524 918 508 q 978 565 967 540 q 993 617 989 590 q 1001 664 997 643 l 1033 664 z "},"P":{"ha":813,"x_min":58,"x_max":772,"o":"m 58 983 q 135 981 88 982 q 228 979 182 979 q 353 981 293 979 q 438 982 413 982 q 689 906 606 982 q 772 708 772 829 q 756 603 772 658 q 698 502 739 549 q 586 426 657 456 q 407 397 515 397 l 274 397 l 274 425 l 393 425 q 544 463 492 425 q 615 561 596 500 q 633 693 633 622 q 581 890 633 825 q 403 956 529 956 q 319 932 339 956 q 300 836 300 908 l 300 147 q 310 72 300 97 q 351 39 321 47 q 440 28 382 31 l 440 0 q 349 3 404 3 q 236 4 293 4 q 135 3 182 4 q 58 0 88 3 l 58 28 q 130 39 106 31 q 163 72 154 47 q 171 147 171 97 l 171 836 q 163 912 171 888 q 130 945 154 936 q 58 956 106 954 l 58 983 z "},"Þ":{"ha":806,"x_min":58,"x_max":763,"o":"m 428 776 q 615 740 540 776 q 726 643 689 704 q 763 506 763 582 q 746 398 763 453 q 688 296 729 343 q 576 220 647 249 q 397 192 506 192 l 264 192 q 264 206 264 192 q 264 219 264 219 l 383 219 q 534 258 482 219 q 605 360 586 296 q 624 497 624 424 q 572 685 624 621 q 393 750 519 750 q 330 749 364 750 q 266 748 296 749 q 221 747 236 747 l 218 774 q 343 775 283 774 q 428 776 403 776 m 413 983 l 413 956 q 341 945 365 954 q 308 912 317 936 q 300 836 300 888 l 300 147 q 308 72 300 97 q 341 39 317 47 q 413 28 365 31 l 413 0 q 333 3 381 3 q 236 4 285 4 q 135 3 182 4 q 58 0 88 3 l 58 28 q 130 39 106 31 q 163 72 154 47 q 171 147 171 97 l 171 836 q 163 912 171 888 q 130 945 154 936 q 58 956 106 954 l 58 983 q 135 981 88 982 q 236 979 182 979 q 333 981 285 979 q 413 983 381 982 z "},"Q":{"ha":1029,"x_min":74,"x_max":1060,"o":"m 1039 -32 l 1060 -40 q 1022 -135 1043 -97 q 972 -199 1000 -174 q 901 -242 946 -222 q 785 -261 856 -261 q 642 -237 711 -261 q 500 -178 574 -212 q 338 -114 426 -143 q 319 -108 328 -111 q 304 -104 311 -106 q 247 -119 278 -114 q 189 -125 217 -125 q 143 -118 161 -125 q 125 -97 125 -111 q 200 -68 125 -68 q 304 -79 249 -68 q 390 -48 354 -65 q 465 -15 426 -31 q 557 4 503 0 l 558 -18 q 486 -34 517 -22 q 425 -60 456 -46 q 353 -86 394 -74 q 504 -115 422 -100 q 663 -142 586 -131 q 793 -153 739 -153 q 951 -124 893 -153 q 1039 -32 1008 -94 m 515 1003 q 747 943 647 1003 q 901 772 846 883 q 956 500 956 660 q 899 228 956 344 q 743 46 843 111 q 514 -19 643 -19 q 283 40 382 -19 q 128 213 183 100 q 74 483 74 325 q 131 756 74 639 q 287 938 188 872 q 515 1003 386 1003 m 510 978 q 353 915 419 978 q 249 743 286 853 q 213 489 213 633 q 253 233 213 342 q 365 65 294 124 q 519 6 435 6 q 676 68 610 6 q 780 241 743 131 q 817 494 817 351 q 776 751 817 643 q 665 919 735 860 q 510 978 596 978 z "},"R":{"ha":900,"x_min":58,"x_max":917,"o":"m 58 983 q 135 981 88 982 q 228 979 182 979 q 353 981 293 979 q 438 982 413 982 q 624 950 550 982 q 735 863 699 918 q 772 740 772 808 q 756 651 772 699 q 698 563 739 604 q 586 494 657 521 q 407 467 515 467 l 274 467 l 274 494 l 393 494 q 544 526 492 494 q 615 609 596 557 q 633 725 633 661 q 581 895 633 835 q 403 956 529 956 q 319 932 339 956 q 300 836 300 908 l 300 147 q 308 72 300 97 q 341 39 317 47 q 413 28 365 31 l 413 0 q 333 3 381 3 q 236 4 285 4 q 135 3 182 4 q 58 0 88 3 l 58 28 q 130 39 106 31 q 163 72 154 47 q 171 147 171 97 l 171 836 q 163 912 171 888 q 130 945 154 936 q 58 956 106 954 l 58 983 m 279 490 q 397 484 354 488 q 467 478 440 481 q 519 471 494 475 q 653 415 613 456 q 714 288 694 374 l 749 146 q 777 58 763 85 q 822 32 792 31 q 862 47 846 33 q 896 85 878 61 l 917 69 q 856 3 888 26 q 768 -19 825 -19 q 678 11 717 -19 q 619 131 639 42 l 589 269 q 560 373 576 329 q 516 442 544 417 q 432 467 488 467 l 282 467 l 279 490 z "},"S":{"ha":750,"x_min":88,"x_max":682,"o":"m 356 999 q 461 983 425 999 q 525 947 497 967 q 552 933 542 938 q 572 928 563 928 q 592 943 586 928 q 603 989 599 958 l 635 989 q 631 933 633 965 q 628 847 629 900 q 628 706 628 793 l 596 706 q 567 833 592 772 q 494 933 542 894 q 368 972 446 972 q 247 928 294 972 q 199 811 199 883 q 231 706 199 749 q 316 630 263 664 q 432 557 369 596 q 560 469 504 513 q 649 372 617 425 q 682 244 682 319 q 642 97 682 156 q 535 10 601 39 q 388 -19 468 -19 q 271 -3 314 -19 q 197 32 228 14 q 150 51 167 51 q 130 36 136 51 q 119 -10 124 21 l 88 -10 q 91 59 90 19 q 92 163 92 99 q 93 324 93 226 l 125 324 q 156 168 131 240 q 235 52 182 96 q 378 8 289 8 q 465 27 424 8 q 532 87 506 46 q 558 193 558 128 q 531 292 558 250 q 456 372 504 335 q 342 447 407 408 q 219 529 276 488 q 128 626 163 571 q 94 758 94 681 q 131 894 94 840 q 228 973 168 947 q 356 999 288 999 z "},"T":{"ha":863,"x_min":40,"x_max":822,"o":"m 822 983 q 815 881 817 931 q 813 806 813 832 q 814 743 813 772 q 817 692 815 714 l 785 692 q 758 845 775 789 q 700 926 742 901 q 571 951 658 951 l 496 951 l 496 161 q 506 78 496 106 q 547 40 517 50 q 636 28 578 31 l 636 0 q 544 3 600 3 q 432 4 489 4 q 315 3 369 4 q 226 0 260 3 l 226 28 q 315 40 285 31 q 356 78 346 50 q 367 161 367 106 l 367 951 l 292 951 q 163 926 206 951 q 104 845 121 901 q 78 692 88 789 l 46 692 q 49 743 49 714 q 50 806 50 772 q 48 881 50 832 q 40 983 46 931 q 167 981 99 982 q 306 979 236 979 q 432 979 375 979 q 558 979 489 979 q 696 981 626 979 q 822 983 765 982 z "},"U":{"ha":947,"x_min":38,"x_max":910,"o":"m 910 983 l 910 956 q 838 942 863 954 q 806 901 814 929 q 797 822 797 874 l 797 404 q 785 235 797 307 q 740 110 772 163 q 639 16 706 51 q 486 -19 572 -19 q 359 -3 419 -19 q 253 56 299 13 q 190 138 213 94 q 158 243 167 181 q 150 400 150 306 l 150 836 q 142 912 150 888 q 109 945 133 936 q 38 956 85 954 l 38 983 q 114 981 67 982 q 215 979 161 979 q 312 981 264 979 q 392 983 360 982 l 392 956 q 320 945 344 954 q 288 912 296 936 q 279 836 279 888 l 279 376 q 286 242 279 306 q 315 131 293 179 q 381 56 336 83 q 499 29 425 29 q 662 76 604 29 q 742 204 719 122 q 765 389 765 286 l 765 822 q 753 901 765 874 q 714 942 742 929 q 639 956 686 954 l 639 983 q 705 981 664 982 q 781 979 746 979 q 852 981 817 979 q 910 983 888 982 z "},"Ú":{"ha":947,"x_min":38,"x_max":910,"o":"m 910 983 l 910 956 q 838 942 863 954 q 806 901 814 929 q 797 822 797 874 l 797 404 q 785 235 797 307 q 740 110 772 163 q 639 16 706 51 q 486 -19 572 -19 q 359 -3 419 -19 q 253 56 299 13 q 190 138 213 94 q 158 243 167 181 q 150 400 150 306 l 150 836 q 142 912 150 888 q 109 945 133 936 q 38 956 85 954 l 38 983 q 114 981 67 982 q 215 979 161 979 q 312 981 264 979 q 392 983 360 982 l 392 956 q 320 945 344 954 q 288 912 296 936 q 279 836 279 888 l 279 376 q 286 242 279 306 q 315 131 293 179 q 381 56 336 83 q 499 29 425 29 q 662 76 604 29 q 742 204 719 122 q 765 389 765 286 l 765 822 q 753 901 765 874 q 714 942 742 929 q 639 956 686 954 l 639 983 q 705 981 664 982 q 781 979 746 979 q 852 981 817 979 q 910 983 888 982 m 638 1286 q 688 1299 665 1304 q 722 1276 711 1294 q 728 1237 733 1258 q 693 1196 722 1215 q 626 1163 664 1178 q 537 1128 588 1149 q 414 1072 486 1108 l 404 1090 q 509 1176 468 1139 q 579 1240 550 1213 q 638 1286 608 1268 z "},"Û":{"ha":947,"x_min":38,"x_max":910,"o":"m 910 983 l 910 956 q 838 942 863 954 q 806 901 814 929 q 797 822 797 874 l 797 404 q 785 235 797 307 q 740 110 772 163 q 639 16 706 51 q 486 -19 572 -19 q 359 -3 419 -19 q 253 56 299 13 q 190 138 213 94 q 158 243 167 181 q 150 400 150 306 l 150 836 q 142 912 150 888 q 109 945 133 936 q 38 956 85 954 l 38 983 q 114 981 67 982 q 215 979 161 979 q 312 981 264 979 q 392 983 360 982 l 392 956 q 320 945 344 954 q 288 912 296 936 q 279 836 279 888 l 279 376 q 286 242 279 306 q 315 131 293 179 q 381 56 336 83 q 499 29 425 29 q 662 76 604 29 q 742 204 719 122 q 765 389 765 286 l 765 822 q 753 901 765 874 q 714 942 742 929 q 639 956 686 954 l 639 983 q 705 981 664 982 q 781 979 746 979 q 852 981 817 979 q 910 983 888 982 m 501 1272 q 602 1170 533 1219 q 761 1089 671 1121 l 754 1069 q 590 1114 671 1088 q 461 1167 510 1140 q 356 1114 422 1140 q 224 1069 290 1088 l 217 1089 q 376 1170 307 1121 q 476 1272 444 1219 l 501 1272 z "},"Ü":{"ha":947,"x_min":38,"x_max":910,"o":"m 910 983 l 910 956 q 838 942 863 954 q 806 901 814 929 q 797 822 797 874 l 797 404 q 785 235 797 307 q 740 110 772 163 q 639 16 706 51 q 486 -19 572 -19 q 359 -3 419 -19 q 253 56 299 13 q 190 138 213 94 q 158 243 167 181 q 150 400 150 306 l 150 836 q 142 912 150 888 q 109 945 133 936 q 38 956 85 954 l 38 983 q 114 981 67 982 q 215 979 161 979 q 312 981 264 979 q 392 983 360 982 l 392 956 q 320 945 344 954 q 288 912 296 936 q 279 836 279 888 l 279 376 q 286 242 279 306 q 315 131 293 179 q 381 56 336 83 q 499 29 425 29 q 662 76 604 29 q 742 204 719 122 q 765 389 765 286 l 765 822 q 753 901 765 874 q 714 942 742 929 q 639 956 686 954 l 639 983 q 705 981 664 982 q 781 979 746 979 q 852 981 817 979 q 910 983 888 982 m 636 1233 q 692 1209 668 1233 q 717 1153 717 1185 q 692 1096 717 1119 q 636 1072 668 1072 q 579 1096 603 1072 q 556 1153 556 1119 q 579 1209 556 1185 q 636 1233 603 1233 m 342 1233 q 398 1209 374 1233 q 422 1153 422 1185 q 398 1096 422 1119 q 342 1072 374 1072 q 285 1096 308 1072 q 261 1153 261 1119 q 285 1209 261 1185 q 342 1233 308 1233 z "},"Ù":{"ha":947,"x_min":38,"x_max":910,"o":"m 910 983 l 910 956 q 838 942 863 954 q 806 901 814 929 q 797 822 797 874 l 797 404 q 785 235 797 307 q 740 110 772 163 q 639 16 706 51 q 486 -19 572 -19 q 359 -3 419 -19 q 253 56 299 13 q 190 138 213 94 q 158 243 167 181 q 150 400 150 306 l 150 836 q 142 912 150 888 q 109 945 133 936 q 38 956 85 954 l 38 983 q 114 981 67 982 q 215 979 161 979 q 312 981 264 979 q 392 983 360 982 l 392 956 q 320 945 344 954 q 288 912 296 936 q 279 836 279 888 l 279 376 q 286 242 279 306 q 315 131 293 179 q 381 56 336 83 q 499 29 425 29 q 662 76 604 29 q 742 204 719 122 q 765 389 765 286 l 765 822 q 753 901 765 874 q 714 942 742 929 q 639 956 686 954 l 639 983 q 705 981 664 982 q 781 979 746 979 q 852 981 817 979 q 910 983 888 982 m 349 1286 q 407 1240 378 1268 q 477 1176 436 1213 q 582 1090 518 1139 l 572 1072 q 449 1128 501 1108 q 360 1163 397 1149 q 293 1196 324 1178 q 258 1237 264 1215 q 264 1276 253 1258 q 298 1299 275 1294 q 349 1286 321 1304 z "},"V":{"ha":875,"x_min":-8,"x_max":885,"o":"m 885 983 l 885 956 q 828 924 858 950 q 775 835 799 897 l 449 -7 q 443 -7 446 -7 q 438 -7 440 -7 q 432 -7 435 -7 q 426 -7 429 -7 l 88 867 q 40 937 67 919 q -8 956 14 954 l -8 983 q 60 981 19 982 q 140 979 101 979 q 242 981 194 979 q 318 983 289 982 l 318 956 q 247 944 271 954 q 220 910 222 935 q 236 839 218 886 l 494 154 l 472 131 l 714 758 q 742 876 743 833 q 710 936 740 918 q 621 956 679 954 l 621 983 q 703 981 661 982 q 781 979 744 979 q 840 981 817 979 q 885 983 864 982 z "},"W":{"ha":1257,"x_min":-10,"x_max":1260,"o":"m 1260 983 l 1260 956 q 1201 924 1233 950 q 1150 835 1169 899 l 888 -7 q 882 -7 885 -7 q 876 -7 879 -7 q 871 -7 874 -7 q 865 -7 868 -7 l 571 867 q 531 938 553 921 q 489 956 508 954 l 489 983 q 551 981 514 982 q 624 979 589 979 q 725 981 678 979 q 801 983 772 982 l 801 956 q 735 947 760 954 q 708 917 711 940 q 721 839 704 893 l 928 199 l 908 182 l 1092 758 q 1115 877 1117 835 q 1083 937 1113 919 q 996 956 1054 954 l 996 983 q 1078 981 1036 982 q 1156 979 1119 979 q 1215 981 1192 979 q 1260 983 1239 982 m 289 983 l 289 956 q 237 942 253 953 q 222 906 221 931 q 236 839 222 882 l 451 182 l 417 147 l 611 768 l 632 735 l 403 -7 q 397 -7 400 -7 q 392 -7 394 -7 q 386 -7 389 -7 q 381 -7 383 -7 l 86 867 q 40 938 68 921 q -10 956 13 954 l -10 983 q 59 981 18 982 q 139 979 100 979 q 224 981 185 979 q 289 983 264 982 z "},"X":{"ha":881,"x_min":22,"x_max":871,"o":"m 339 983 l 339 954 q 254 940 269 954 q 258 893 239 925 l 778 99 q 822 45 804 58 q 871 29 840 32 l 871 0 q 820 3 853 1 q 751 6 788 6 q 640 3 696 6 q 556 0 583 1 l 556 29 q 644 38 625 29 q 644 76 664 46 l 117 885 q 73 939 90 925 q 24 954 56 953 l 24 983 q 75 980 42 982 q 143 978 108 978 q 250 980 200 978 q 339 983 300 982 m 415 507 q 418 498 415 507 q 424 480 421 489 q 428 471 428 471 l 257 217 q 205 101 207 142 q 236 45 203 61 q 328 28 269 29 l 328 0 q 283 2 308 1 q 233 3 258 3 q 183 4 207 4 q 140 4 158 4 q 74 3 106 4 q 22 0 43 3 l 22 28 q 103 67 65 35 q 179 156 140 99 l 415 507 m 842 983 l 842 956 q 761 917 799 950 q 685 828 724 885 l 461 494 q 457 513 461 494 q 453 531 453 531 l 611 767 q 669 882 661 842 q 650 938 678 922 q 564 956 622 954 l 564 983 q 618 981 590 982 q 673 980 646 981 q 724 979 700 979 q 790 981 760 979 q 842 983 821 982 z "},"Y":{"ha":821,"x_min":-4,"x_max":817,"o":"m 817 983 l 817 956 q 764 922 790 950 q 706 832 738 893 l 425 276 l 401 276 l 76 876 q 30 941 49 928 q -4 954 11 954 l -4 983 q 53 981 24 982 q 118 979 83 979 q 216 980 164 979 q 313 983 268 981 l 313 954 q 251 946 278 954 q 217 915 225 938 q 229 853 208 893 l 464 403 l 453 394 l 638 763 q 676 881 676 839 q 643 938 675 922 q 553 956 611 954 l 553 983 q 635 981 593 982 q 713 979 676 979 q 772 981 749 979 q 817 983 796 982 m 488 422 l 488 147 q 496 72 488 97 q 528 39 504 47 q 600 28 553 31 l 600 0 q 520 3 568 3 q 424 4 472 4 q 322 3 369 4 q 246 0 275 3 l 246 28 q 317 39 293 31 q 350 72 342 47 q 358 147 358 97 l 358 432 l 433 346 l 488 422 z "},"Ý":{"ha":821,"x_min":-4,"x_max":817,"o":"m 817 983 l 817 956 q 764 922 790 950 q 706 832 738 893 l 425 276 l 401 276 l 76 876 q 30 941 49 928 q -4 954 11 954 l -4 983 q 53 981 24 982 q 118 979 83 979 q 216 980 164 979 q 313 983 268 981 l 313 954 q 251 946 278 954 q 217 915 225 938 q 229 853 208 893 l 464 403 l 453 394 l 638 763 q 676 881 676 839 q 643 938 675 922 q 553 956 611 954 l 553 983 q 635 981 593 982 q 713 979 676 979 q 772 981 749 979 q 817 983 796 982 m 488 422 l 488 147 q 496 72 488 97 q 528 39 504 47 q 600 28 553 31 l 600 0 q 520 3 568 3 q 424 4 472 4 q 322 3 369 4 q 246 0 275 3 l 246 28 q 317 39 293 31 q 350 72 342 47 q 358 147 358 97 l 358 432 l 433 346 l 488 422 m 571 1286 q 622 1299 599 1304 q 656 1276 644 1294 q 661 1237 667 1258 q 626 1196 656 1215 q 559 1163 597 1178 q 470 1128 521 1149 q 347 1072 419 1108 l 338 1090 q 442 1176 401 1139 q 513 1240 483 1213 q 571 1286 542 1268 z "},"Z":{"ha":825,"x_min":58,"x_max":764,"o":"m 764 983 l 764 956 l 210 32 l 482 32 q 588 46 547 32 q 653 90 629 60 q 690 169 678 119 q 710 292 703 219 l 742 292 q 738 178 738 249 q 740 102 738 151 q 747 0 742 53 q 635 3 696 3 q 513 4 574 4 q 401 4 453 4 q 228 3 319 4 q 58 0 138 3 l 58 28 l 617 951 l 346 951 q 240 938 281 951 q 174 894 199 924 q 138 814 150 864 q 118 692 125 764 l 86 692 q 90 743 89 714 q 90 806 90 772 q 88 881 90 832 q 81 983 86 931 q 193 981 132 982 q 315 979 254 979 q 426 979 376 979 q 597 980 506 979 q 764 983 688 981 z "},"a":{"ha":692,"x_min":54,"x_max":690,"o":"m 238 -10 q 139 12 181 -10 q 76 72 97 33 q 54 163 54 111 q 83 263 54 224 q 156 325 111 301 q 249 365 200 349 q 343 395 299 381 q 416 429 388 410 q 444 481 444 449 l 444 567 q 427 656 444 625 q 381 697 410 686 q 315 707 351 707 q 241 697 281 707 q 178 657 201 688 q 224 629 204 651 q 243 572 243 607 q 221 517 243 538 q 164 497 199 497 q 105 523 124 497 q 86 581 86 549 q 104 639 86 617 q 150 681 122 661 q 233 719 182 703 q 347 735 283 735 q 444 722 404 735 q 511 683 485 708 q 558 602 547 650 q 569 488 569 554 l 569 101 q 580 51 569 67 q 613 36 590 36 q 642 43 628 36 q 675 65 656 50 l 690 42 q 635 5 661 19 q 564 -10 608 -10 q 497 4 524 -10 q 458 45 471 18 q 444 114 444 72 q 355 21 407 51 q 238 -10 303 -10 m 288 46 q 373 72 333 46 q 444 151 413 99 l 444 424 q 396 384 428 400 q 326 352 364 368 q 255 315 289 336 q 199 258 221 293 q 176 168 176 224 q 206 79 176 113 q 288 46 236 46 z "},"á":{"ha":692,"x_min":54,"x_max":690,"o":"m 238 -10 q 139 12 181 -10 q 76 72 97 33 q 54 163 54 111 q 83 263 54 224 q 156 325 111 301 q 249 365 200 349 q 343 395 299 381 q 416 429 388 410 q 444 481 444 449 l 444 567 q 427 656 444 625 q 381 697 410 686 q 315 707 351 707 q 241 697 281 707 q 178 657 201 688 q 224 629 204 651 q 243 572 243 607 q 221 517 243 538 q 164 497 199 497 q 105 523 124 497 q 86 581 86 549 q 104 639 86 617 q 150 681 122 661 q 233 719 182 703 q 347 735 283 735 q 444 722 404 735 q 511 683 485 708 q 558 602 547 650 q 569 488 569 554 l 569 101 q 580 51 569 67 q 613 36 590 36 q 642 43 628 36 q 675 65 656 50 l 690 42 q 635 5 661 19 q 564 -10 608 -10 q 497 4 524 -10 q 458 45 471 18 q 444 114 444 72 q 355 21 407 51 q 238 -10 303 -10 m 288 46 q 373 72 333 46 q 444 151 413 99 l 444 424 q 396 384 428 400 q 326 352 364 368 q 255 315 289 336 q 199 258 221 293 q 176 168 176 224 q 206 79 176 113 q 288 46 236 46 m 490 1129 q 509 1093 507 1115 q 490 1043 511 1071 q 439 990 469 1017 q 367 927 408 964 q 271 832 326 890 l 256 844 q 324 961 299 913 q 368 1046 350 1010 q 407 1108 386 1082 q 451 1139 428 1136 q 490 1129 474 1142 z "},"â":{"ha":692,"x_min":54,"x_max":690,"o":"m 238 -10 q 139 12 181 -10 q 76 72 97 33 q 54 163 54 111 q 83 263 54 224 q 156 325 111 301 q 249 365 200 349 q 343 395 299 381 q 416 429 388 410 q 444 481 444 449 l 444 567 q 427 656 444 625 q 381 697 410 686 q 315 707 351 707 q 241 697 281 707 q 178 657 201 688 q 224 629 204 651 q 243 572 243 607 q 221 517 243 538 q 164 497 199 497 q 105 523 124 497 q 86 581 86 549 q 104 639 86 617 q 150 681 122 661 q 233 719 182 703 q 347 735 283 735 q 444 722 404 735 q 511 683 485 708 q 558 602 547 650 q 569 488 569 554 l 569 101 q 580 51 569 67 q 613 36 590 36 q 642 43 628 36 q 675 65 656 50 l 690 42 q 635 5 661 19 q 564 -10 608 -10 q 497 4 524 -10 q 458 45 471 18 q 444 114 444 72 q 355 21 407 51 q 238 -10 303 -10 m 288 46 q 373 72 333 46 q 444 151 413 99 l 444 424 q 396 384 428 400 q 326 352 364 368 q 255 315 289 336 q 199 258 221 293 q 176 168 176 224 q 206 79 176 113 q 288 46 236 46 m 354 1114 q 444 980 382 1044 q 586 875 506 915 l 575 856 q 429 919 500 882 q 314 994 358 957 q 223 919 279 957 q 108 856 167 882 l 97 875 q 240 980 178 915 q 329 1114 301 1044 l 354 1114 z "},"ä":{"ha":692,"x_min":54,"x_max":690,"o":"m 238 -10 q 139 12 181 -10 q 76 72 97 33 q 54 163 54 111 q 83 263 54 224 q 156 325 111 301 q 249 365 200 349 q 343 395 299 381 q 416 429 388 410 q 444 481 444 449 l 444 567 q 427 656 444 625 q 381 697 410 686 q 315 707 351 707 q 241 697 281 707 q 178 657 201 688 q 224 629 204 651 q 243 572 243 607 q 221 517 243 538 q 164 497 199 497 q 105 523 124 497 q 86 581 86 549 q 104 639 86 617 q 150 681 122 661 q 233 719 182 703 q 347 735 283 735 q 444 722 404 735 q 511 683 485 708 q 558 602 547 650 q 569 488 569 554 l 569 101 q 580 51 569 67 q 613 36 590 36 q 642 43 628 36 q 675 65 656 50 l 690 42 q 635 5 661 19 q 564 -10 608 -10 q 497 4 524 -10 q 458 45 471 18 q 444 114 444 72 q 355 21 407 51 q 238 -10 303 -10 m 288 46 q 373 72 333 46 q 444 151 413 99 l 444 424 q 396 384 428 400 q 326 352 364 368 q 255 315 289 336 q 199 258 221 293 q 176 168 176 224 q 206 79 176 113 q 288 46 236 46 m 490 1032 q 547 1008 522 1032 q 571 951 571 983 q 547 894 571 918 q 490 871 522 871 q 433 894 457 871 q 410 951 410 918 q 433 1008 410 983 q 490 1032 457 1032 m 196 1032 q 252 1008 228 1032 q 276 951 276 983 q 252 894 276 918 q 196 871 228 871 q 139 894 163 871 q 115 951 115 918 q 139 1008 115 983 q 196 1032 163 1032 z "},"à":{"ha":692,"x_min":54,"x_max":690,"o":"m 238 -10 q 139 12 181 -10 q 76 72 97 33 q 54 163 54 111 q 83 263 54 224 q 156 325 111 301 q 249 365 200 349 q 343 395 299 381 q 416 429 388 410 q 444 481 444 449 l 444 567 q 427 656 444 625 q 381 697 410 686 q 315 707 351 707 q 241 697 281 707 q 178 657 201 688 q 224 629 204 651 q 243 572 243 607 q 221 517 243 538 q 164 497 199 497 q 105 523 124 497 q 86 581 86 549 q 104 639 86 617 q 150 681 122 661 q 233 719 182 703 q 347 735 283 735 q 444 722 404 735 q 511 683 485 708 q 558 602 547 650 q 569 488 569 554 l 569 101 q 580 51 569 67 q 613 36 590 36 q 642 43 628 36 q 675 65 656 50 l 690 42 q 635 5 661 19 q 564 -10 608 -10 q 497 4 524 -10 q 458 45 471 18 q 444 114 444 72 q 355 21 407 51 q 238 -10 303 -10 m 288 46 q 373 72 333 46 q 444 151 413 99 l 444 424 q 396 384 428 400 q 326 352 364 368 q 255 315 289 336 q 199 258 221 293 q 176 168 176 224 q 206 79 176 113 q 288 46 236 46 m 171 1129 q 210 1139 188 1142 q 254 1108 233 1136 q 293 1046 275 1082 q 337 961 311 1010 q 406 844 363 913 l 390 832 q 294 927 336 890 q 223 990 253 964 q 171 1043 193 1017 q 152 1093 150 1071 q 171 1129 154 1115 z "},"å":{"ha":692,"x_min":54,"x_max":690,"o":"m 238 -10 q 139 12 181 -10 q 76 72 97 33 q 54 163 54 111 q 83 263 54 224 q 156 325 111 301 q 249 365 200 349 q 343 395 299 381 q 416 429 388 410 q 444 481 444 449 l 444 567 q 427 656 444 625 q 381 697 410 686 q 315 707 351 707 q 241 697 281 707 q 178 657 201 688 q 224 629 204 651 q 243 572 243 607 q 221 517 243 538 q 164 497 199 497 q 105 523 124 497 q 86 581 86 549 q 104 639 86 617 q 150 681 122 661 q 233 719 182 703 q 347 735 283 735 q 444 722 404 735 q 511 683 485 708 q 558 602 547 650 q 569 488 569 554 l 569 101 q 580 51 569 67 q 613 36 590 36 q 642 43 628 36 q 675 65 656 50 l 690 42 q 635 5 661 19 q 564 -10 608 -10 q 497 4 524 -10 q 458 45 471 18 q 444 114 444 72 q 355 21 407 51 q 238 -10 303 -10 m 288 46 q 373 72 333 46 q 444 151 413 99 l 444 424 q 396 384 428 400 q 326 352 364 368 q 255 315 289 336 q 199 258 221 293 q 176 168 176 224 q 206 79 176 113 q 288 46 236 46 m 342 1099 q 436 1065 396 1099 q 476 972 476 1031 q 436 878 476 913 q 342 844 396 844 q 249 878 289 844 q 208 972 208 913 q 249 1065 208 1031 q 342 1099 289 1099 m 342 1069 q 278 1044 308 1069 q 247 971 247 1019 q 278 898 247 922 q 342 874 308 874 q 407 898 376 874 q 438 971 438 922 q 407 1044 438 1019 q 342 1069 376 1069 z "},"ã":{"ha":692,"x_min":54,"x_max":690,"o":"m 238 -10 q 139 12 181 -10 q 76 72 97 33 q 54 163 54 111 q 83 263 54 224 q 156 325 111 301 q 249 365 200 349 q 343 395 299 381 q 416 429 388 410 q 444 481 444 449 l 444 567 q 427 656 444 625 q 381 697 410 686 q 315 707 351 707 q 241 697 281 707 q 178 657 201 688 q 224 629 204 651 q 243 572 243 607 q 221 517 243 538 q 164 497 199 497 q 105 523 124 497 q 86 581 86 549 q 104 639 86 617 q 150 681 122 661 q 233 719 182 703 q 347 735 283 735 q 444 722 404 735 q 511 683 485 708 q 558 602 547 650 q 569 488 569 554 l 569 101 q 580 51 569 67 q 613 36 590 36 q 642 43 628 36 q 675 65 656 50 l 690 42 q 635 5 661 19 q 564 -10 608 -10 q 497 4 524 -10 q 458 45 471 18 q 444 114 444 72 q 355 21 407 51 q 238 -10 303 -10 m 288 46 q 373 72 333 46 q 444 151 413 99 l 444 424 q 396 384 428 400 q 326 352 364 368 q 255 315 289 336 q 199 258 221 293 q 176 168 176 224 q 206 79 176 113 q 288 46 236 46 m 239 1067 q 303 1053 276 1067 q 351 1021 329 1039 q 395 989 372 1003 q 449 975 418 975 q 505 992 478 975 q 556 1049 532 1010 l 575 1039 q 508 929 553 963 q 411 896 464 896 q 347 910 374 896 q 298 942 319 924 q 253 975 276 961 q 200 989 231 989 q 144 972 171 989 q 93 914 117 954 l 74 924 q 141 1034 96 1001 q 239 1067 186 1067 z "},"æ":{"ha":1035,"x_min":54,"x_max":975,"o":"m 226 -10 q 95 35 136 -10 q 54 156 54 81 q 83 252 54 214 q 156 315 111 290 q 249 356 200 339 q 343 390 299 374 q 416 428 388 407 q 444 481 444 449 l 444 567 q 427 656 444 625 q 381 697 410 686 q 315 707 351 707 q 241 697 281 707 q 178 657 201 688 q 224 629 204 651 q 243 572 243 607 q 221 517 243 538 q 164 497 199 497 q 105 523 124 497 q 86 581 86 549 q 104 639 86 617 q 150 681 122 661 q 233 719 182 703 q 347 735 283 735 q 444 722 404 735 q 511 683 485 708 q 556 601 546 650 q 567 486 567 553 l 482 171 q 398 53 442 92 q 310 2 354 14 q 226 -10 267 -10 m 288 46 q 369 70 329 46 q 444 151 410 94 l 444 424 q 396 384 428 400 q 326 353 364 368 q 255 316 289 338 q 199 260 221 294 q 176 172 176 226 q 208 77 176 108 q 288 46 240 46 m 735 -19 q 579 24 643 -19 q 482 147 515 67 q 449 340 449 228 q 483 558 449 469 q 580 690 517 646 q 729 735 643 735 q 910 660 844 735 q 975 429 975 586 l 526 429 l 525 456 l 842 456 q 832 581 844 524 q 792 674 819 639 q 724 708 765 708 q 621 644 665 708 q 568 442 576 581 l 572 436 q 568 390 569 415 q 567 340 567 365 q 595 178 567 246 q 668 74 624 110 q 763 39 713 39 q 831 52 799 39 q 890 96 863 65 q 939 178 918 126 l 967 167 q 922 78 953 121 q 844 8 890 35 q 735 -19 797 -19 z "},"b":{"ha":782,"x_min":6,"x_max":717,"o":"m 453 735 q 642 641 567 735 q 717 357 717 547 q 674 148 717 232 q 561 22 632 64 q 407 -19 490 -19 q 273 20 338 -19 q 176 138 208 60 l 204 122 q 290 40 239 67 q 396 13 342 13 q 535 97 489 13 q 582 357 582 181 q 564 544 582 469 q 508 656 546 619 q 413 693 471 693 q 294 635 349 693 q 226 467 239 578 l 210 486 q 292 669 225 604 q 453 735 360 735 m 236 1088 l 236 72 q 199 41 218 57 q 163 10 181 25 q 125 -22 144 -6 l 101 -12 q 109 27 107 7 q 111 68 111 47 l 111 921 q 89 1013 111 983 q 6 1043 67 1043 l 6 1072 q 92 1068 50 1068 q 169 1073 132 1068 q 236 1088 206 1078 z "},"c":{"ha":675,"x_min":64,"x_max":626,"o":"m 388 735 q 474 724 432 735 q 549 690 515 713 q 597 642 581 669 q 614 583 614 615 q 593 526 614 546 q 540 506 572 506 q 487 524 510 506 q 464 575 464 542 q 481 626 464 607 q 522 651 499 646 q 473 693 508 676 q 397 710 438 710 q 328 693 363 710 q 264 638 293 676 q 217 534 235 600 q 199 369 199 468 q 226 175 199 247 q 299 72 254 103 q 399 40 344 40 q 472 54 435 40 q 543 99 510 68 q 600 183 576 131 l 626 174 q 581 84 613 129 q 497 10 549 39 q 371 -19 446 -19 q 215 25 285 -19 q 105 152 146 69 q 64 349 64 235 q 105 549 64 463 q 219 685 146 636 q 388 735 293 735 z "},"ç":{"ha":675,"x_min":64,"x_max":626,"o":"m 388 735 q 474 724 432 735 q 549 690 515 713 q 597 642 581 669 q 614 583 614 615 q 593 526 614 546 q 540 506 572 506 q 487 524 510 506 q 464 575 464 542 q 481 626 464 607 q 522 651 499 646 q 473 693 508 676 q 397 710 438 710 q 328 693 363 710 q 264 638 293 676 q 217 534 235 600 q 199 369 199 468 q 226 175 199 247 q 299 72 254 103 q 399 40 344 40 q 472 54 435 40 q 543 99 510 68 q 600 183 576 131 l 626 174 q 581 84 613 129 q 497 10 549 39 q 371 -19 446 -19 q 215 25 285 -19 q 105 152 146 69 q 64 349 64 235 q 105 549 64 463 q 219 685 146 636 q 388 735 293 735 m 368 8 l 332 -100 q 371 -93 350 -96 q 414 -90 392 -90 q 476 -107 453 -90 q 499 -156 499 -124 q 473 -217 499 -194 q 411 -251 447 -240 q 342 -261 375 -261 q 274 -256 303 -261 q 226 -246 246 -251 l 232 -221 q 253 -224 239 -222 q 285 -225 268 -225 q 341 -219 313 -225 q 390 -201 369 -214 q 410 -162 410 -187 q 351 -124 410 -124 q 319 -126 340 -124 q 283 -133 299 -128 l 331 8 l 368 8 z "},"d":{"ha":807,"x_min":67,"x_max":778,"o":"m 672 1089 l 672 151 q 695 59 672 89 q 778 29 718 29 l 778 0 q 692 4 735 4 q 615 0 651 4 q 547 -15 578 -4 l 547 922 q 525 1015 547 985 q 442 1044 503 1044 l 442 1074 q 528 1069 486 1069 q 605 1074 568 1069 q 672 1089 642 1079 m 381 735 q 495 706 442 735 q 567 606 549 676 l 549 592 q 488 676 529 650 q 392 703 447 703 q 255 618 310 703 q 201 357 200 533 q 223 170 201 244 q 287 59 244 96 q 390 22 329 22 q 496 72 449 22 q 553 219 543 122 l 569 200 q 502 38 558 94 q 350 -19 446 -19 q 199 22 264 -19 q 101 147 135 64 q 67 357 67 231 q 110 567 67 483 q 226 693 154 651 q 381 735 297 735 z "},"ð":{"ha":769,"x_min":64,"x_max":692,"o":"m 192 1086 q 382 990 292 1047 q 542 852 472 932 q 652 665 613 772 q 692 419 692 558 q 647 173 692 271 q 529 28 601 75 q 375 -19 457 -19 q 214 22 285 -19 q 103 147 143 64 q 64 354 64 231 q 83 491 64 424 q 140 613 103 558 q 235 701 178 668 q 367 735 292 735 q 526 673 472 735 q 589 481 579 611 l 560 475 q 524 624 554 575 q 455 690 494 674 q 376 706 415 706 q 287 672 328 706 q 222 561 246 639 q 199 351 199 483 q 222 151 199 226 q 285 42 246 76 q 368 8 324 8 q 460 44 417 8 q 532 170 504 81 q 560 419 560 260 q 528 688 560 579 q 442 867 496 796 q 319 983 388 938 q 181 1063 251 1029 l 192 1086 m 388 963 l 411 943 l 135 808 l 122 833 l 388 963 m 604 1068 l 617 1043 l 411 943 l 388 963 l 604 1068 z "},"e":{"ha":703,"x_min":64,"x_max":643,"o":"m 378 735 q 569 660 500 735 q 638 429 638 586 l 147 429 l 146 456 l 504 456 q 493 581 507 524 q 449 674 479 639 q 372 708 419 708 q 259 644 308 708 q 200 442 210 581 l 204 436 q 200 390 201 415 q 199 340 199 365 q 229 178 199 246 q 309 74 260 110 q 411 39 358 39 q 490 52 453 39 q 560 96 528 65 q 615 178 592 126 l 643 167 q 593 78 628 121 q 506 8 558 35 q 383 -19 453 -19 q 212 26 283 -19 q 102 153 140 72 q 64 340 64 235 q 103 551 64 463 q 213 687 142 639 q 378 735 283 735 z "},"é":{"ha":703,"x_min":64,"x_max":643,"o":"m 378 735 q 569 660 500 735 q 638 429 638 586 l 147 429 l 146 456 l 504 456 q 493 581 507 524 q 449 674 479 639 q 372 708 419 708 q 259 644 308 708 q 200 442 210 581 l 204 436 q 200 390 201 415 q 199 340 199 365 q 229 178 199 246 q 309 74 260 110 q 411 39 358 39 q 490 52 453 39 q 560 96 528 65 q 615 178 592 126 l 643 167 q 593 78 628 121 q 506 8 558 35 q 383 -19 453 -19 q 212 26 283 -19 q 102 153 140 72 q 64 340 64 235 q 103 551 64 463 q 213 687 142 639 q 378 735 283 735 m 525 1129 q 544 1093 542 1115 q 525 1043 546 1071 q 474 990 504 1017 q 402 927 443 964 q 306 832 361 890 l 290 844 q 359 961 333 913 q 403 1046 385 1010 q 442 1108 421 1082 q 485 1139 463 1136 q 525 1129 508 1142 z "},"ê":{"ha":703,"x_min":64,"x_max":643,"o":"m 378 735 q 569 660 500 735 q 638 429 638 586 l 147 429 l 146 456 l 504 456 q 493 581 507 524 q 449 674 479 639 q 372 708 419 708 q 259 644 308 708 q 200 442 210 581 l 204 436 q 200 390 201 415 q 199 340 199 365 q 229 178 199 246 q 309 74 260 110 q 411 39 358 39 q 490 52 453 39 q 560 96 528 65 q 615 178 592 126 l 643 167 q 593 78 628 121 q 506 8 558 35 q 383 -19 453 -19 q 212 26 283 -19 q 102 153 140 72 q 64 340 64 235 q 103 551 64 463 q 213 687 142 639 q 378 735 283 735 m 389 1114 q 478 980 417 1044 q 621 875 540 915 l 610 856 q 464 919 535 882 q 349 994 393 957 q 258 919 314 957 q 143 856 201 882 l 132 875 q 274 980 213 915 q 364 1114 336 1044 l 389 1114 z "},"ë":{"ha":703,"x_min":64,"x_max":643,"o":"m 378 735 q 569 660 500 735 q 638 429 638 586 l 147 429 l 146 456 l 504 456 q 493 581 507 524 q 449 674 479 639 q 372 708 419 708 q 259 644 308 708 q 200 442 210 581 l 204 436 q 200 390 201 415 q 199 340 199 365 q 229 178 199 246 q 309 74 260 110 q 411 39 358 39 q 490 52 453 39 q 560 96 528 65 q 615 178 592 126 l 643 167 q 593 78 628 121 q 506 8 558 35 q 383 -19 453 -19 q 212 26 283 -19 q 102 153 140 72 q 64 340 64 235 q 103 551 64 463 q 213 687 142 639 q 378 735 283 735 m 525 1032 q 581 1008 557 1032 q 606 951 606 983 q 581 894 606 918 q 525 871 557 871 q 468 894 492 871 q 444 951 444 918 q 468 1008 444 983 q 525 1032 492 1032 m 231 1032 q 287 1008 263 1032 q 311 951 311 983 q 287 894 311 918 q 231 871 263 871 q 174 894 197 871 q 150 951 150 918 q 174 1008 150 983 q 231 1032 197 1032 z "},"è":{"ha":703,"x_min":64,"x_max":643,"o":"m 378 735 q 569 660 500 735 q 638 429 638 586 l 147 429 l 146 456 l 504 456 q 493 581 507 524 q 449 674 479 639 q 372 708 419 708 q 259 644 308 708 q 200 442 210 581 l 204 436 q 200 390 201 415 q 199 340 199 365 q 229 178 199 246 q 309 74 260 110 q 411 39 358 39 q 490 52 453 39 q 560 96 528 65 q 615 178 592 126 l 643 167 q 593 78 628 121 q 506 8 558 35 q 383 -19 453 -19 q 212 26 283 -19 q 102 153 140 72 q 64 340 64 235 q 103 551 64 463 q 213 687 142 639 q 378 735 283 735 m 206 1129 q 245 1139 222 1142 q 289 1108 268 1136 q 328 1046 310 1082 q 372 961 346 1010 q 440 844 397 913 l 425 832 q 329 927 371 890 q 258 990 288 964 q 206 1043 228 1017 q 187 1093 185 1071 q 206 1129 189 1115 z "},"f":{"ha":461,"x_min":36,"x_max":547,"o":"m 383 1086 q 452 1076 422 1086 q 504 1049 482 1065 q 536 1010 525 1032 q 547 963 547 988 q 526 910 547 931 q 474 889 506 889 q 420 909 443 889 q 397 964 397 929 q 413 1011 397 993 q 456 1035 429 1029 q 434 1056 451 1047 q 388 1065 417 1065 q 333 1051 356 1065 q 297 1014 310 1038 q 276 927 281 985 q 272 750 272 869 l 272 714 l 421 714 l 421 686 l 272 686 l 272 143 q 312 52 272 75 q 419 29 351 29 l 419 0 q 329 3 388 1 q 206 6 271 6 q 112 3 158 6 q 42 0 65 1 l 42 29 q 123 50 99 29 q 147 129 147 71 l 147 686 l 36 686 l 36 714 l 147 714 q 154 851 147 796 q 176 947 161 907 q 218 1017 192 986 q 289 1067 246 1049 q 383 1086 332 1086 z "},"g":{"ha":733,"x_min":13,"x_max":724,"o":"m 296 -261 q 157 -246 222 -261 q 52 -198 92 -231 q 13 -115 13 -165 q 51 -32 13 -67 q 157 21 90 3 l 165 -1 q 117 -40 135 -11 q 99 -106 99 -69 q 158 -203 99 -169 q 311 -237 217 -237 q 433 -222 374 -237 q 532 -168 493 -206 q 571 -69 571 -131 q 538 6 571 -24 q 410 36 506 36 l 307 36 q 221 43 263 36 q 153 72 179 50 q 126 140 126 94 q 165 231 126 188 q 308 321 204 275 l 325 308 q 243 258 278 283 q 208 197 208 232 q 275 153 208 153 l 449 153 q 556 136 507 153 q 636 83 606 119 q 667 -11 667 47 q 625 -133 667 -76 q 501 -226 583 -190 q 296 -261 418 -261 m 303 296 q 179 319 235 296 q 92 390 124 342 q 60 515 60 439 q 92 640 60 592 q 179 712 124 689 q 303 735 235 735 q 427 712 372 735 q 514 640 482 689 q 546 515 546 592 q 514 390 546 439 q 427 319 482 342 q 303 296 372 296 m 303 321 q 385 363 356 321 q 415 515 415 404 q 385 668 415 626 q 303 710 356 710 q 221 668 251 710 q 190 515 190 626 q 221 363 190 404 q 303 321 251 321 m 503 619 l 478 629 q 544 713 497 676 q 643 749 592 749 q 701 728 679 749 q 724 668 724 708 q 701 608 724 625 q 654 590 678 590 q 615 605 633 590 q 594 651 597 619 q 614 733 592 683 l 632 729 q 549 683 574 707 q 503 619 524 658 z "},"h":{"ha":817,"x_min":28,"x_max":796,"o":"m 258 1088 l 258 568 q 359 699 294 663 q 494 735 424 735 q 583 721 547 735 q 642 682 618 707 q 679 613 668 654 q 690 500 690 571 l 690 129 q 715 50 690 71 q 796 29 739 29 l 796 0 q 724 3 772 1 q 629 6 675 6 q 540 3 583 6 q 474 0 496 1 l 474 29 q 544 50 524 29 q 565 129 565 71 l 565 531 q 558 610 565 574 q 527 668 551 646 q 453 690 503 690 q 352 658 396 690 q 283 569 308 626 q 258 439 258 513 l 258 129 q 279 50 258 71 q 350 29 300 29 l 350 0 q 284 3 328 1 q 194 6 240 6 q 100 3 149 6 q 28 0 51 1 l 28 29 q 109 50 85 29 q 133 129 133 71 l 133 921 q 111 1013 133 983 q 28 1043 89 1043 l 28 1072 q 114 1068 72 1068 q 191 1073 154 1068 q 258 1088 228 1078 z "},"i":{"ha":407,"x_min":40,"x_max":376,"o":"m 199 1063 q 261 1036 235 1063 q 288 974 288 1010 q 261 911 288 938 q 199 885 235 885 q 136 911 163 885 q 110 974 110 938 q 136 1036 110 1010 q 199 1063 163 1063 m 271 731 l 271 129 q 295 50 271 71 q 376 29 319 29 l 376 0 q 305 3 353 1 q 208 6 257 6 q 113 3 161 6 q 40 0 64 1 l 40 29 q 122 50 97 29 q 146 129 146 71 l 146 564 q 124 656 146 626 q 40 686 101 686 l 40 715 q 126 711 85 711 q 203 716 167 711 q 271 731 240 721 z "},"ı":{"ha":407,"x_min":40,"x_max":376,"o":"m 271 731 l 271 129 q 295 50 271 71 q 376 29 319 29 l 376 0 q 305 3 353 1 q 208 6 257 6 q 113 3 161 6 q 40 0 64 1 l 40 29 q 122 50 97 29 q 146 129 146 71 l 146 564 q 124 656 146 626 q 40 686 101 686 l 40 715 q 126 711 85 711 q 203 716 167 711 q 271 731 240 721 z "},"í":{"ha":407,"x_min":40,"x_max":376,"o":"m 271 731 l 271 129 q 295 50 271 71 q 376 29 319 29 l 376 0 q 305 3 353 1 q 208 6 257 6 q 113 3 161 6 q 40 0 64 1 l 40 29 q 122 50 97 29 q 146 129 146 71 l 146 564 q 124 656 146 626 q 40 686 101 686 l 40 715 q 126 711 85 711 q 203 716 167 711 q 271 731 240 721 m 344 1129 q 363 1093 361 1115 q 344 1043 365 1071 q 293 990 324 1017 q 222 927 263 964 q 125 832 181 890 l 110 844 q 178 961 153 913 q 222 1046 204 1010 q 261 1108 240 1082 q 305 1139 282 1136 q 344 1129 328 1142 z "},"î":{"ha":407,"x_min":-49,"x_max":440,"o":"m 271 731 l 271 129 q 295 50 271 71 q 376 29 319 29 l 376 0 q 305 3 353 1 q 208 6 257 6 q 113 3 161 6 q 40 0 64 1 l 40 29 q 122 50 97 29 q 146 129 146 71 l 146 564 q 124 656 146 626 q 40 686 101 686 l 40 715 q 126 711 85 711 q 203 716 167 711 q 271 731 240 721 m 208 1114 q 298 980 236 1044 q 440 875 360 915 l 429 856 q 283 919 354 882 q 168 994 213 957 q 77 919 133 957 q -37 856 21 882 l -49 875 q 94 980 32 915 q 183 1114 156 1044 l 208 1114 z "},"ï":{"ha":407,"x_min":-31,"x_max":425,"o":"m 271 731 l 271 129 q 295 50 271 71 q 376 29 319 29 l 376 0 q 305 3 353 1 q 208 6 257 6 q 113 3 161 6 q 40 0 64 1 l 40 29 q 122 50 97 29 q 146 129 146 71 l 146 564 q 124 656 146 626 q 40 686 101 686 l 40 715 q 126 711 85 711 q 203 716 167 711 q 271 731 240 721 m 344 1032 q 401 1008 376 1032 q 425 951 425 983 q 401 894 425 918 q 344 871 376 871 q 288 894 311 871 q 264 951 264 918 q 288 1008 264 983 q 344 1032 311 1032 m 50 1032 q 106 1008 82 1032 q 131 951 131 983 q 106 894 131 918 q 50 871 82 871 q -7 894 17 871 q -31 951 -31 918 q -7 1008 -31 983 q 50 1032 17 1032 z "},"ì":{"ha":407,"x_min":4,"x_max":376,"o":"m 271 731 l 271 129 q 295 50 271 71 q 376 29 319 29 l 376 0 q 305 3 353 1 q 208 6 257 6 q 113 3 161 6 q 40 0 64 1 l 40 29 q 122 50 97 29 q 146 129 146 71 l 146 564 q 124 656 146 626 q 40 686 101 686 l 40 715 q 126 711 85 711 q 203 716 167 711 q 271 731 240 721 m 25 1129 q 65 1139 42 1142 q 108 1108 88 1136 q 147 1046 129 1082 q 191 961 165 1010 q 260 844 217 913 l 244 832 q 149 927 190 890 q 77 990 107 964 q 25 1043 47 1017 q 6 1093 4 1071 q 25 1129 8 1115 z "},"j":{"ha":371,"x_min":-36,"x_max":275,"o":"m -36 -261 l -36 -240 q 93 -166 50 -236 q 136 26 136 -96 l 136 564 q 114 656 136 626 q 31 686 92 686 l 31 715 q 117 711 75 711 q 194 716 157 711 q 261 731 231 721 l 261 160 q 251 28 261 90 q 219 -86 242 -35 q 161 -176 197 -137 q 76 -237 126 -214 q -36 -261 25 -261 m 186 1063 q 249 1036 222 1063 q 275 974 275 1010 q 249 911 275 938 q 186 885 222 885 q 124 911 150 885 q 97 974 97 938 q 124 1036 97 1010 q 186 1063 150 1063 z "},"k":{"ha":764,"x_min":28,"x_max":754,"o":"m 258 1089 l 258 129 q 279 50 258 71 q 350 29 300 29 l 350 0 q 284 3 328 1 q 196 6 240 6 q 100 3 149 6 q 28 0 51 1 l 28 29 q 109 50 85 29 q 133 129 133 71 l 133 922 q 111 1015 133 985 q 28 1044 89 1044 l 28 1074 q 114 1069 72 1069 q 191 1074 154 1069 q 258 1089 228 1079 m 700 715 l 700 688 q 635 669 665 685 q 575 622 604 653 l 379 417 l 399 456 l 657 101 q 702 51 681 69 q 754 29 724 33 l 754 0 q 706 3 739 1 q 642 6 674 6 q 554 3 599 6 q 488 0 510 1 l 488 29 q 526 43 515 29 q 522 76 538 57 l 363 310 q 315 358 336 347 q 253 371 293 369 l 253 399 q 325 417 297 404 q 378 457 353 431 l 481 564 q 525 637 525 610 q 497 676 525 664 q 422 688 468 688 l 422 715 q 503 712 458 714 q 579 710 549 710 q 625 710 603 710 q 667 713 647 711 q 700 715 686 714 z "},"l":{"ha":397,"x_min":31,"x_max":367,"o":"m 261 1089 l 261 129 q 285 50 261 71 q 367 29 310 29 l 367 0 q 295 3 343 1 q 199 6 247 6 q 103 3 151 6 q 31 0 54 1 l 31 29 q 112 50 88 29 q 136 129 136 71 l 136 922 q 114 1015 136 985 q 31 1044 92 1044 l 31 1074 q 117 1069 75 1069 q 194 1074 157 1069 q 261 1089 231 1079 z "},"m":{"ha":1233,"x_min":40,"x_max":1213,"o":"m 499 735 q 583 721 547 735 q 643 682 619 707 q 679 610 669 654 q 689 500 689 565 l 689 129 q 713 50 689 71 q 794 29 738 29 l 794 0 q 722 3 771 1 q 628 6 674 6 q 538 3 582 6 q 472 0 494 1 l 472 29 q 543 50 522 29 q 564 129 564 71 l 564 531 q 558 610 564 574 q 531 668 553 646 q 458 690 508 690 q 362 657 404 690 q 295 566 319 624 q 271 438 271 508 l 271 129 q 292 50 271 71 q 363 29 313 29 l 363 0 q 297 3 340 1 q 207 6 253 6 q 113 3 161 6 q 40 0 64 1 l 40 29 q 122 50 97 29 q 146 129 146 71 l 146 564 q 124 656 146 626 q 40 686 101 686 l 40 715 q 126 711 85 711 q 203 716 167 711 q 271 731 240 721 l 271 567 q 369 696 307 657 q 499 735 432 735 m 917 735 q 1001 721 965 735 q 1061 682 1038 707 q 1097 610 1088 654 q 1107 500 1107 565 l 1107 129 q 1131 50 1107 71 q 1213 29 1156 29 l 1213 0 q 1140 3 1189 1 q 1046 6 1092 6 q 956 3 1000 6 q 890 0 913 1 l 890 29 q 961 50 940 29 q 982 129 982 71 l 982 531 q 976 610 982 574 q 949 668 971 646 q 876 690 926 690 q 780 657 822 690 q 713 567 738 624 q 689 439 689 510 l 685 568 q 786 699 722 664 q 917 735 850 735 z "},"n":{"ha":829,"x_min":40,"x_max":808,"o":"m 507 735 q 595 721 560 735 q 654 682 631 707 q 692 613 681 654 q 703 500 703 571 l 703 129 q 727 50 703 71 q 808 29 751 29 l 808 0 q 736 3 785 1 q 642 6 688 6 q 552 3 596 6 q 486 0 508 1 l 486 29 q 557 50 536 29 q 578 129 578 71 l 578 531 q 571 610 578 574 q 540 668 564 646 q 465 690 515 690 q 363 657 407 690 q 295 566 319 624 q 271 438 271 508 l 271 129 q 292 50 271 71 q 363 29 313 29 l 363 0 q 297 3 340 1 q 207 6 253 6 q 113 3 161 6 q 40 0 64 1 l 40 29 q 122 50 97 29 q 146 129 146 71 l 146 564 q 124 656 146 626 q 40 686 101 686 l 40 715 q 126 711 85 711 q 203 716 167 711 q 271 731 240 721 l 271 567 q 372 698 307 661 q 507 735 436 735 z "},"ñ":{"ha":829,"x_min":40,"x_max":808,"o":"m 507 735 q 595 721 560 735 q 654 682 631 707 q 692 613 681 654 q 703 500 703 571 l 703 129 q 727 50 703 71 q 808 29 751 29 l 808 0 q 736 3 785 1 q 642 6 688 6 q 552 3 596 6 q 486 0 508 1 l 486 29 q 557 50 536 29 q 578 129 578 71 l 578 531 q 571 610 578 574 q 540 668 564 646 q 465 690 515 690 q 363 657 407 690 q 295 566 319 624 q 271 438 271 508 l 271 129 q 292 50 271 71 q 363 29 313 29 l 363 0 q 297 3 340 1 q 207 6 253 6 q 113 3 161 6 q 40 0 64 1 l 40 29 q 122 50 97 29 q 146 129 146 71 l 146 564 q 124 656 146 626 q 40 686 101 686 l 40 715 q 126 711 85 711 q 203 716 167 711 q 271 731 240 721 l 271 567 q 372 698 307 661 q 507 735 436 735 m 322 1067 q 386 1053 360 1067 q 434 1021 413 1039 q 478 989 456 1003 q 532 975 501 975 q 588 992 561 975 q 639 1049 615 1010 l 658 1039 q 592 929 636 963 q 494 896 547 896 q 430 910 457 896 q 381 942 403 924 q 337 975 360 961 q 283 989 314 989 q 227 972 254 989 q 176 914 200 954 l 157 924 q 224 1034 179 1001 q 322 1067 269 1067 z "},"o":{"ha":761,"x_min":65,"x_max":696,"o":"m 381 735 q 540 696 469 735 q 653 574 611 657 q 696 357 696 490 q 653 141 696 224 q 540 19 611 58 q 381 -19 469 -19 q 222 19 293 -19 q 108 141 150 58 q 65 357 65 224 q 108 574 65 490 q 222 696 150 657 q 381 735 293 735 m 381 707 q 251 625 301 707 q 200 357 200 543 q 251 90 200 171 q 381 8 301 8 q 510 90 460 8 q 561 357 561 171 q 510 625 561 543 q 381 707 460 707 z "},"ó":{"ha":761,"x_min":65,"x_max":696,"o":"m 381 735 q 540 696 469 735 q 653 574 611 657 q 696 357 696 490 q 653 141 696 224 q 540 19 611 58 q 381 -19 469 -19 q 222 19 293 -19 q 108 141 150 58 q 65 357 65 224 q 108 574 65 490 q 222 696 150 657 q 381 735 293 735 m 381 707 q 251 625 301 707 q 200 357 200 543 q 251 90 200 171 q 381 8 301 8 q 510 90 460 8 q 561 357 561 171 q 510 625 561 543 q 381 707 460 707 m 533 1129 q 552 1093 550 1115 q 533 1043 554 1071 q 482 990 513 1017 q 410 927 451 964 q 314 832 369 890 l 299 844 q 367 961 342 913 q 411 1046 393 1010 q 450 1108 429 1082 q 494 1139 471 1136 q 533 1129 517 1142 z "},"ô":{"ha":761,"x_min":65,"x_max":696,"o":"m 381 735 q 540 696 469 735 q 653 574 611 657 q 696 357 696 490 q 653 141 696 224 q 540 19 611 58 q 381 -19 469 -19 q 222 19 293 -19 q 108 141 150 58 q 65 357 65 224 q 108 574 65 490 q 222 696 150 657 q 381 735 293 735 m 381 707 q 251 625 301 707 q 200 357 200 543 q 251 90 200 171 q 381 8 301 8 q 510 90 460 8 q 561 357 561 171 q 510 625 561 543 q 381 707 460 707 m 397 1114 q 487 980 425 1044 q 629 875 549 915 l 618 856 q 472 919 543 882 q 357 994 401 957 q 266 919 322 957 q 151 856 210 882 l 140 875 q 283 980 221 915 q 372 1114 344 1044 l 397 1114 z "},"ö":{"ha":761,"x_min":65,"x_max":696,"o":"m 381 735 q 540 696 469 735 q 653 574 611 657 q 696 357 696 490 q 653 141 696 224 q 540 19 611 58 q 381 -19 469 -19 q 222 19 293 -19 q 108 141 150 58 q 65 357 65 224 q 108 574 65 490 q 222 696 150 657 q 381 735 293 735 m 381 707 q 251 625 301 707 q 200 357 200 543 q 251 90 200 171 q 381 8 301 8 q 510 90 460 8 q 561 357 561 171 q 510 625 561 543 q 381 707 460 707 m 533 1032 q 590 1008 565 1032 q 614 951 614 983 q 590 894 614 918 q 533 871 565 871 q 476 894 500 871 q 453 951 453 918 q 476 1008 453 983 q 533 1032 500 1032 m 239 1032 q 295 1008 271 1032 q 319 951 319 983 q 295 894 319 918 q 239 871 271 871 q 182 894 206 871 q 158 951 158 918 q 182 1008 158 983 q 239 1032 206 1032 z "},"ò":{"ha":761,"x_min":65,"x_max":696,"o":"m 381 735 q 540 696 469 735 q 653 574 611 657 q 696 357 696 490 q 653 141 696 224 q 540 19 611 58 q 381 -19 469 -19 q 222 19 293 -19 q 108 141 150 58 q 65 357 65 224 q 108 574 65 490 q 222 696 150 657 q 381 735 293 735 m 381 707 q 251 625 301 707 q 200 357 200 543 q 251 90 200 171 q 381 8 301 8 q 510 90 460 8 q 561 357 561 171 q 510 625 561 543 q 381 707 460 707 m 214 1129 q 253 1139 231 1142 q 297 1108 276 1136 q 336 1046 318 1082 q 380 961 354 1010 q 449 844 406 913 l 433 832 q 338 927 379 890 q 266 990 296 964 q 214 1043 236 1017 q 195 1093 193 1071 q 214 1129 197 1115 z "},"ø":{"ha":761,"x_min":60,"x_max":700,"o":"m 381 735 q 540 696 469 735 q 653 574 611 657 q 696 357 696 490 q 653 141 696 224 q 540 19 611 58 q 381 -19 469 -19 q 222 19 293 -19 q 108 141 150 58 q 65 357 65 224 q 108 574 65 490 q 222 696 150 657 q 381 735 293 735 m 381 707 q 251 625 301 707 q 200 357 200 543 q 251 90 200 171 q 381 8 301 8 q 510 90 460 8 q 561 357 561 171 q 510 625 561 543 q 381 707 460 707 m 544 647 l 565 619 l 232 88 l 210 117 l 544 647 m 196 117 l 218 88 l 89 -101 l 60 -82 l 196 117 m 674 815 l 700 797 l 579 619 l 558 647 l 674 815 z "},"õ":{"ha":761,"x_min":65,"x_max":696,"o":"m 381 735 q 540 696 469 735 q 653 574 611 657 q 696 357 696 490 q 653 141 696 224 q 540 19 611 58 q 381 -19 469 -19 q 222 19 293 -19 q 108 141 150 58 q 65 357 65 224 q 108 574 65 490 q 222 696 150 657 q 381 735 293 735 m 381 707 q 251 625 301 707 q 200 357 200 543 q 251 90 200 171 q 381 8 301 8 q 510 90 460 8 q 561 357 561 171 q 510 625 561 543 q 381 707 460 707 m 282 1067 q 346 1053 319 1067 q 394 1021 372 1039 q 438 989 415 1003 q 492 975 461 975 q 548 992 521 975 q 599 1049 575 1010 l 618 1039 q 551 929 596 963 q 454 896 507 896 q 390 910 417 896 q 341 942 363 924 q 297 975 319 961 q 243 989 274 989 q 187 972 214 989 q 136 914 160 954 l 117 924 q 184 1034 139 1001 q 282 1067 229 1067 z "},"œ":{"ha":1160,"x_min":67,"x_max":1100,"o":"m 368 733 q 506 694 444 733 q 605 573 568 656 q 642 357 642 490 q 605 141 642 224 q 506 19 568 58 q 368 -19 444 -19 q 216 19 285 -19 q 107 141 147 58 q 67 357 67 224 q 107 573 67 490 q 216 694 147 656 q 368 733 285 733 m 368 706 q 249 624 296 706 q 201 357 201 543 q 249 90 201 171 q 368 8 296 8 q 488 90 442 8 q 535 357 535 171 q 488 624 535 543 q 368 706 442 706 m 849 735 q 1029 660 964 735 q 1094 429 1094 586 l 646 429 l 644 456 l 961 456 q 951 581 964 524 q 912 674 939 639 q 843 708 885 708 q 730 644 779 708 q 671 442 681 581 l 675 436 q 671 390 672 415 q 669 340 669 365 q 700 178 669 246 q 780 74 731 110 q 882 39 829 39 q 956 52 921 39 q 1020 96 990 65 q 1072 178 1050 126 l 1100 167 q 1053 78 1086 121 q 969 8 1019 35 q 854 -19 919 -19 q 697 26 763 -19 q 597 153 632 72 q 563 340 563 235 q 598 551 563 463 q 698 687 633 639 q 849 735 763 735 z "},"p":{"ha":807,"x_min":31,"x_max":742,"o":"m 261 731 l 261 -122 q 297 -202 261 -182 q 394 -222 332 -222 l 394 -251 q 310 -248 364 -250 q 194 -246 256 -246 q 109 -248 151 -246 q 44 -251 67 -250 l 44 -222 q 115 -204 94 -222 q 136 -136 136 -186 l 136 564 q 114 656 136 626 q 31 686 92 686 l 31 715 q 117 711 75 711 q 194 716 157 711 q 261 731 231 721 m 483 735 q 615 695 557 735 q 708 579 674 656 q 742 390 742 503 q 724 242 742 315 q 667 110 706 169 q 569 16 629 51 q 424 -19 508 -19 q 310 11 358 -19 q 246 85 263 42 l 260 104 q 316 39 279 65 q 408 13 353 13 q 529 61 486 13 q 590 191 572 110 q 607 371 607 272 q 589 553 607 482 q 535 658 571 624 q 446 693 499 693 q 322 637 378 693 q 251 467 267 581 l 235 486 q 319 669 250 604 q 483 735 388 735 z "},"þ":{"ha":776,"x_min":0,"x_max":711,"o":"m 231 1088 l 231 -122 q 266 -202 231 -182 q 364 -222 301 -222 l 364 -251 q 279 -248 333 -250 q 164 -246 225 -246 q 78 -248 121 -246 q 14 -251 36 -250 l 14 -222 q 85 -204 64 -222 q 106 -136 106 -186 l 106 921 q 83 1013 106 983 q 0 1043 61 1043 l 0 1072 q 86 1068 44 1068 q 163 1073 126 1068 q 231 1088 200 1078 m 453 735 q 585 695 526 735 q 677 579 643 656 q 711 390 711 503 q 693 242 711 315 q 637 110 675 169 q 538 16 599 51 q 393 -19 478 -19 q 280 11 328 -19 q 215 85 232 42 l 229 104 q 285 39 249 65 q 378 13 322 13 q 499 61 456 13 q 559 191 542 110 q 576 371 576 272 q 558 553 576 482 q 504 658 540 624 q 415 693 468 693 q 292 637 347 693 q 221 467 236 581 l 204 486 q 288 669 219 604 q 453 735 357 735 z "},"q":{"ha":782,"x_min":65,"x_max":763,"o":"m 363 735 q 501 698 449 735 q 583 576 554 661 l 556 592 q 482 676 529 649 q 374 703 435 703 q 246 618 292 703 q 200 357 200 533 q 222 171 200 246 q 288 59 244 96 q 392 22 331 22 q 499 79 450 22 q 556 247 547 136 l 572 228 q 501 45 563 110 q 351 -19 439 -19 q 207 22 272 -19 q 103 147 142 63 q 65 357 65 231 q 105 567 65 483 q 212 693 144 651 q 363 735 279 735 m 657 738 l 681 728 q 673 689 675 710 q 671 647 671 668 l 671 -136 q 692 -204 671 -186 q 763 -222 713 -222 l 763 -251 q 699 -248 740 -250 q 613 -246 657 -246 q 498 -248 553 -246 q 413 -251 443 -250 l 413 -222 q 510 -202 475 -222 q 546 -122 546 -182 l 546 621 q 583 660 565 640 q 620 699 601 679 q 657 738 639 718 z "},"r":{"ha":618,"x_min":40,"x_max":599,"o":"m 472 735 q 538 719 510 735 q 583 680 567 704 q 599 625 599 656 q 577 564 599 590 q 519 538 556 538 q 468 556 490 538 q 446 610 446 575 q 460 655 446 636 q 493 685 475 674 q 464 699 483 699 q 385 673 421 699 q 324 607 349 647 q 285 522 299 567 q 271 438 271 476 l 271 143 q 310 52 271 75 q 418 29 350 29 l 418 0 q 328 3 386 1 q 204 6 269 6 q 110 3 157 6 q 40 0 64 1 l 40 29 q 122 50 97 29 q 146 129 146 71 l 146 564 q 124 656 146 626 q 40 686 101 686 l 40 715 q 126 711 85 711 q 203 716 167 711 q 271 731 240 721 l 271 557 q 315 638 286 597 q 383 707 343 679 q 472 735 424 735 z "},"s":{"ha":621,"x_min":78,"x_max":556,"o":"m 289 735 q 383 717 344 735 q 440 683 422 699 q 496 733 486 646 l 528 733 q 524 641 525 694 q 522 497 522 588 l 490 497 q 462 597 482 549 q 403 677 442 646 q 301 708 364 708 q 220 681 253 708 q 188 601 188 654 q 213 530 188 560 q 278 474 238 500 q 365 418 318 449 q 461 350 418 385 q 530 274 504 315 q 556 175 556 232 q 522 68 556 111 q 435 3 489 25 q 318 -19 382 -19 q 260 -15 288 -19 q 208 0 233 -10 q 180 17 194 7 q 151 38 165 26 q 126 37 138 49 q 110 -10 115 25 l 78 -10 q 82 99 81 35 q 83 268 83 163 l 115 268 q 143 132 125 190 q 200 41 161 74 q 308 8 239 8 q 365 21 336 8 q 413 63 393 33 q 432 140 432 92 q 388 240 432 201 q 275 322 343 279 q 181 386 225 354 q 110 458 138 418 q 83 556 83 499 q 112 658 83 618 q 188 716 140 697 q 289 735 235 735 z "},"ß":{"ha":811,"x_min":29,"x_max":753,"o":"m 408 1086 q 591 1033 528 1086 q 654 888 654 979 q 628 786 654 833 q 565 701 603 739 q 487 638 526 664 q 418 601 447 613 q 583 532 507 582 q 706 408 658 482 q 753 243 753 335 q 717 102 753 161 q 625 12 682 43 q 501 -19 568 -19 q 425 -7 464 -19 q 359 32 386 6 q 332 100 332 58 q 351 154 332 133 q 404 175 369 175 q 457 157 436 175 q 478 107 478 139 q 463 63 478 82 q 418 35 449 44 q 443 12 422 22 q 490 1 464 1 q 554 22 522 1 q 608 89 586 42 q 629 217 629 136 q 615 333 629 275 q 574 442 601 392 q 502 532 546 493 q 399 589 458 571 q 374 575 388 582 q 347 568 360 568 q 328 574 338 568 q 319 592 319 581 q 351 618 319 618 q 374 615 361 618 q 401 607 388 613 q 500 727 471 661 q 529 882 529 793 q 494 1017 529 969 q 393 1065 460 1065 q 337 1051 368 1065 q 283 995 306 1038 q 260 867 260 953 l 260 -15 q 192 0 229 -4 q 115 4 156 4 q 73 3 94 4 q 29 0 51 3 l 29 29 q 113 59 90 29 q 135 151 135 89 l 135 747 q 169 947 135 872 q 266 1053 204 1021 q 408 1086 328 1086 z "},"t":{"ha":492,"x_min":6,"x_max":506,"o":"m 264 946 l 264 714 l 469 714 l 469 686 l 264 686 l 264 149 q 288 57 264 83 q 353 31 311 31 q 425 65 394 31 q 478 179 456 99 l 506 172 q 451 36 492 92 q 325 -19 410 -19 q 247 -8 278 -19 q 193 26 217 4 q 151 103 163 58 q 139 221 139 147 l 139 686 l 6 686 l 6 714 l 139 714 l 139 926 q 206 932 174 928 q 264 946 238 936 z "},"u":{"ha":807,"x_min":22,"x_max":776,"o":"m 671 731 l 671 150 q 694 58 671 88 q 776 28 717 28 l 776 -1 q 690 3 733 3 q 613 -1 650 3 q 546 -17 576 -6 l 546 147 q 448 19 511 57 q 318 -19 385 -19 q 233 -6 269 -19 q 174 33 197 8 q 138 106 147 61 q 128 215 128 150 l 128 564 q 106 656 128 626 q 22 686 83 686 l 22 715 q 108 711 67 711 q 185 716 149 711 q 253 731 222 721 l 253 185 q 258 106 253 142 q 286 47 264 69 q 358 25 308 25 q 455 58 413 25 q 522 149 497 92 q 546 276 546 206 l 546 564 q 524 656 546 626 q 440 686 501 686 l 440 715 q 526 711 485 711 q 603 716 567 711 q 671 731 640 721 z "},"ú":{"ha":807,"x_min":22,"x_max":776,"o":"m 671 731 l 671 150 q 694 58 671 88 q 776 28 717 28 l 776 -1 q 690 3 733 3 q 613 -1 650 3 q 546 -17 576 -6 l 546 147 q 448 19 511 57 q 318 -19 385 -19 q 233 -6 269 -19 q 174 33 197 8 q 138 106 147 61 q 128 215 128 150 l 128 564 q 106 656 128 626 q 22 686 83 686 l 22 715 q 108 711 67 711 q 185 716 149 711 q 253 731 222 721 l 253 185 q 258 106 253 142 q 286 47 264 69 q 358 25 308 25 q 455 58 413 25 q 522 149 497 92 q 546 276 546 206 l 546 564 q 524 656 546 626 q 440 686 501 686 l 440 715 q 526 711 485 711 q 603 716 567 711 q 671 731 640 721 m 538 1129 q 556 1093 554 1115 q 538 1043 558 1071 q 486 990 517 1017 q 415 927 456 964 q 318 832 374 890 l 303 844 q 372 961 346 913 q 415 1046 397 1010 q 454 1108 433 1082 q 498 1139 475 1136 q 538 1129 521 1142 z "},"û":{"ha":807,"x_min":22,"x_max":776,"o":"m 671 731 l 671 150 q 694 58 671 88 q 776 28 717 28 l 776 -1 q 690 3 733 3 q 613 -1 650 3 q 546 -17 576 -6 l 546 147 q 448 19 511 57 q 318 -19 385 -19 q 233 -6 269 -19 q 174 33 197 8 q 138 106 147 61 q 128 215 128 150 l 128 564 q 106 656 128 626 q 22 686 83 686 l 22 715 q 108 711 67 711 q 185 716 149 711 q 253 731 222 721 l 253 185 q 258 106 253 142 q 286 47 264 69 q 358 25 308 25 q 455 58 413 25 q 522 149 497 92 q 546 276 546 206 l 546 564 q 524 656 546 626 q 440 686 501 686 l 440 715 q 526 711 485 711 q 603 716 567 711 q 671 731 640 721 m 401 1114 q 491 980 429 1044 q 633 875 553 915 l 622 856 q 476 919 547 882 q 361 994 406 957 q 270 919 326 957 q 156 856 214 882 l 144 875 q 287 980 225 915 q 376 1114 349 1044 l 401 1114 z "},"ü":{"ha":807,"x_min":22,"x_max":776,"o":"m 671 731 l 671 150 q 694 58 671 88 q 776 28 717 28 l 776 -1 q 690 3 733 3 q 613 -1 650 3 q 546 -17 576 -6 l 546 147 q 448 19 511 57 q 318 -19 385 -19 q 233 -6 269 -19 q 174 33 197 8 q 138 106 147 61 q 128 215 128 150 l 128 564 q 106 656 128 626 q 22 686 83 686 l 22 715 q 108 711 67 711 q 185 716 149 711 q 253 731 222 721 l 253 185 q 258 106 253 142 q 286 47 264 69 q 358 25 308 25 q 455 58 413 25 q 522 149 497 92 q 546 276 546 206 l 546 564 q 524 656 546 626 q 440 686 501 686 l 440 715 q 526 711 485 711 q 603 716 567 711 q 671 731 640 721 m 538 1032 q 594 1008 569 1032 q 618 951 618 983 q 594 894 618 918 q 538 871 569 871 q 481 894 504 871 q 457 951 457 918 q 481 1008 457 983 q 538 1032 504 1032 m 243 1032 q 299 1008 275 1032 q 324 951 324 983 q 299 894 324 918 q 243 871 275 871 q 186 894 210 871 q 163 951 163 918 q 186 1008 163 983 q 243 1032 210 1032 z "},"ù":{"ha":807,"x_min":22,"x_max":776,"o":"m 671 731 l 671 150 q 694 58 671 88 q 776 28 717 28 l 776 -1 q 690 3 733 3 q 613 -1 650 3 q 546 -17 576 -6 l 546 147 q 448 19 511 57 q 318 -19 385 -19 q 233 -6 269 -19 q 174 33 197 8 q 138 106 147 61 q 128 215 128 150 l 128 564 q 106 656 128 626 q 22 686 83 686 l 22 715 q 108 711 67 711 q 185 716 149 711 q 253 731 222 721 l 253 185 q 258 106 253 142 q 286 47 264 69 q 358 25 308 25 q 455 58 413 25 q 522 149 497 92 q 546 276 546 206 l 546 564 q 524 656 546 626 q 440 686 501 686 l 440 715 q 526 711 485 711 q 603 716 567 711 q 671 731 640 721 m 218 1129 q 258 1139 235 1142 q 301 1108 281 1136 q 340 1046 322 1082 q 384 961 358 1010 q 453 844 410 913 l 438 832 q 342 927 383 890 q 270 990 300 964 q 218 1043 240 1017 q 199 1093 197 1071 q 218 1129 201 1115 z "},"v":{"ha":679,"x_min":-3,"x_max":675,"o":"m 675 715 l 675 688 q 626 664 649 685 q 585 590 604 643 l 357 -7 q 346 -7 351 -7 q 333 -7 340 -7 l 78 608 q 34 674 56 663 q -3 686 13 686 l -3 715 q 55 712 25 714 q 119 710 85 710 q 210 711 163 710 q 300 715 258 713 l 300 686 q 238 681 265 686 q 203 654 211 676 q 217 578 196 632 l 390 149 l 382 142 l 540 557 q 555 630 558 603 q 527 671 551 657 q 453 688 503 685 l 453 715 q 496 713 478 714 q 531 712 514 713 q 569 711 549 711 q 627 713 601 711 q 675 715 653 714 z "},"w":{"ha":1069,"x_min":0,"x_max":1065,"o":"m 303 715 l 303 686 q 242 681 268 686 q 207 653 215 676 q 219 569 199 629 l 364 156 l 354 157 l 558 721 l 586 710 l 332 -7 q 321 -7 326 -7 q 308 -7 315 -7 l 81 608 q 37 675 58 664 q 0 686 15 686 l 0 715 q 58 709 28 711 q 122 707 88 707 q 213 710 165 707 q 303 715 261 713 m 1065 715 l 1065 688 q 1016 665 1039 685 q 975 590 993 644 l 774 -7 q 763 -7 768 -7 q 750 -7 757 -7 l 526 561 l 558 721 q 574 721 567 721 q 590 721 582 721 l 807 147 l 796 139 l 933 557 q 945 631 949 604 q 917 672 942 658 q 843 688 893 685 l 843 715 q 886 713 868 714 q 922 712 904 713 q 960 711 939 711 q 1017 713 992 711 q 1065 715 1043 714 z "},"x":{"ha":721,"x_min":29,"x_max":703,"o":"m 294 715 l 294 686 q 250 674 268 686 q 246 639 232 661 l 617 99 q 658 49 640 64 q 703 29 676 35 l 703 0 q 660 3 689 1 q 604 6 632 6 q 512 3 561 6 q 440 0 463 1 l 440 29 q 486 42 468 29 q 489 76 504 56 l 118 617 q 74 670 90 657 q 32 686 57 683 l 32 715 q 75 712 46 714 q 131 710 104 710 q 224 712 175 710 q 294 715 272 714 m 332 363 q 335 353 332 363 q 341 335 338 344 q 344 325 344 325 l 229 175 q 191 96 193 128 q 217 48 189 64 q 293 28 244 32 l 293 0 q 240 2 269 1 q 184 3 211 3 q 135 4 157 4 q 77 3 103 4 q 29 0 51 3 l 29 28 q 84 52 56 31 q 151 125 113 74 l 332 363 m 675 715 l 675 688 q 617 660 649 685 q 553 590 586 636 l 393 369 q 390 378 393 369 q 385 397 388 388 q 382 406 382 406 l 490 557 q 529 628 521 600 q 520 670 538 656 q 453 688 503 685 l 453 715 q 513 713 489 714 q 569 711 538 711 q 627 713 601 711 q 675 715 653 714 z "},"y":{"ha":700,"x_min":-6,"x_max":686,"o":"m 686 715 l 686 688 q 638 664 660 685 q 596 590 615 643 l 368 -7 l 344 -7 l 89 608 q 37 674 63 663 q -6 686 11 686 l -6 715 q 58 709 25 711 q 131 707 92 707 q 222 710 174 707 q 311 715 269 713 l 311 686 q 249 681 276 686 q 215 652 222 676 q 232 569 208 628 l 403 146 l 394 143 l 553 557 q 567 630 571 603 q 539 671 564 657 q 464 688 514 685 l 464 715 q 507 713 489 714 q 542 712 525 713 q 581 711 560 711 q 638 713 613 711 q 686 715 664 714 m 368 -7 l 321 -128 q 292 -186 307 -162 q 261 -225 278 -210 q 208 -253 239 -246 q 153 -261 178 -261 q 105 -251 126 -261 q 71 -223 83 -242 q 58 -178 58 -204 q 78 -124 58 -144 q 132 -104 97 -104 q 182 -121 161 -104 q 203 -169 203 -137 q 192 -208 203 -193 q 165 -232 181 -224 q 170 -233 168 -233 q 174 -233 172 -233 q 240 -208 211 -233 q 292 -125 269 -182 l 342 4 l 368 -7 z "},"ý":{"ha":700,"x_min":-6,"x_max":686,"o":"m 686 715 l 686 688 q 638 664 660 685 q 596 590 615 643 l 368 -7 l 344 -7 l 89 608 q 37 674 63 663 q -6 686 11 686 l -6 715 q 58 709 25 711 q 131 707 92 707 q 222 710 174 707 q 311 715 269 713 l 311 686 q 249 681 276 686 q 215 652 222 676 q 232 569 208 628 l 403 146 l 394 143 l 553 557 q 567 630 571 603 q 539 671 564 657 q 464 688 514 685 l 464 715 q 507 713 489 714 q 542 712 525 713 q 581 711 560 711 q 638 713 613 711 q 686 715 664 714 m 368 -7 l 321 -128 q 292 -186 307 -162 q 261 -225 278 -210 q 208 -253 239 -246 q 153 -261 178 -261 q 105 -251 126 -261 q 71 -223 83 -242 q 58 -178 58 -204 q 78 -124 58 -144 q 132 -104 97 -104 q 182 -121 161 -104 q 203 -169 203 -137 q 192 -208 203 -193 q 165 -232 181 -224 q 170 -233 168 -233 q 174 -233 172 -233 q 240 -208 211 -233 q 292 -125 269 -182 l 342 4 l 368 -7 m 501 1129 q 520 1093 518 1115 q 501 1043 522 1071 q 450 990 481 1017 q 378 927 419 964 q 282 832 338 890 l 267 844 q 335 961 310 913 q 379 1046 361 1010 q 418 1108 397 1082 q 462 1139 439 1136 q 501 1129 485 1142 z "},"ÿ":{"ha":700,"x_min":-6,"x_max":686,"o":"m 686 715 l 686 688 q 638 664 660 685 q 596 590 615 643 l 368 -7 l 344 -7 l 89 608 q 37 674 63 663 q -6 686 11 686 l -6 715 q 58 709 25 711 q 131 707 92 707 q 222 710 174 707 q 311 715 269 713 l 311 686 q 249 681 276 686 q 215 652 222 676 q 232 569 208 628 l 403 146 l 394 143 l 553 557 q 567 630 571 603 q 539 671 564 657 q 464 688 514 685 l 464 715 q 507 713 489 714 q 542 712 525 713 q 581 711 560 711 q 638 713 613 711 q 686 715 664 714 m 368 -7 l 321 -128 q 292 -186 307 -162 q 261 -225 278 -210 q 208 -253 239 -246 q 153 -261 178 -261 q 105 -251 126 -261 q 71 -223 83 -242 q 58 -178 58 -204 q 78 -124 58 -144 q 132 -104 97 -104 q 182 -121 161 -104 q 203 -169 203 -137 q 192 -208 203 -193 q 165 -232 181 -224 q 170 -233 168 -233 q 174 -233 172 -233 q 240 -208 211 -233 q 292 -125 269 -182 l 342 4 l 368 -7 m 501 1032 q 558 1008 533 1032 q 582 951 582 983 q 558 894 582 918 q 501 871 533 871 q 444 894 468 871 q 421 951 421 918 q 444 1008 421 983 q 501 1032 468 1032 m 207 1032 q 263 1008 239 1032 q 288 951 288 983 q 263 894 288 918 q 207 871 239 871 q 150 894 174 871 q 126 951 126 918 q 150 1008 126 983 q 207 1032 174 1032 z "},"z":{"ha":661,"x_min":53,"x_max":610,"o":"m 610 722 l 208 21 l 361 21 q 458 43 417 21 q 524 115 499 65 q 554 244 549 164 l 586 244 q 588 94 586 156 q 592 -6 589 33 q 465 -1 531 -3 q 333 0 399 0 q 192 -2 264 0 q 53 -7 119 -4 l 454 694 l 301 694 q 199 672 240 694 q 137 601 158 650 q 108 471 115 551 l 76 471 q 75 622 76 561 q 71 721 74 682 q 198 717 132 718 q 329 715 264 715 q 471 717 399 715 q 610 722 543 719 z "},"ª":{"ha":643,"x_min":79,"x_max":589,"o":"m 313 1003 q 442 961 403 1003 q 482 826 482 919 l 482 600 q 490 560 482 571 q 517 549 499 549 q 574 572 550 549 l 589 551 q 536 515 567 529 q 464 500 506 500 q 393 517 413 500 q 371 565 374 535 q 294 515 336 531 q 208 500 253 500 q 120 526 161 500 q 79 608 79 553 q 131 699 79 668 q 260 760 182 731 q 335 793 299 775 q 371 838 371 811 l 371 863 q 346 951 371 925 q 276 976 321 976 q 226 969 254 976 q 174 947 197 963 q 207 925 193 942 q 221 882 221 908 q 202 838 221 856 q 160 821 183 821 q 111 838 129 821 q 93 883 93 856 q 113 935 93 914 q 160 971 132 957 q 228 994 192 986 q 313 1003 264 1003 m 371 794 q 350 773 365 783 q 293 743 335 763 q 217 695 242 721 q 193 633 193 669 q 214 572 193 596 q 269 549 235 549 q 371 593 322 549 l 371 794 z "},"º":{"ha":631,"x_min":69,"x_max":561,"o":"m 315 1003 q 433 974 376 1003 q 525 890 489 946 q 561 751 561 835 q 525 613 561 669 q 433 528 489 557 q 315 500 376 500 q 198 528 254 500 q 106 613 142 557 q 69 751 69 669 q 106 890 69 835 q 198 974 142 946 q 315 1003 254 1003 m 315 978 q 224 925 263 978 q 185 751 185 872 q 224 578 185 631 q 315 525 263 525 q 407 578 368 525 q 446 751 446 631 q 407 925 446 872 q 315 978 368 978 z "},"¹":{"ha":365,"x_min":47,"x_max":340,"o":"m 247 1046 l 247 704 q 269 650 247 664 q 340 636 290 636 l 340 607 q 283 609 321 608 q 206 610 246 610 q 120 609 161 610 q 57 607 79 608 l 57 636 q 133 650 106 636 q 160 704 160 664 l 160 883 q 136 959 160 944 q 47 974 113 974 l 47 1003 q 163 1014 117 1004 q 247 1046 210 1024 z "},"²":{"ha":469,"x_min":49,"x_max":428,"o":"m 242 1049 q 342 1023 303 1049 q 381 944 381 997 q 356 867 381 901 q 296 802 332 832 q 222 744 260 772 q 156 686 183 715 l 339 686 q 383 699 372 686 q 404 733 394 711 l 428 729 q 413 662 418 693 q 407 604 408 631 q 381 608 394 607 q 354 608 368 608 l 49 608 l 49 636 q 121 692 79 663 q 202 758 163 722 q 267 836 242 794 q 293 926 293 878 q 269 984 293 967 q 203 1001 246 1001 q 128 984 161 1001 q 71 926 96 967 l 50 938 q 121 1015 74 981 q 242 1049 168 1049 z "},"³":{"ha":450,"x_min":39,"x_max":406,"o":"m 233 1050 q 335 1024 296 1050 q 374 949 374 997 q 337 867 374 901 q 244 818 300 833 q 324 803 288 818 q 383 761 360 789 q 406 693 406 733 q 374 606 406 644 q 288 540 342 567 q 171 498 235 513 q 44 483 107 483 l 44 507 q 179 535 117 510 q 281 601 242 560 q 321 693 321 643 q 293 772 321 742 q 219 803 265 801 q 192 790 204 796 q 169 783 181 783 q 147 800 147 783 q 165 818 147 815 q 208 819 183 821 q 271 869 256 839 q 286 922 286 900 q 260 981 286 958 q 192 1003 235 1003 q 117 984 151 1003 q 60 928 83 965 l 39 939 q 110 1016 63 982 q 233 1050 157 1050 z "},"⁄":{"ha":83,"x_min":-371,"x_max":468,"o":"m 442 1144 l 468 1126 l -344 -76 l -371 -58 l 442 1144 z "},"½":{"ha":972,"x_min":67,"x_max":918,"o":"m 879 1144 l 906 1126 l 93 -76 l 67 -58 l 879 1144 m 281 1046 l 281 704 q 302 650 281 664 q 374 636 324 636 l 374 607 q 317 609 354 608 q 239 610 279 610 q 153 609 194 610 q 90 607 113 608 l 90 636 q 166 650 139 636 q 193 704 193 664 l 193 883 q 169 959 193 944 q 81 974 146 974 l 81 1003 q 197 1014 150 1004 q 281 1046 243 1024 m 732 442 q 832 416 793 442 q 871 338 871 390 q 847 260 871 294 q 786 195 822 225 q 712 137 750 165 q 646 79 674 108 l 829 79 q 874 92 863 79 q 894 126 885 104 l 918 122 q 903 55 908 86 q 897 -3 899 24 q 872 1 885 0 q 844 1 858 1 l 539 1 l 539 29 q 611 85 569 56 q 692 151 653 115 q 758 229 732 188 q 783 319 783 271 q 760 377 783 360 q 693 394 736 394 q 619 377 651 394 q 561 319 586 360 l 540 331 q 611 408 564 374 q 732 442 658 442 z "},"¼":{"ha":963,"x_min":69,"x_max":928,"o":"m 901 1144 l 928 1126 l 115 -76 l 89 -58 l 901 1144 m 269 1046 l 269 704 q 291 650 269 664 q 363 636 313 636 l 363 607 q 306 609 343 608 q 228 610 268 610 q 142 609 183 610 q 79 607 101 608 l 79 636 q 155 650 128 636 q 182 704 182 664 l 182 883 q 158 959 182 944 q 69 974 135 974 l 69 1003 q 185 1014 139 1004 q 269 1046 232 1024 m 733 421 l 744 400 l 456 65 l 450 82 l 774 82 q 818 94 807 82 q 839 129 829 107 l 863 125 q 853 85 857 103 q 847 52 849 68 q 843 21 844 36 q 817 24 831 24 q 790 25 804 25 l 415 25 l 415 54 l 733 421 m 763 421 l 763 -137 l 685 -137 l 685 349 l 733 421 l 763 421 z "},"¾":{"ha":1033,"x_min":71,"x_max":993,"o":"m 967 1144 l 993 1126 l 181 -76 l 154 -58 l 967 1144 m 265 1050 q 367 1024 328 1050 q 406 949 406 997 q 369 867 406 901 q 276 818 332 833 q 356 803 319 818 q 415 761 392 789 q 438 693 438 733 q 406 606 438 644 q 320 540 374 567 q 203 498 267 513 q 76 483 139 483 l 76 507 q 211 535 149 510 q 313 601 274 560 q 353 693 353 643 q 325 772 353 742 q 251 803 297 801 q 224 790 236 796 q 201 783 213 783 q 179 800 179 783 q 197 818 179 815 q 240 819 215 821 q 303 869 288 839 q 318 922 318 900 q 292 981 318 958 q 224 1003 267 1003 q 149 984 183 1003 q 92 928 115 965 l 71 939 q 142 1016 94 982 q 265 1050 189 1050 m 799 421 l 810 400 l 521 65 l 515 82 l 839 82 q 883 94 872 82 q 904 129 894 107 l 928 125 q 918 85 922 103 q 912 52 914 68 q 908 21 910 36 q 883 24 896 24 q 856 25 869 25 l 481 25 l 481 54 l 799 421 m 828 421 l 828 -137 l 750 -137 l 750 349 l 799 421 l 828 421 z "},".":{"ha":350,"x_min":86,"x_max":264,"o":"m 175 158 q 238 132 211 158 q 264 69 264 106 q 238 7 264 33 q 175 -19 211 -19 q 113 7 139 -19 q 86 69 86 33 q 113 132 86 106 q 175 158 139 158 z "},",":{"ha":363,"x_min":86,"x_max":281,"o":"m 175 158 q 225 146 206 158 q 257 114 244 133 q 276 65 272 92 q 281 22 281 39 q 246 -101 281 -46 q 138 -192 211 -157 l 125 -167 q 199 -110 168 -149 q 231 -31 231 -71 q 226 -1 231 -14 q 175 -19 204 -19 q 113 4 139 -19 q 86 69 86 28 q 113 133 86 108 q 175 158 139 158 z "},":":{"ha":369,"x_min":96,"x_max":274,"o":"m 185 733 q 247 707 221 733 q 274 644 274 681 q 247 582 274 608 q 185 556 221 556 q 122 582 149 556 q 96 644 96 608 q 122 707 96 681 q 185 733 149 733 m 185 158 q 247 132 221 158 q 274 69 274 106 q 247 7 274 33 q 185 -19 221 -19 q 122 7 149 -19 q 96 69 96 33 q 122 132 96 106 q 185 158 149 158 z "},";":{"ha":396,"x_min":101,"x_max":296,"o":"m 190 158 q 240 146 221 158 q 272 114 260 133 q 292 65 288 92 q 296 22 296 39 q 261 -101 296 -46 q 153 -192 226 -157 l 140 -167 q 215 -110 183 -149 q 246 -31 246 -71 q 242 -1 246 -14 q 190 -19 219 -19 q 128 4 154 -19 q 101 69 101 28 q 128 133 101 108 q 190 158 154 158 m 200 733 q 263 707 236 733 q 289 644 289 681 q 263 582 289 608 q 200 556 236 556 q 138 582 164 556 q 111 644 111 608 q 138 707 111 681 q 200 733 164 733 z "},"…":{"ha":1129,"x_min":86,"x_max":1043,"o":"m 175 158 q 238 132 211 158 q 264 69 264 106 q 238 7 264 33 q 175 -19 211 -19 q 113 7 139 -19 q 86 69 86 33 q 113 132 86 106 q 175 158 139 158 m 565 158 q 628 132 601 158 q 654 69 654 106 q 628 7 654 33 q 565 -19 601 -19 q 503 7 529 -19 q 476 69 476 33 q 503 132 476 106 q 565 158 529 158 m 954 158 q 1017 132 990 158 q 1043 69 1043 106 q 1017 7 1043 33 q 954 -19 990 -19 q 892 7 918 -19 q 865 69 865 33 q 892 132 865 106 q 954 158 918 158 z "},"!":{"ha":364,"x_min":93,"x_max":271,"o":"m 182 1086 q 227 1068 208 1086 q 246 1008 246 1050 q 238 874 246 954 q 220 695 231 793 q 202 490 210 597 q 194 272 194 382 l 194 272 l 169 272 q 162 490 169 382 q 144 695 154 597 q 126 874 133 793 q 118 1008 118 954 q 137 1068 118 1050 q 182 1086 156 1086 m 182 158 q 244 132 218 158 q 271 69 271 106 q 244 7 271 33 q 182 -19 218 -19 q 119 7 146 -19 q 93 69 93 33 q 119 132 93 106 q 182 158 146 158 z "},"¡":{"ha":346,"x_min":85,"x_max":263,"o":"m 185 442 q 192 257 185 349 q 210 83 200 165 q 228 -69 221 0 q 236 -183 236 -137 q 218 -243 236 -225 q 172 -261 200 -261 q 127 -243 146 -261 q 108 -183 108 -225 q 116 -69 108 -137 q 134 83 124 0 q 152 257 144 165 q 160 442 160 349 l 185 442 m 174 735 q 236 708 210 735 q 263 646 263 682 q 236 583 263 610 q 174 557 210 557 q 111 583 138 557 q 85 646 85 610 q 111 708 85 682 q 174 735 138 735 z "},"?":{"ha":638,"x_min":44,"x_max":590,"o":"m 299 1086 q 451 1056 386 1086 q 553 970 517 1026 q 590 836 590 914 q 551 697 590 758 q 441 594 511 636 q 278 528 371 551 l 278 325 l 250 325 l 250 540 q 389 617 343 575 q 451 707 435 658 q 467 810 467 756 q 413 1000 467 942 q 272 1058 358 1058 q 199 1049 239 1058 q 136 1008 160 1039 q 178 985 163 1003 q 194 938 194 967 q 172 883 194 903 q 118 863 150 863 q 65 883 86 863 q 44 936 44 904 q 63 991 44 965 q 110 1036 81 1017 q 185 1071 139 1056 q 299 1086 232 1086 m 265 158 q 328 132 301 158 q 354 69 354 106 q 328 7 354 33 q 265 -19 301 -19 q 203 7 229 -19 q 176 69 176 33 q 203 132 176 106 q 265 158 229 158 z "},"¿":{"ha":629,"x_min":43,"x_max":589,"o":"m 383 444 l 383 257 q 245 185 292 225 q 183 99 199 146 q 167 1 167 53 q 221 -178 167 -122 q 361 -233 275 -233 q 434 -226 394 -233 q 497 -197 474 -219 q 455 -174 471 -192 q 439 -126 439 -157 q 462 -71 439 -90 q 515 -51 485 -51 q 568 -72 547 -51 q 589 -125 589 -93 q 572 -178 589 -154 q 524 -221 554 -203 q 450 -249 496 -237 q 335 -261 404 -261 q 183 -233 249 -261 q 80 -151 117 -204 q 43 -25 43 -99 q 83 108 43 50 q 192 208 122 167 q 356 269 263 249 l 356 444 l 383 444 m 368 736 q 431 710 404 736 q 457 647 457 683 q 431 585 457 611 q 368 558 404 558 q 306 585 332 558 q 279 647 279 611 q 306 710 279 683 q 368 736 332 736 z "},"·":{"ha":367,"x_min":94,"x_max":272,"o":"m 183 461 q 246 435 219 461 q 272 372 272 408 q 246 310 272 336 q 183 283 219 283 q 121 310 147 283 q 94 372 94 336 q 121 435 94 408 q 183 461 147 461 z "},"•":{"ha":613,"x_min":108,"x_max":504,"o":"m 306 572 q 406 545 361 572 q 477 474 450 518 q 504 374 504 429 q 477 274 504 319 q 406 203 450 229 q 306 176 361 176 q 206 203 251 176 q 135 274 161 229 q 108 374 108 319 q 135 474 108 429 q 206 545 161 518 q 306 572 251 572 z "},"*":{"ha":683,"x_min":78,"x_max":606,"o":"m 504 874 q 563 888 540 894 q 596 865 586 882 q 599 828 606 850 q 556 785 592 806 q 470 753 521 765 q 342 718 419 742 l 340 722 q 433 815 396 775 q 504 874 471 854 m 343 722 q 469 688 417 700 q 557 656 522 675 q 599 612 593 635 q 594 572 606 589 q 564 551 586 557 q 506 567 542 546 q 435 624 471 586 q 340 718 399 663 l 343 722 m 344 719 q 378 593 363 646 q 394 501 393 540 q 376 443 393 460 q 340 426 360 426 q 307 442 322 426 q 292 501 292 458 q 307 592 292 542 q 340 719 322 642 l 344 719 m 340 721 l 343 717 q 250 625 288 665 q 179 565 213 585 q 120 551 143 544 q 88 574 97 557 q 85 610 78 589 q 128 654 92 632 q 213 686 163 674 q 340 721 264 699 m 178 872 q 249 815 213 853 q 342 721 285 776 l 340 717 q 215 752 268 739 q 126 783 161 765 q 85 827 92 804 q 89 867 79 850 q 119 888 97 882 q 178 872 142 893 m 342 1013 q 376 996 361 1013 q 392 938 392 979 q 377 848 392 899 q 343 719 363 797 l 339 719 q 306 846 321 793 q 290 938 290 899 q 307 996 290 979 q 342 1013 324 1013 z "},"#":{"ha":885,"x_min":67,"x_max":818,"o":"m 654 836 l 519 140 l 492 140 l 626 836 l 654 836 m 768 371 l 763 343 l 67 343 l 72 371 l 768 371 m 394 836 l 260 140 l 232 140 l 367 836 l 394 836 m 818 631 l 814 603 l 118 603 l 122 631 l 818 631 z "},"/":{"ha":517,"x_min":47,"x_max":471,"o":"m 471 1003 l 93 -19 l 47 -19 l 425 1003 l 471 1003 z "},"\\":{"ha":517,"x_min":46,"x_max":469,"o":"m 46 1003 l 92 1003 l 469 -19 l 424 -19 l 46 1003 z "},"(":{"ha":408,"x_min":61,"x_max":386,"o":"m 367 1119 l 386 1101 q 224 803 269 965 q 178 433 178 642 q 224 63 178 225 q 386 -235 269 -99 l 367 -253 q 144 47 226 -125 q 61 433 61 218 q 144 820 61 649 q 367 1119 226 992 z "},")":{"ha":408,"x_min":22,"x_max":347,"o":"m 42 1119 q 265 820 182 992 q 347 433 347 649 q 265 47 347 218 q 42 -253 182 -125 l 22 -235 q 185 63 139 -99 q 231 433 231 225 q 185 803 231 642 q 22 1101 139 965 l 42 1119 z "},"{":{"ha":422,"x_min":38,"x_max":386,"o":"m 386 1086 l 386 1060 q 331 1049 353 1058 q 297 1010 308 1039 q 280 922 285 981 q 275 765 275 864 q 259 610 275 672 q 215 508 243 547 q 151 448 188 469 q 76 415 115 426 q 151 383 115 404 q 215 322 188 361 q 259 221 243 283 q 275 65 275 158 q 280 -97 275 -37 q 297 -187 285 -157 q 331 -226 308 -217 q 386 -235 353 -235 l 386 -261 q 247 -233 299 -261 q 172 -133 194 -204 q 150 65 150 -62 q 141 267 150 196 q 110 369 132 339 q 44 403 88 400 l 38 403 l 38 428 l 44 428 q 110 460 88 431 q 141 563 132 490 q 150 765 150 635 q 172 958 150 888 q 247 1057 194 1028 q 386 1086 299 1086 z "},"}":{"ha":422,"x_min":36,"x_max":385,"o":"m 36 1086 q 176 1057 125 1086 q 250 958 228 1028 q 272 765 272 888 q 281 563 272 635 q 313 460 290 490 q 378 428 336 431 l 385 428 l 385 403 l 378 403 q 313 369 336 400 q 281 267 290 339 q 272 65 272 196 q 250 -133 272 -62 q 176 -233 228 -204 q 36 -261 125 -261 l 36 -235 q 92 -226 69 -235 q 126 -187 114 -217 q 142 -97 138 -157 q 147 65 147 -37 q 163 221 147 158 q 207 322 179 283 q 271 383 235 361 q 346 415 307 404 q 271 448 307 426 q 207 508 235 469 q 163 610 179 547 q 147 765 147 672 q 142 922 147 864 q 126 1010 138 981 q 92 1049 114 1039 q 36 1060 69 1058 l 36 1086 z "},"[":{"ha":411,"x_min":128,"x_max":365,"o":"m 365 1072 l 365 1046 l 253 1046 l 253 -225 l 365 -225 l 365 -251 l 128 -251 l 128 1072 l 365 1072 z "},"]":{"ha":411,"x_min":46,"x_max":283,"o":"m 46 1072 l 283 1072 l 283 -251 l 46 -251 l 46 -225 l 158 -225 l 158 1046 l 46 1046 l 46 1072 z "},"-":{"ha":693,"x_min":96,"x_max":597,"o":"m 597 414 l 597 333 l 96 333 l 96 414 l 597 414 z "},"­":{"ha":693,"x_min":0,"x_max":0,"o":""},"–":{"ha":793,"x_min":82,"x_max":711,"o":"m 711 401 l 711 346 l 82 346 l 82 401 l 711 401 z "},"—":{"ha":1197,"x_min":82,"x_max":1115,"o":"m 1115 401 l 1115 346 l 82 346 l 82 401 l 1115 401 z "},"_":{"ha":821,"x_min":96,"x_max":725,"o":"m 725 -160 l 725 -215 l 96 -215 l 96 -160 l 725 -160 z "},"‚":{"ha":363,"x_min":86,"x_max":281,"o":"m 175 158 q 225 146 206 158 q 257 114 244 133 q 276 65 272 92 q 281 22 281 39 q 246 -101 281 -46 q 138 -192 211 -157 l 125 -167 q 199 -110 168 -149 q 231 -31 231 -71 q 226 -1 231 -14 q 175 -19 204 -19 q 113 4 139 -19 q 86 69 86 28 q 113 133 86 108 q 175 158 139 158 z "},"„":{"ha":599,"x_min":86,"x_max":517,"o":"m 411 158 q 461 146 442 158 q 493 114 481 133 q 513 65 508 92 q 517 22 517 39 q 482 -101 517 -46 q 374 -192 447 -157 l 361 -167 q 435 -110 404 -149 q 467 -31 467 -71 q 463 -1 467 -14 q 411 -19 440 -19 q 349 4 375 -19 q 322 69 322 28 q 349 133 322 108 q 411 158 375 158 m 175 158 q 225 146 206 158 q 257 114 244 133 q 276 65 272 92 q 281 22 281 39 q 246 -101 281 -46 q 138 -192 211 -157 l 125 -167 q 199 -110 168 -149 q 231 -31 231 -71 q 226 -1 231 -14 q 175 -19 204 -19 q 113 4 139 -19 q 86 69 86 28 q 113 133 86 108 q 175 158 139 158 z "},"“":{"ha":581,"x_min":76,"x_max":507,"o":"m 182 653 q 132 665 151 653 q 100 697 113 678 q 81 747 86 721 q 76 789 76 772 q 111 913 76 857 q 219 1003 146 968 l 232 978 q 158 921 189 960 q 126 842 126 882 q 131 813 126 825 q 182 831 153 831 q 244 807 218 831 q 271 742 271 783 q 244 678 271 703 q 182 653 218 653 m 418 653 q 368 665 388 653 q 336 697 349 678 q 317 747 322 721 q 313 789 313 772 q 347 913 313 857 q 456 1003 382 968 l 468 978 q 394 921 425 960 q 363 842 363 882 q 367 813 363 825 q 418 831 389 831 q 481 807 454 831 q 507 742 507 783 q 481 678 507 703 q 418 653 454 653 z "},"”":{"ha":576,"x_min":75,"x_max":506,"o":"m 400 1003 q 450 990 431 1003 q 482 958 469 978 q 501 910 497 936 q 506 867 506 883 q 471 743 506 799 q 363 653 436 688 l 350 678 q 424 735 393 696 q 456 814 456 774 q 451 843 456 831 q 400 825 429 825 q 338 849 364 825 q 311 914 311 872 q 338 978 311 953 q 400 1003 364 1003 m 164 1003 q 214 990 194 1003 q 246 958 233 978 q 265 910 261 936 q 269 867 269 883 q 235 743 269 799 q 126 653 200 688 l 114 678 q 188 735 157 696 q 219 814 219 774 q 215 843 219 831 q 164 825 193 825 q 101 849 128 825 q 75 914 75 872 q 101 978 75 953 q 164 1003 128 1003 z "},"‘":{"ha":344,"x_min":76,"x_max":271,"o":"m 182 653 q 132 665 151 653 q 100 697 113 678 q 81 747 86 721 q 76 789 76 772 q 111 913 76 857 q 219 1003 146 968 l 232 978 q 158 921 189 960 q 126 842 126 882 q 131 813 126 825 q 182 831 153 831 q 244 807 218 831 q 271 742 271 783 q 244 678 271 703 q 182 653 218 653 z "},"’":{"ha":340,"x_min":75,"x_max":269,"o":"m 164 1003 q 214 990 194 1003 q 246 958 233 978 q 265 910 261 936 q 269 867 269 883 q 235 743 269 799 q 126 653 200 688 l 114 678 q 188 735 157 696 q 219 814 219 774 q 215 843 219 831 q 164 825 193 825 q 101 849 128 825 q 75 914 75 872 q 101 978 75 953 q 164 1003 128 1003 z "},"«":{"ha":697,"x_min":44,"x_max":631,"o":"m 364 735 l 388 725 q 335 603 363 657 q 278 507 308 550 q 217 429 249 464 q 149 363 185 394 q 217 295 185 332 q 278 213 249 258 q 335 113 308 168 q 388 -10 363 58 l 364 -19 q 231 202 307 108 q 44 357 156 296 l 44 358 q 231 513 156 419 q 364 735 307 607 m 607 735 l 631 725 q 560 569 597 635 q 481 453 522 503 q 392 363 440 404 q 481 269 440 321 q 560 150 522 218 q 631 -10 597 82 l 607 -19 q 474 202 550 108 q 288 357 399 296 l 288 358 q 474 513 399 419 q 607 735 550 607 z "},"»":{"ha":696,"x_min":67,"x_max":653,"o":"m 333 733 q 467 512 390 606 q 653 357 543 418 l 653 356 q 467 201 543 294 q 333 -21 390 107 l 310 -11 q 362 110 335 57 q 419 207 389 164 q 481 285 449 250 q 549 351 513 321 q 481 419 513 383 q 419 501 449 456 q 362 601 389 546 q 310 724 335 656 l 333 733 m 90 733 q 224 512 147 606 q 410 357 300 418 l 410 356 q 224 201 300 294 q 90 -21 147 107 l 67 -11 q 138 146 101 81 q 217 260 175 211 q 306 351 258 310 q 217 444 258 393 q 138 565 175 496 q 67 724 101 633 l 90 733 z "},"‹":{"ha":454,"x_min":44,"x_max":388,"o":"m 364 735 l 388 725 q 335 603 363 657 q 278 507 308 550 q 217 429 249 464 q 149 363 185 394 q 217 295 185 332 q 278 213 249 258 q 335 113 308 168 q 388 -10 363 58 l 364 -19 q 231 202 307 108 q 44 357 156 296 l 44 358 q 231 513 156 419 q 364 735 307 607 z "},"›":{"ha":454,"x_min":67,"x_max":410,"o":"m 90 735 q 224 513 147 607 q 410 358 300 419 l 410 357 q 224 202 300 296 q 90 -19 147 108 l 67 -10 q 119 112 92 58 q 176 208 146 165 q 238 287 206 251 q 306 353 269 322 q 238 421 269 385 q 176 502 206 457 q 119 602 146 547 q 67 725 92 657 l 90 735 z "},"\"":{"ha":414,"x_min":82,"x_max":333,"o":"m 132 1014 q 167 997 153 1014 q 182 950 182 981 q 176 865 182 904 q 162 776 171 825 q 142 650 153 726 l 122 650 q 103 772 113 722 q 88 862 93 821 q 82 949 82 903 q 97 996 82 979 q 132 1014 111 1013 m 283 1014 q 319 997 304 1014 q 333 950 333 981 q 328 865 333 904 q 313 776 322 825 q 293 650 304 726 l 274 650 q 254 772 264 722 q 239 862 244 821 q 233 949 233 903 q 248 996 233 979 q 283 1014 263 1013 z "},"'":{"ha":263,"x_min":82,"x_max":182,"o":"m 132 1014 q 167 997 153 1014 q 182 950 182 981 q 176 865 182 904 q 162 776 171 825 q 142 650 153 726 l 122 650 q 103 772 113 722 q 88 862 93 821 q 82 949 82 903 q 97 996 82 979 q 132 1014 111 1013 z "}," ":{"ha":346,"x_min":0,"x_max":0,"o":""}," ":{"ha":346,"x_min":0,"x_max":0,"o":""}," ":{"ha":69,"x_min":0,"x_max":0,"o":""},"\r":{"ha":346,"x_min":0,"x_max":0,"o":""},"¢":{"ha":658,"x_min":47,"x_max":610,"o":"m 338 -251 l 338 13 l 368 13 l 368 -251 l 338 -251 m 338 722 l 338 983 l 368 983 l 368 722 l 338 722 m 371 735 q 457 724 415 735 q 532 690 499 713 q 581 642 564 669 q 597 583 597 615 q 576 526 597 546 q 524 506 556 506 q 470 524 493 506 q 447 575 447 542 q 465 626 447 607 q 506 651 482 646 q 456 693 492 676 q 381 710 421 710 q 311 693 346 710 q 247 638 276 676 q 200 534 218 600 q 182 369 182 468 q 210 175 182 247 q 283 72 238 103 q 382 40 328 40 q 456 54 418 40 q 526 99 493 68 q 583 183 560 131 l 610 174 q 564 84 596 129 q 481 10 532 39 q 354 -19 429 -19 q 199 25 268 -19 q 88 152 129 69 q 47 349 47 235 q 88 549 47 463 q 203 685 129 636 q 371 735 276 735 z "},"¤":{"ha":743,"x_min":107,"x_max":639,"o":"m 600 683 l 639 644 l 576 582 q 619 506 604 547 q 635 417 635 464 q 619 327 635 369 q 576 251 604 285 l 638 192 l 599 151 l 538 213 q 461 170 503 186 q 372 154 419 154 q 207 211 276 154 l 147 151 l 107 192 l 167 251 q 124 327 140 285 q 108 417 108 369 q 124 506 108 464 q 168 583 140 549 l 107 644 l 146 683 l 207 622 q 283 665 240 650 q 372 681 325 681 q 461 665 419 681 q 538 621 503 649 l 600 683 m 372 629 q 268 600 315 629 q 193 523 221 571 q 165 417 165 475 q 194 311 165 360 q 269 234 222 263 q 372 206 317 206 q 476 234 429 206 q 550 311 522 263 q 578 417 578 360 q 550 522 578 474 q 476 600 522 571 q 372 629 429 629 z "},"$":{"ha":726,"x_min":75,"x_max":669,"o":"m 343 999 q 449 983 413 999 q 513 947 485 967 q 540 933 529 938 q 560 928 550 928 q 580 943 574 928 q 590 989 586 958 l 622 989 q 619 933 621 965 q 616 847 617 900 q 615 706 615 793 l 583 706 q 554 833 579 772 q 481 933 529 894 q 356 972 433 972 q 234 928 282 972 q 186 811 186 883 q 205 729 186 764 q 256 666 224 694 q 331 612 289 638 q 419 557 372 586 q 548 469 492 513 q 637 372 604 425 q 669 244 669 319 q 629 97 669 156 q 522 10 589 39 q 375 -19 456 -19 q 258 -3 301 -19 q 185 32 215 14 q 157 47 168 43 q 138 51 146 51 q 117 36 124 51 q 107 -10 111 21 l 75 -10 q 78 59 78 19 q 80 163 79 99 q 81 324 81 226 l 113 324 q 132 204 117 261 q 176 103 147 147 q 252 33 206 58 q 365 8 299 8 q 452 27 411 8 q 519 87 493 46 q 546 193 546 128 q 531 269 546 235 q 486 333 515 304 q 417 390 457 363 q 329 447 378 418 q 207 529 264 488 q 116 626 150 571 q 82 758 82 681 q 119 894 82 840 q 215 973 156 947 q 343 999 275 999 m 322 1167 l 322 -183 l 294 -183 l 294 1167 l 322 1167 m 439 1167 l 439 -183 l 411 -183 l 411 1167 l 439 1167 z "},"€":{"ha":811,"x_min":46,"x_max":738,"o":"m 518 1003 q 613 986 575 1003 q 672 954 650 969 q 719 908 700 933 q 738 854 738 883 q 717 801 738 822 q 664 781 696 781 q 610 801 633 781 q 588 856 588 821 q 603 903 588 885 q 646 926 619 921 q 599 963 636 947 q 522 979 563 979 q 393 919 446 979 q 313 750 340 860 q 285 489 285 640 q 346 131 285 257 q 521 4 407 4 q 598 20 561 4 q 644 57 635 36 q 602 81 618 63 q 586 128 586 99 q 609 183 586 164 q 663 203 632 203 q 715 182 694 203 q 736 129 736 161 q 717 75 736 100 q 671 29 699 50 q 611 -3 649 14 q 517 -19 574 -19 q 322 40 406 -19 q 192 213 239 100 q 146 483 146 325 q 174 695 146 600 q 251 860 201 790 q 369 966 300 929 q 518 1003 438 1003 m 507 440 l 490 413 l 46 413 l 46 440 l 507 440 m 585 579 l 569 551 l 46 551 l 46 579 l 585 579 z "},"£":{"ha":836,"x_min":49,"x_max":792,"o":"m 497 1022 q 574 1012 542 1022 q 628 985 606 1001 q 659 948 649 968 q 669 908 669 928 q 650 859 669 878 q 604 840 631 840 q 560 858 581 840 q 540 903 540 875 q 552 943 540 926 q 586 968 564 960 q 556 992 583 982 q 500 1001 529 1001 q 396 972 433 1001 q 342 891 358 942 q 322 776 326 840 q 318 646 318 713 l 318 440 q 313 349 318 390 q 295 270 307 307 q 267 197 283 233 q 228 122 250 161 q 284 142 256 135 q 347 150 313 150 q 441 134 396 150 q 533 103 486 118 q 632 88 579 88 q 704 112 682 88 q 726 167 726 136 q 694 246 726 215 q 608 286 661 276 l 614 308 q 699 280 658 301 q 766 222 740 258 q 792 135 792 186 q 775 60 792 96 q 724 3 758 25 q 640 -19 690 -19 q 540 4 586 -19 q 449 56 493 28 q 360 100 406 85 q 328 108 346 106 q 292 111 311 111 q 215 97 253 111 q 145 11 183 42 q 71 -19 107 -19 q 55 -17 61 -19 q 49 -6 49 -15 q 67 29 49 8 q 115 70 86 50 q 174 101 143 90 q 184 167 181 133 q 188 247 188 201 q 189 358 189 293 l 189 610 q 204 770 189 696 q 255 901 219 844 q 349 990 290 958 q 497 1022 408 1022 m 519 440 l 519 413 l 82 413 l 82 440 l 519 440 m 519 579 l 519 551 l 82 551 l 82 579 l 519 579 z "},"¥":{"ha":899,"x_min":38,"x_max":858,"o":"m 724 411 l 724 383 l 206 383 l 206 411 l 724 411 m 724 272 l 724 244 l 206 244 l 206 272 l 724 272 m 858 983 l 858 956 q 806 922 832 950 q 747 832 779 893 l 467 276 l 443 276 l 118 876 q 72 941 90 928 q 38 954 53 954 l 38 983 q 95 981 65 982 q 160 979 125 979 q 258 980 206 979 q 354 983 310 981 l 354 954 q 293 946 319 954 q 258 915 267 938 q 271 853 250 893 l 506 403 l 494 394 l 679 763 q 717 881 718 839 q 685 938 717 922 q 594 956 653 954 l 594 983 q 676 981 635 982 q 754 979 718 979 q 814 981 790 979 q 858 983 838 982 m 529 422 l 529 147 q 538 72 529 97 q 570 39 546 47 q 642 28 594 31 l 642 0 q 562 3 610 3 q 465 4 514 4 q 364 3 411 4 q 288 0 317 3 l 288 28 q 359 39 335 31 q 392 72 383 47 q 400 147 400 97 l 400 432 l 475 346 l 529 422 z "},"+":{"ha":815,"x_min":60,"x_max":756,"o":"m 433 842 l 433 514 l 756 514 l 756 472 l 433 472 l 433 146 l 383 146 l 383 472 l 60 472 l 60 514 l 383 514 l 383 842 l 433 842 z "},"−":{"ha":899,"x_min":101,"x_max":797,"o":"m 797 514 l 797 472 l 101 472 l 101 514 l 797 514 z "},"×":{"ha":708,"x_min":82,"x_max":626,"o":"m 113 767 l 356 524 l 596 764 l 626 733 l 386 494 l 626 254 l 596 224 l 356 464 l 114 222 l 83 253 l 325 493 l 82 736 l 113 767 z "},"÷":{"ha":901,"x_min":101,"x_max":797,"o":"m 450 369 q 505 347 482 369 q 528 293 528 325 q 505 238 528 261 q 450 215 482 215 q 397 238 419 215 q 374 293 374 261 q 397 347 374 325 q 450 369 419 369 m 450 769 q 505 747 482 769 q 528 693 528 725 q 505 639 528 661 q 450 617 482 617 q 397 639 419 617 q 374 693 374 661 q 397 747 374 725 q 450 769 419 769 m 797 514 l 797 472 l 101 472 l 101 514 l 797 514 z "},"=":{"ha":899,"x_min":101,"x_max":797,"o":"m 797 611 l 797 569 l 101 569 l 101 611 l 797 611 m 797 417 l 797 375 l 101 375 l 101 417 l 797 417 z "},">":{"ha":844,"x_min":103,"x_max":803,"o":"m 126 808 l 803 493 l 126 178 l 103 228 l 671 493 l 103 758 l 126 808 z "},"<":{"ha":844,"x_min":42,"x_max":742,"o":"m 718 808 l 742 758 l 174 493 l 742 228 l 718 178 l 42 493 l 718 808 z "},"±":{"ha":829,"x_min":60,"x_max":769,"o":"m 769 42 l 769 0 l 74 0 l 74 42 l 769 42 m 433 842 l 433 514 l 756 514 l 756 472 l 433 472 l 433 146 l 383 146 l 383 472 l 60 472 l 60 514 l 383 514 l 383 842 l 433 842 z "},"~":{"ha":901,"x_min":103,"x_max":800,"o":"m 299 507 q 394 491 350 507 q 478 453 438 475 q 562 416 519 432 q 651 400 604 400 q 726 418 693 400 q 776 481 758 436 l 800 474 q 767 395 794 428 q 697 344 739 363 q 604 326 654 326 q 509 342 553 326 q 424 380 465 358 q 342 417 383 401 q 251 433 300 433 q 178 415 210 433 q 126 353 146 397 l 103 360 q 136 438 108 406 q 207 489 164 471 q 299 507 250 507 z "},"¬":{"ha":911,"x_min":114,"x_max":810,"o":"m 810 514 l 810 229 l 760 229 l 760 472 l 114 472 l 114 514 l 810 514 z "},"%":{"ha":1031,"x_min":49,"x_max":979,"o":"m 256 1057 q 406 997 349 1057 q 463 831 463 938 q 435 708 463 761 q 362 626 408 656 q 256 597 315 597 q 106 657 163 597 q 49 824 49 717 q 76 946 49 893 q 149 1028 103 999 q 256 1057 196 1057 m 769 415 q 689 363 715 415 q 663 208 663 310 q 693 56 663 107 q 775 6 724 6 q 855 58 829 6 q 881 211 881 111 q 851 365 881 314 q 769 415 822 415 m 772 440 q 922 381 865 440 q 979 214 979 321 q 952 92 979 144 q 878 10 925 39 q 772 -19 832 -19 q 622 40 679 -19 q 565 207 565 100 q 592 329 565 276 q 666 411 619 382 q 772 440 713 440 m 253 1032 q 172 979 199 1032 q 146 825 146 926 q 176 673 146 724 q 258 622 207 622 q 338 675 313 622 q 364 828 364 728 q 335 981 364 931 q 253 1032 306 1032 m 917 1144 l 943 1126 l 131 -76 l 104 -58 l 917 1144 z "},"↑":{"ha":686,"x_min":83,"x_max":603,"o":"m 343 814 q 435 645 372 715 q 603 526 497 575 l 603 503 q 343 563 475 563 q 83 503 211 563 l 83 526 q 251 645 189 575 q 343 814 314 715 m 343 297 q 435 128 372 199 q 603 10 497 58 l 603 -14 q 436 94 497 35 q 343 238 375 154 q 251 94 313 154 q 83 -14 189 35 l 83 10 q 251 128 189 58 q 343 297 314 199 m 343 422 q 435 253 372 324 q 603 135 497 183 l 603 111 q 436 219 497 160 q 343 363 375 279 q 251 219 313 279 q 83 111 189 160 l 83 135 q 251 253 189 183 q 343 422 314 324 m 354 576 l 354 371 l 332 371 l 332 576 l 354 576 z "},"↓":{"ha":686,"x_min":83,"x_max":603,"o":"m 603 814 l 603 790 q 435 672 497 743 q 343 503 372 601 q 251 672 314 601 q 83 790 189 743 l 83 814 q 251 706 189 765 q 343 563 313 646 q 436 706 375 646 q 603 814 497 765 m 603 297 l 603 274 q 435 156 497 226 q 343 -14 372 85 q 251 156 314 85 q 83 274 189 226 l 83 297 q 343 238 211 238 q 603 297 475 238 m 354 429 l 354 224 l 332 224 l 332 429 l 354 429 m 603 689 l 603 665 q 435 547 497 618 q 343 378 372 476 q 251 547 314 476 q 83 665 189 618 l 83 689 q 251 581 189 640 q 343 438 313 521 q 436 581 375 521 q 603 689 497 640 z "},"@":{"ha":1219,"x_min":68,"x_max":1172,"o":"m 739 928 q 958 889 860 928 q 1114 766 1056 850 q 1172 546 1172 682 q 1135 335 1172 429 q 1037 174 1097 240 q 906 72 976 107 q 769 36 836 36 q 692 60 714 36 q 669 117 669 83 q 678 183 669 151 q 690 231 686 215 l 775 644 q 840 649 807 644 q 900 664 874 653 l 783 154 q 775 105 775 124 q 785 78 775 86 q 815 71 796 71 q 911 102 856 71 q 1020 194 967 133 q 1109 343 1074 254 q 1144 547 1144 432 q 1089 754 1144 676 q 942 867 1033 832 q 740 903 850 903 q 543 867 639 903 q 366 765 447 831 q 224 610 285 699 q 130 418 164 522 q 96 201 96 314 q 150 -30 96 58 q 299 -158 204 -118 q 513 -199 393 -199 q 659 -181 588 -199 q 799 -124 731 -164 l 808 -142 q 681 -201 757 -178 q 511 -224 604 -224 q 282 -179 382 -224 q 125 -42 182 -135 q 68 199 68 51 q 101 417 68 311 q 197 616 135 524 q 342 778 258 708 q 526 888 425 849 q 739 928 626 928 m 664 664 q 720 651 696 664 q 758 612 744 639 q 767 538 771 585 l 756 532 q 746 590 756 568 q 717 622 736 613 q 669 632 697 632 q 584 594 624 632 q 515 495 544 557 q 468 360 485 433 q 451 213 451 286 q 470 111 451 144 q 524 78 489 78 q 634 163 578 78 q 725 396 690 247 l 736 374 q 669 183 706 258 q 587 72 633 108 q 476 36 540 36 q 392 58 424 36 q 347 119 361 81 q 333 204 333 157 q 363 365 333 283 q 440 513 392 446 q 546 622 488 581 q 664 664 604 664 z "},"&":{"ha":1163,"x_min":75,"x_max":1135,"o":"m 426 975 q 514 963 479 975 q 571 933 549 951 q 600 903 589 919 q 617 869 611 886 q 622 838 622 853 q 598 783 622 803 q 544 764 574 764 q 494 782 517 764 q 472 833 472 800 q 493 885 472 864 q 546 910 514 907 q 512 941 540 928 q 440 954 483 954 q 324 912 369 954 q 279 789 279 869 q 294 710 279 750 q 350 631 308 669 q 399 637 374 635 q 436 639 424 639 q 476 631 461 639 q 492 607 492 622 q 481 588 492 594 q 453 581 471 581 q 397 592 426 581 q 351 611 368 604 q 221 534 271 588 q 171 383 171 481 q 221 221 171 288 q 355 119 271 154 q 543 83 439 83 q 683 101 617 83 q 799 151 749 118 q 879 231 850 185 q 908 338 908 278 q 897 405 908 364 q 851 485 886 446 q 744 547 817 525 l 761 561 q 906 463 863 531 q 949 313 949 396 q 899 153 949 229 q 754 28 849 76 q 525 -19 660 -19 q 353 4 435 -19 q 210 73 272 28 q 111 182 147 118 q 75 326 75 246 q 104 455 75 401 q 176 543 133 508 q 263 597 219 578 q 332 622 306 615 q 255 672 286 643 q 208 734 224 700 q 192 801 192 768 q 207 866 192 835 q 251 922 222 897 q 324 961 281 947 q 426 975 368 975 m 932 1003 q 1076 953 1018 1003 q 1135 815 1135 904 q 1117 731 1135 768 q 1070 667 1100 694 q 1003 621 1040 639 q 919 588 971 606 q 808 551 867 569 q 695 516 749 533 q 608 486 642 499 q 522 438 557 467 q 486 365 486 410 q 507 304 486 329 q 558 267 528 279 q 614 254 588 254 q 645 258 626 254 q 679 268 664 261 q 697 285 694 275 q 653 305 675 289 q 632 356 632 321 q 654 408 632 389 q 708 428 676 428 q 762 407 742 428 q 782 353 782 386 q 756 287 782 314 q 692 247 731 260 q 617 233 654 233 q 538 250 578 233 q 471 302 497 267 q 444 396 444 338 q 466 482 444 444 q 531 549 488 519 q 636 599 574 578 q 738 629 678 613 q 860 665 797 646 q 975 708 924 685 q 1069 774 1044 740 q 1094 842 1094 807 q 1072 913 1094 882 q 1013 963 1050 944 q 933 982 976 982 q 906 979 917 982 q 892 969 894 976 q 921 942 911 960 q 931 906 931 924 q 908 857 931 876 q 853 838 885 838 q 803 855 826 838 q 779 907 779 872 q 803 964 779 943 q 863 994 828 985 q 932 1003 899 1003 z "},"¶":{"ha":896,"x_min":49,"x_max":844,"o":"m 546 985 q 699 981 628 985 q 839 983 771 978 l 839 957 q 751 931 771 954 q 732 863 732 908 l 732 -104 q 740 -179 732 -154 q 773 -212 749 -204 q 844 -224 797 -221 l 844 -251 q 765 -248 813 -249 q 668 -247 717 -247 q 551 -248 606 -247 q 463 -251 496 -249 l 463 -224 q 551 -208 521 -221 q 592 -167 582 -196 q 603 -90 603 -139 l 603 -18 q 343 21 449 -18 q 172 130 238 60 q 78 294 107 200 q 49 500 49 389 q 108 751 49 642 q 278 923 167 861 q 546 985 389 985 m 604 911 q 590 856 600 911 q 572 709 581 800 q 561 508 563 618 q 366 504 454 508 q 225 495 278 500 q 172 488 172 490 q 225 480 172 485 q 366 472 278 475 q 561 468 454 468 q 572 265 563 356 q 590 120 581 174 q 604 67 600 67 q 604 112 604 67 q 604 232 604 157 q 604 397 604 307 q 604 576 604 486 q 604 742 604 667 q 604 863 604 817 q 604 911 604 910 z "},"§":{"ha":706,"x_min":57,"x_max":650,"o":"m 363 1086 q 435 1078 404 1086 q 486 1063 465 1071 q 565 1008 536 1042 q 593 938 593 974 q 574 885 593 907 q 519 863 556 863 q 466 883 489 863 q 443 936 443 903 q 457 981 443 960 q 503 1010 471 1001 q 469 1041 493 1031 q 417 1056 444 1051 q 368 1060 389 1060 q 277 1038 311 1060 q 229 985 243 1017 q 215 922 215 954 q 251 823 215 868 q 339 739 286 778 q 446 663 392 700 q 558 577 513 617 q 627 494 604 538 q 650 392 650 450 q 611 260 650 324 q 471 146 572 197 l 458 160 q 547 234 519 192 q 575 322 575 276 q 547 408 575 369 q 474 483 519 447 q 375 556 428 519 q 244 650 303 606 q 152 747 186 694 q 118 868 118 799 q 148 982 118 933 q 233 1058 178 1031 q 363 1086 289 1086 m 233 682 l 249 665 q 160 592 188 636 q 132 503 132 549 q 160 417 132 457 q 233 342 188 378 q 332 269 279 306 q 463 176 404 221 q 555 78 521 131 q 589 -43 589 26 q 559 -156 589 -107 q 474 -233 529 -206 q 344 -261 419 -261 q 272 -253 303 -261 q 221 -237 242 -246 q 142 -183 171 -217 q 114 -112 114 -149 q 133 -60 114 -82 q 188 -37 153 -37 q 242 -58 219 -37 q 264 -111 264 -78 q 250 -156 264 -135 q 204 -185 236 -176 q 237 -215 213 -204 q 290 -231 261 -226 q 340 -235 319 -235 q 430 -213 397 -235 q 477 -160 463 -192 q 492 -97 492 -128 q 457 3 492 -42 q 369 86 422 47 q 261 163 315 125 q 149 248 194 208 q 81 332 104 288 q 57 433 57 376 q 94 567 57 503 q 233 682 132 631 z "},"©":{"ha":1242,"x_min":68,"x_max":1174,"o":"m 621 1086 q 836 1043 736 1086 q 1012 924 936 1000 q 1131 749 1088 849 q 1174 533 1174 649 q 1131 319 1174 419 q 1012 142 1088 218 q 836 24 936 67 q 621 -19 736 -19 q 406 24 507 -19 q 230 142 306 67 q 111 319 154 218 q 68 533 68 419 q 111 749 68 649 q 230 924 154 849 q 406 1043 306 1000 q 621 1086 507 1086 m 644 911 q 735 899 692 911 q 811 863 779 886 q 854 818 839 844 q 869 760 869 792 q 849 702 869 722 q 796 682 828 682 q 742 702 765 682 q 719 757 719 722 q 735 804 719 786 q 778 828 751 822 q 728 869 764 853 q 653 886 693 886 q 592 874 622 886 q 533 832 561 861 q 493 768 511 807 q 465 673 475 729 q 454 542 454 617 q 482 351 454 422 q 555 248 510 279 q 653 217 600 217 q 727 231 690 217 q 798 276 764 244 q 856 360 832 307 l 882 350 q 836 260 868 306 q 753 186 804 215 q 628 157 701 157 q 472 201 542 157 q 360 328 401 246 q 319 525 319 411 q 360 726 319 639 q 475 862 401 813 q 644 911 549 911 m 621 1042 q 428 1002 518 1042 q 269 892 338 963 q 163 731 201 822 q 124 533 124 639 q 163 336 124 428 q 269 174 201 244 q 428 65 338 104 q 621 25 518 25 q 814 65 724 25 q 972 174 904 104 q 1079 336 1040 244 q 1118 533 1118 428 q 1079 731 1118 639 q 972 892 1040 822 q 814 1002 904 963 q 621 1042 724 1042 z "},"®":{"ha":942,"x_min":83,"x_max":858,"o":"m 471 1086 q 622 1056 551 1086 q 745 973 692 1026 q 828 849 799 919 q 858 699 858 779 q 828 548 858 618 q 745 424 799 478 q 622 341 692 371 q 471 311 551 311 q 320 341 390 311 q 197 424 250 371 q 113 548 143 478 q 83 699 83 618 q 113 849 83 779 q 197 973 143 919 q 320 1056 250 1026 q 471 1086 390 1086 m 375 722 q 442 721 422 722 q 473 717 463 719 q 499 713 483 715 q 588 687 564 707 q 619 631 613 667 l 636 551 q 644 519 640 533 q 661 506 647 506 q 678 517 672 506 l 692 507 q 669 484 683 490 q 631 478 654 478 q 578 492 594 478 q 554 535 561 506 l 531 638 q 513 679 525 665 q 472 697 501 693 q 378 701 442 701 l 375 722 m 471 1042 q 305 995 379 1042 q 186 871 231 949 q 142 699 142 793 q 186 527 142 606 q 305 402 231 449 q 471 356 379 356 q 638 402 563 356 q 756 527 713 449 q 800 699 800 606 q 756 871 800 793 q 638 995 713 949 q 471 1042 563 1042 m 483 939 q 603 910 563 939 q 644 829 644 882 q 629 774 644 801 q 572 728 614 747 q 451 706 531 710 l 368 701 q 368 713 368 701 q 368 724 368 724 l 442 724 q 537 750 515 724 q 558 815 558 776 q 537 893 558 868 q 461 918 515 918 q 418 909 428 918 q 408 872 408 900 l 408 561 q 415 521 408 529 q 440 510 421 513 l 440 489 q 408 490 426 489 q 369 490 389 490 q 328 490 347 490 q 297 489 310 489 l 297 510 q 323 521 317 513 q 329 561 329 529 l 329 865 q 323 908 329 899 q 297 918 317 917 l 297 939 q 328 938 310 938 q 364 938 346 938 q 436 938 403 938 q 483 939 469 939 z "},"™":{"ha":1450,"x_min":97,"x_max":1357,"o":"m 1357 983 l 1357 956 q 1299 940 1313 953 q 1286 878 1286 928 l 1286 522 q 1299 460 1286 472 q 1357 444 1311 447 l 1357 417 q 1301 420 1335 419 q 1236 421 1268 421 q 1175 420 1203 421 q 1128 417 1147 419 l 1128 444 q 1174 460 1164 447 q 1185 522 1185 472 l 1185 892 l 1003 410 l 981 410 l 783 894 l 783 522 q 794 460 783 472 q 840 444 806 447 l 840 417 q 768 421 811 421 q 720 420 744 421 q 681 417 696 419 l 681 444 q 739 460 726 447 q 751 522 751 472 l 751 878 q 739 940 751 928 q 681 956 726 953 l 681 983 q 720 981 696 982 q 768 979 744 979 q 819 981 799 979 q 863 983 840 982 l 1031 571 l 1185 979 q 1216 979 1200 979 q 1250 979 1232 979 q 1308 981 1278 979 q 1357 983 1338 982 m 601 983 q 594 913 596 947 q 592 861 592 879 q 596 789 592 817 l 564 789 q 537 916 558 881 q 475 951 515 951 l 400 951 l 400 536 q 407 478 400 497 q 435 453 414 460 q 499 444 457 447 l 499 417 q 431 420 471 419 q 350 421 390 421 q 265 420 304 421 q 200 417 225 419 l 200 444 q 263 453 242 447 q 292 478 285 460 q 299 536 299 497 l 299 951 l 224 951 q 163 916 185 951 q 135 789 142 881 l 103 789 q 106 822 106 803 q 107 861 107 840 q 105 913 107 879 q 97 983 103 947 q 224 980 153 981 q 350 979 296 979 q 475 980 404 979 q 601 983 546 981 z "},"°":{"ha":463,"x_min":63,"x_max":400,"o":"m 231 1139 q 349 1094 299 1139 q 400 972 400 1050 q 349 849 400 894 q 231 804 299 804 q 113 849 164 804 q 63 972 63 894 q 113 1094 63 1050 q 231 1139 164 1139 m 231 1115 q 169 1099 200 1115 q 117 1050 138 1082 q 97 971 97 1018 q 117 890 97 922 q 169 843 138 858 q 231 828 200 828 q 293 843 263 828 q 344 890 324 858 q 365 971 365 922 q 344 1050 365 1018 q 293 1099 324 1082 q 231 1115 263 1115 z "},"|":{"ha":308,"x_min":126,"x_max":182,"o":"m 182 1192 l 182 -271 l 126 -271 l 126 1192 l 182 1192 z "},"¦":{"ha":311,"x_min":128,"x_max":183,"o":"m 183 453 l 183 -271 l 128 -271 l 128 453 l 183 453 m 183 1192 l 183 533 l 128 533 l 128 1192 l 183 1192 z "},"^":{"ha":744,"x_min":100,"x_max":644,"o":"m 385 733 q 485 583 417 656 q 644 467 554 511 l 633 447 q 472 523 550 478 q 344 614 393 568 q 242 523 306 568 q 111 447 178 478 l 100 467 q 259 583 190 511 q 360 733 328 656 l 385 733 z "},"′":{"ha":431,"x_min":61,"x_max":418,"o":"m 61 569 l 85 558 l 418 983 l 250 983 l 61 569 z "},"″":{"ha":708,"x_min":61,"x_max":696,"o":"m 61 569 l 85 558 l 418 983 l 250 983 l 61 569 m 339 569 l 363 558 l 696 983 l 528 983 l 339 569 z "},"ʼ":{"ha":340,"x_min":75,"x_max":269,"o":"m 164 1003 q 214 990 194 1003 q 246 958 233 978 q 265 910 261 936 q 269 867 269 883 q 235 743 269 799 q 126 653 200 688 l 114 678 q 188 735 157 696 q 219 814 219 774 q 215 843 219 831 q 164 825 193 825 q 101 849 128 825 q 75 914 75 872 q 101 978 75 953 q 164 1003 128 1003 z "},"ʻ":{"ha":363,"x_min":82,"x_max":276,"o":"m 188 653 q 138 665 157 653 q 106 697 118 678 q 87 747 92 721 q 82 789 82 772 q 117 913 82 857 q 225 1003 151 968 l 238 978 q 163 921 194 960 q 132 842 132 882 q 136 813 132 825 q 188 831 158 831 q 250 807 224 831 q 276 742 276 783 q 250 678 276 703 q 188 653 224 653 z "},"´":{"ha":393,"x_min":69,"x_max":325,"o":"m 304 1129 q 323 1093 321 1115 q 304 1043 325 1071 q 253 990 283 1017 q 181 927 222 964 q 85 832 140 890 l 69 844 q 138 961 113 913 q 182 1046 164 1010 q 221 1108 200 1082 q 265 1139 242 1136 q 304 1129 288 1142 z "},"¸":{"ha":411,"x_min":69,"x_max":342,"o":"m 211 8 l 175 -100 q 214 -93 193 -96 q 257 -90 235 -90 q 319 -107 296 -90 q 342 -156 342 -124 q 316 -217 342 -194 q 254 -251 290 -240 q 185 -261 218 -261 q 117 -256 146 -261 q 69 -246 89 -251 l 75 -221 q 97 -224 82 -222 q 128 -225 111 -225 q 184 -219 156 -225 q 233 -201 213 -214 q 253 -162 253 -187 q 194 -124 253 -124 q 163 -126 183 -124 q 126 -133 142 -128 l 174 8 l 211 8 z "},"ˆ":{"ha":628,"x_min":69,"x_max":558,"o":"m 326 1114 q 416 980 354 1044 q 558 875 478 915 l 547 856 q 401 919 472 882 q 286 994 331 957 q 195 919 251 957 q 81 856 139 882 l 69 875 q 212 980 150 915 q 301 1114 274 1044 l 326 1114 z "},"¨":{"ha":594,"x_min":69,"x_max":525,"o":"m 444 1032 q 501 1008 476 1032 q 525 951 525 983 q 501 894 525 918 q 444 871 476 871 q 388 894 411 871 q 364 951 364 918 q 388 1008 364 983 q 444 1032 411 1032 m 150 1032 q 206 1008 182 1032 q 231 951 231 983 q 206 894 231 918 q 150 871 182 871 q 93 894 117 871 q 69 951 69 918 q 93 1008 69 983 q 150 1032 117 1032 z "},"`":{"ha":393,"x_min":68,"x_max":324,"o":"m 89 1129 q 128 1139 106 1142 q 172 1108 151 1136 q 211 1046 193 1082 q 255 961 229 1010 q 324 844 281 913 l 308 832 q 213 927 254 890 q 141 990 171 964 q 89 1043 111 1017 q 70 1093 68 1071 q 89 1129 72 1115 z "},"¯":{"ha":572,"x_min":69,"x_max":503,"o":"m 503 989 l 503 954 l 69 954 l 69 989 l 503 989 z "},"˚":{"ha":407,"x_min":69,"x_max":338,"o":"m 203 1099 q 297 1065 257 1099 q 338 972 338 1031 q 297 878 338 913 q 203 844 257 844 q 110 878 150 844 q 69 972 69 913 q 110 1065 69 1031 q 203 1099 150 1099 m 203 1069 q 139 1044 169 1069 q 108 971 108 1019 q 139 898 108 922 q 203 874 169 874 q 268 898 238 874 q 299 971 299 922 q 268 1044 299 1019 q 203 1069 238 1069 z "},"˜":{"ha":640,"x_min":69,"x_max":571,"o":"m 235 1067 q 299 1053 272 1067 q 347 1021 325 1039 q 391 989 368 1003 q 444 975 414 975 q 501 992 474 975 q 551 1049 528 1010 l 571 1039 q 504 929 549 963 q 407 896 460 896 q 342 910 369 896 q 294 942 315 924 q 249 975 272 961 q 196 989 226 989 q 140 972 167 989 q 89 914 113 954 l 69 924 q 137 1034 92 1001 q 235 1067 182 1067 z "},"\u0000":{"ha":0,"x_min":0,"x_max":0,"o":""}}}
